<?xml version="1.0" encoding="utf-8"?>
<!-- Generator: Adobe Illustrator 24.2.0, SVG Export Plug-In . SVG Version: 6.00 Build 0)  -->
<svg version="1.1" id="Layer_1__x28_1:1_x29_" xmlns="http://www.w3.org/2000/svg" xmlns:xlink="http://www.w3.org/1999/xlink"
	 x="0px" y="0px" viewBox="0 0 58.6 37.5" style="enable-background:new 0 0 58.6 37.5;" xml:space="preserve">
<style type="text/css">
	.st0{fill:#0071CE;}
</style>
<g>
	<g>
		<path class="st0" d="M53.7,33.4l-2.6-2.9l-2.7,2.9h-5.3l0,0H31.7V19.9h-5.3L33,4.8h6.4l2.3,5.2V4.8h8l1.4,3.9l1.4-3.9h6.1V2.5
			c0-1.4-1.1-2.5-2.5-2.5H2.5C1.1,0,0,1.1,0,2.5V35c0,1.4,1.1,2.5,2.5,2.5h53.6c1.4,0,2.5-1.1,2.5-2.5v-1.6H53.7z"/>
		<g>
			<polygon class="st0" points="54.4,31.8 58.6,31.8 53.1,25.9 58.6,20.1 54.5,20.1 51,23.9 47.6,20.1 43.4,20.1 49,26 43.4,31.8 
				47.5,31.8 51,28 			"/>
			<polygon class="st0" points="36.7,29.1 36.7,27.3 43.3,27.3 43.3,24.6 36.7,24.6 36.7,22.8 43.4,22.8 43.4,20.1 33.5,20.1 
				33.5,31.8 43.4,31.8 43.4,29.1 			"/>
			<polygon class="st0" points="55.5,18.4 58.5,18.4 58.5,6.6 53.7,6.7 51.1,14 48.4,6.7 43.4,6.7 43.4,18.4 46.6,18.4 46.6,10.2 
				49.6,18.4 52.4,18.4 55.5,10.2 			"/>
			<path class="st0" d="M38.3,6.7h-4.1L29,18.4h3.5l1-2.3h5.4l1,2.3h3.6L38.3,6.7z M34.6,13.4l1.6-3.8l1.6,3.8H34.6z"/>
		</g>
	</g>
	<polygon class="st0" points="55.7,25.6 58.6,28.8 58.6,22.4 	"/>
</g>
</svg>
