<?xml version="1.0" encoding="utf-8"?>
<!-- Generator: Adobe Illustrator 24.2.0, SVG Export Plug-In . SVG Version: 6.00 Build 0)  -->
<svg version="1.1" id="Layer_1" xmlns="http://www.w3.org/2000/svg" xmlns:xlink="http://www.w3.org/1999/xlink" x="0px" y="0px"
	 viewBox="0 0 337.8 72" style="enable-background:new 0 0 337.8 72;" xml:space="preserve">
<style type="text/css">
	.st0{fill:none;}
	.st1{fill:#FFFFFF;}
	.st2{fill:#7375CF;}
	.st3{fill:#EB001B;}
	.st4{fill:#00A2E5;}
</style>
<g>
	<rect x="-38" y="-19" class="st0" width="408" height="110"/>
	<g>
		<path class="st1" d="M336.2,45.9c0.2,0,0.4,0,0.6,0.1c0.2,0.1,0.3,0.2,0.5,0.3c0.1,0.1,0.3,0.3,0.3,0.5c0.2,0.4,0.2,0.8,0,1.2
			c-0.1,0.2-0.2,0.3-0.3,0.5c-0.1,0.1-0.3,0.2-0.5,0.3c-0.2,0.1-0.4,0.1-0.6,0.1c-0.6,0-1.2-0.4-1.4-0.9c-0.2-0.4-0.2-0.8,0-1.2
			c0.2-0.4,0.5-0.7,0.8-0.8C335.8,46,336,45.9,336.2,45.9z M336.2,48.6c0.2,0,0.3,0,0.5-0.1c0.1-0.1,0.3-0.1,0.4-0.3
			c0.5-0.5,0.5-1.2,0-1.7c-0.1-0.1-0.2-0.2-0.4-0.3c-0.1-0.1-0.3-0.1-0.5-0.1c-0.2,0-0.3,0-0.5,0.1c-0.6,0.3-0.9,1-0.6,1.6
			c0.1,0.1,0.1,0.3,0.2,0.4c0.1,0.1,0.2,0.2,0.4,0.3C335.9,48.6,336.1,48.6,336.2,48.6z M336.3,46.7c0.1,0,0.3,0,0.4,0.1
			c0.1,0.1,0.2,0.2,0.1,0.3c0,0.1,0,0.2-0.1,0.3c-0.1,0.1-0.2,0.1-0.3,0.1l0.5,0.5h-0.4l-0.4-0.5H336v0.5h-0.3v-1.4L336.3,46.7z
			 M336,47v0.4h0.3c0.1,0,0.1,0,0.2,0c0,0,0.1-0.1,0.1-0.1c0-0.1,0-0.1-0.1-0.1c-0.1,0-0.1,0-0.2,0H336z M178.4,48.1v-15
			c0-5.7-3.6-9.5-9.4-9.5c-3.4-0.2-6.6,1.4-8.4,4.3c-1.7-2.8-4.7-4.4-7.9-4.3c-2.8-0.1-5.5,1.2-7,3.6v-3h-5.2v23.9h5.3V34.9
			c0-4.2,2.3-6.4,5.9-6.4c3.5,0,5.2,2.3,5.2,6.3v13.3h5.3V34.9c0-4.2,2.4-6.4,5.9-6.4c3.6,0,5.3,2.3,5.3,6.3v13.3H178.4z
			 M207.8,36.2v-12h-5.2v2.9c-1.8-2.3-4.6-3.6-7.6-3.5c-6.7,0-12,5.3-12,12.6c0,7.3,5.3,12.6,12,12.6c2.9,0.1,5.8-1.2,7.6-3.5v2.9
			h5.2L207.8,36.2z M188.4,36.2c0-4.2,2.8-7.7,7.3-7.7c4.3,0,7.2,3.3,7.2,7.7s-2.9,7.7-7.2,7.7C191.1,43.8,188.4,40.4,188.4,36.2
			L188.4,36.2z M319.2,23.6c1.8,0,3.5,0.3,5.1,1c1.5,0.6,2.9,1.5,4.1,2.6c1.2,1.1,2.1,2.5,2.7,4c1.3,3.2,1.3,6.8,0,10
			c-0.6,1.5-1.5,2.9-2.7,4c-1.2,1.1-2.6,2-4.1,2.6c-3.3,1.3-7,1.3-10.3,0c-1.5-0.6-2.9-1.5-4.1-2.6c-1.2-1.1-2.1-2.5-2.7-4
			c-1.3-3.2-1.3-6.8,0-10c0.6-1.5,1.5-2.8,2.7-4c1.2-1.1,2.6-2,4.1-2.6C315.7,23.9,317.5,23.5,319.2,23.6z M319.2,28.5
			c-1,0-2,0.2-3,0.6c-0.9,0.4-1.7,0.9-2.4,1.6c-0.7,0.7-1.2,1.5-1.6,2.4c-0.8,2-0.8,4.2,0,6.2c0.4,0.9,0.9,1.7,1.6,2.4
			c0.7,0.7,1.5,1.2,2.4,1.6c1.9,0.8,4,0.8,5.9,0c0.9-0.4,1.7-0.9,2.4-1.6c0.7-0.7,1.2-1.5,1.6-2.4c0.8-2,0.8-4.2,0-6.2
			c-0.4-0.9-0.9-1.7-1.6-2.4c-0.7-0.7-1.5-1.2-2.4-1.6C321.3,28.7,320.2,28.5,319.2,28.5L319.2,28.5z M236.1,36.2
			c0-7.5-4.7-12.6-11.4-12.6c-7,0-11.9,5.1-11.9,12.6c0,7.6,5.1,12.6,12.3,12.6c3.6,0.1,7.1-1.1,9.8-3.4l-2.6-3.9
			c-2,1.6-4.4,2.5-7,2.5c-3.4,0-6.4-1.6-7.2-5.9H236C236.1,37.5,236.1,36.9,236.1,36.2L236.1,36.2z M218.3,34.1
			c0.6-3.5,2.7-5.8,6.4-5.8c3.4,0,5.5,2.1,6.1,5.8H218.3z M260.3,26.1c-2.9-1.8-6.3-2.6-9.8-2.5c-6.1,0-10,2.9-10,7.7
			c0,3.9,2.9,6.3,8.3,7.1l2.5,0.4c2.9,0.4,4.2,1.2,4.2,2.5c0,1.9-1.9,2.9-5.5,2.9c-2.9,0.1-5.7-0.8-8-2.5l-2.5,4.1
			c3,2.1,6.7,3.2,10.4,3.1c6.9,0,10.9-3.3,10.9-7.8c0-4.2-3.2-6.4-8.4-7.2l-2.5-0.4c-2.3-0.3-4.1-0.8-4.1-2.4c0-1.8,1.7-2.8,4.6-2.8
			c2.6,0,5.2,0.7,7.5,2.1L260.3,26.1z M283.1,24.2h-8.5l0-7.3h-5.3l0,7.3h-4.9v4.8h4.9v10.9c0,5.6,2.2,8.9,8.3,8.9
			c2.3,0,4.6-0.6,6.5-1.9l-1.5-4.5c-1.4,0.8-3,1.3-4.6,1.4c-2.6,0-3.5-1.6-3.5-4V28.9h8.5V24.2z M301.1,23.6c-2.6-0.1-5,1.3-6.3,3.5
			v-2.9h-5.2v23.9h5.2V34.7c0-4,1.7-6.2,5.1-6.2c1.1,0,2.2,0.2,3.3,0.6l1.6-4.9C303.6,23.8,302.4,23.6,301.1,23.6L301.1,23.6z"/>
		<g>
			<rect x="42.5" y="7.7" class="st2" width="31.5" height="56.6"/>
			<path class="st3" d="M44.5,36c0-11,5.1-21.5,13.7-28.3C42.6-4.6,20-1.9,7.7,13.8C-4.6,29.4-1.9,52,13.8,64.3
				c13.1,10.3,31.4,10.3,44.5,0C49.6,57.5,44.5,47,44.5,36z"/>
			<path class="st4" d="M113.1,58.3v-1.2h0.5v-0.2h-1.2v0.2h0.5v1.2H113.1z M115.4,58.3v-1.4H115l-0.4,1l-0.4-1h-0.4v1.4h0.3v-1.1
				l0.4,0.9h0.3l0.4-0.9v1.1H115.4z"/>
			<path class="st4" d="M116.5,36c0,19.9-16.1,36-36,36c-8.1,0-15.9-2.7-22.2-7.7c15.6-12.3,18.3-34.9,6-50.6c-1.8-2.2-3.8-4.3-6-6
				c15.6-12.3,38.3-9.6,50.5,6.1C113.8,20.1,116.5,27.9,116.5,36z"/>
		</g>
	</g>
</g>
</svg>
