<?xml version="1.0" encoding="utf-8"?>
<!-- Generator: Adobe Illustrator 24.2.0, SVG Export Plug-In . SVG Version: 6.00 Build 0)  -->
<svg version="1.1" id="Layer_1" xmlns="http://www.w3.org/2000/svg" xmlns:xlink="http://www.w3.org/1999/xlink" x="0px" y="0px"
	 viewBox="0 0 116.5 72" style="enable-background:new 0 0 116.5 72;" xml:space="preserve">
<style type="text/css">
	.st0{fill:none;}
	.st1{fill:#FF5F00;}
	.st2{fill:#EB001B;}
	.st3{fill:#F79E1B;}
</style>
<g>
	<rect x="-17.9" y="-18" class="st0" width="152.4" height="108"/>
	<g>
		<rect x="42.5" y="7.7" class="st1" width="31.5" height="56.6"/>
		<path class="st2" d="M44.5,36c0-11,5.1-21.5,13.7-28.3C42.6-4.6,20-1.9,7.7,13.8C-4.6,29.4-1.9,52,13.8,64.3
			c13.1,10.3,31.4,10.3,44.5,0C49.6,57.5,44.5,47,44.5,36z"/>
		<path class="st3" d="M116.5,36c0,19.9-16.1,36-36,36c-8.1,0-15.9-2.7-22.2-7.7c15.6-12.3,18.3-34.9,6-50.6c-1.8-2.2-3.8-4.3-6-6
			c15.6-12.3,38.3-9.6,50.5,6.1C113.8,20.1,116.5,27.9,116.5,36z"/>
		<path class="st3" d="M113.1,58.3v-1.2h0.5v-0.2h-1.2v0.2h0.5v1.2H113.1z M115.4,58.3v-1.4H115l-0.4,1l-0.4-1h-0.4v1.4h0.3v-1.1
			l0.4,0.9h0.3l0.4-0.9v1.1H115.4z"/>
	</g>
</g>
</svg>
