<?xml version="1.0" encoding="utf-8"?>
<!-- Generator: Adobe Illustrator 24.2.0, SVG Export Plug-In . SVG Version: 6.00 Build 0)  -->
<svg version="1.1" id="Layer_1" xmlns="http://www.w3.org/2000/svg" xmlns:xlink="http://www.w3.org/1999/xlink" x="0px" y="0px"
	 viewBox="0 0 61.7 19.9" style="enable-background:new 0 0 61.7 19.9;" xml:space="preserve">
<style type="text/css">
	.st0{fill:#FFFFFF;}
</style>
<path class="st0" d="M23.4,0.4l-8.1,19.3h-5.3l-4-15.4C5.9,3.3,5.7,3,4.9,2.5C3.7,1.9,1.7,1.3,0,0.9l0.1-0.6h8.5
	c1.1,0,2.1,0.7,2.3,2L13,13.5l5.2-13.1H23.4z M44.1,13.3c0-5.1-7-5.4-7-7.6c0-0.7,0.7-1.4,2.1-1.6c0.7-0.1,2.7-0.2,4.9,0.9L45,0.9
	C43.8,0.4,42.3,0,40.3,0c-4.9,0-8.4,2.6-8.4,6.4c0,2.8,2.5,4.3,4.4,5.2c1.9,0.9,2.6,1.5,2.6,2.4c0,1.3-1.5,1.9-3,1.9
	c-2.5,0-4-0.7-5.1-1.2l-0.9,4.2c1.2,0.5,3.3,1,5.5,1C40.6,19.9,44.1,17.3,44.1,13.3 M57.1,19.6h4.6l-4-19.3h-4.3
	c-1,0-1.8,0.6-2.1,1.4l-7.5,17.9h5.2l1-2.9h6.4L57.1,19.6z M51.5,12.8l2.6-7.2l1.5,7.2H51.5z M30.6,0.4l-4.1,19.3h-5l4.1-19.3H30.6z
	"/>
</svg>
