<?xml version="1.0" encoding="utf-8"?>
<!-- Generator: Adobe Illustrator 24.2.0, SVG Export Plug-In . SVG Version: 6.00 Build 0)  -->
<svg version="1.1" id="Layer_1__x28_1:1_x29_" xmlns="http://www.w3.org/2000/svg" xmlns:xlink="http://www.w3.org/1999/xlink"
	 x="0px" y="0px" viewBox="0 0 42.4 42.4" style="enable-background:new 0 0 42.4 42.4;" xml:space="preserve">
<style type="text/css">
	.st0{fill:#006FCF;}
</style>
<path class="st0" d="M34.8,10.4l1.4-3.7h6.2V0H0v42.4h42.4v-6.7h-5.9l-2.2-2.6l-2.2,2.5H15.5V22.3H10l6.9-15.5h6.7l1.6,3.5V6.8h8.3
	L34.8,10.4L34.8,10.4z M30.2,12.9v-1.5l0.6,1.5l2.8,7.4h2.6l2.8-7.4l0.5-1.5v8.8h2.9V8.9h-4.8l-2.2,5.7l-0.6,1.6l-0.6-1.6L32,8.9
	h-4.8v11.2h3V12.9L30.2,12.9z M24,20.1h3.3l-5-11.3h-3.9l-5,11.3h3.3l0.9-2.2h5.5L24,20.1L24,20.1z M19.8,12.7l0.6-1.4l0.6,1.4
	l1.2,2.9h-3.5L19.8,12.7L19.8,12.7z M17.8,22.3v11.3h9.4v-2.5h-6.6v-2H27v-2.4h-6.4v-2h6.6v-2.4L17.8,22.3L17.8,22.3z M37.8,33.4
	h3.7l-5.3-5.6l5.3-5.6h-3.7l-3.4,3.7L31,22.2h-3.8l5.3,5.7l-5.3,5.6h3.6l3.4-3.7L37.8,33.4L37.8,33.4z M39.2,27.9l3.2,3.3v-6.5
	L39.2,27.9L39.2,27.9z"/>
</svg>
