<svg id="Layer_1" data-name="Layer 1" xmlns="http://www.w3.org/2000/svg" viewBox="0 0 269.79 197.74"><defs><style>.cls-1{fill:#fff;}.cls-2{fill:#004a98;}.cls-3{fill:#1d1d1b;}</style></defs><path class="cls-1" d="M268.26,178.54a17.88,17.88,0,0,1-18.08,17.67H19.61A17.88,17.88,0,0,1,1.53,178.54V19.21A17.88,17.88,0,0,1,19.61,1.53H250.18a17.88,17.88,0,0,1,18.08,17.68Z"/><path class="cls-2" d="M3.06,19.21V178.54a16.36,16.36,0,0,0,16.55,16.14H250.17a16.35,16.35,0,0,0,16.55-16.14V19.21A16.35,16.35,0,0,0,250.17,3.07H19.61A16.36,16.36,0,0,0,3.06,19.21M19.61,197.74A19.42,19.42,0,0,1,0,178.54V19.21A19.43,19.43,0,0,1,19.61,0H250.17a19.43,19.43,0,0,1,19.62,19.21V178.54a19.43,19.43,0,0,1-19.62,19.2Z"/><path class="cls-3" d="M30.8,142.11c0,3.74,2.67,4.17,5.05,4.17,10.49,0,13.93-7.91,13.93-15.14,0-9.08-5.82-15.64-15.19-15.64-2,0-2.92.15-3.79.2ZM26,119.34c0-4.37-2.28-4.08-4.46-4.13V114c1.89.09,3.83.09,5.73.09s4.8-.09,8.4-.09c12.57,0,19.42,8.39,19.42,17,0,4.81-2.82,16.9-20,16.9-2.47,0-4.76-.1-7-.1s-4.32,0-6.5.1v-1.26c2.91-.3,4.32-.39,4.46-3.7Z"/><path class="cls-3" d="M62,118.17a2.38,2.38,0,1,1,0-4.76,2.38,2.38,0,0,1,2.38,2.34A2.42,2.42,0,0,1,62,118.17m-5.19,28.41h.92c1.36,0,2.33,0,2.33-1.61V131.81c0-2.13-.73-2.43-2.53-3.39v-.78c2.28-.68,5-1.6,5.2-1.75a1.74,1.74,0,0,1,.87-.24c.24,0,.34.29.34.68V145c0,1.61,1.07,1.61,2.43,1.61h.82v1.26c-1.65,0-3.35-.1-5.09-.1s-3.5,0-5.29.1Z"/><path class="cls-3" d="M71.83,132.11c0-1.8-.54-2.28-2.82-3.21V128a65.22,65.22,0,0,0,6.41-2.33c.15,0,.29.09.29.48v3.16c2.77-2,5.15-3.64,8.41-3.64,4.12,0,5.57,3,5.57,6.8V145c0,1.61,1.08,1.61,2.43,1.61H93v1.26c-1.71,0-3.4-.1-5.15-.1s-3.5,0-5.25.1v-1.26h.88c1.36,0,2.33,0,2.33-1.61V132.4c0-2.77-1.69-4.13-4.46-4.13-1.56,0-4,1.26-5.64,2.33V145c0,1.61,1.07,1.61,2.43,1.61H79v1.26c-1.7,0-3.39-.1-5.15-.1s-3.49,0-5.24.1v-1.26h.88c1.36,0,2.33,0,2.33-1.61Z"/><path class="cls-3" d="M105.29,132.88c1.21,0,1.35-.63,1.35-1.21,0-2.47-1.51-4.47-4.23-4.47-3,0-5,2.18-5.58,5.68Zm-8.6,1.56a11.83,11.83,0,0,0,0,2.81c.28,4.62,3.25,8.4,7.13,8.4,2.68,0,4.77-1.46,6.56-3.25l.68.68c-2.24,3-5,5.49-9,5.49-7.72,0-9.28-7.48-9.28-10.59,0-9.52,6.41-12.33,9.81-12.33,3.93,0,8.16,2.47,8.21,7.62a5.2,5.2,0,0,1,0,.88l-.44.29Z"/><path class="cls-3" d="M111.93,146.58h1.32c1.35,0,2.32,0,2.32-1.61V131.33c0-1.5-1.79-1.8-2.52-2.19v-.72c3.54-1.51,5.48-2.77,5.93-2.77.28,0,.43.14.43.63v4.37h.1c1.21-1.89,3.25-5,6.21-5a2.64,2.64,0,0,1,2.77,2.57,2.36,2.36,0,0,1-2.28,2.48c-1.51,0-1.51-1.17-3.21-1.17a4.11,4.11,0,0,0-3.54,4V145c0,1.61,1,1.61,2.33,1.61h2.71v1.26c-2.67-.05-4.7-.1-6.79-.1s-4,0-5.78.1Z"/><path class="cls-3" d="M130.62,141.09c.64,3.2,2.58,5.92,6.13,5.92,2.86,0,3.92-1.75,3.92-3.44,0-5.74-10.58-3.89-10.58-11.7,0-2.73,2.19-6.22,7.53-6.22a12.78,12.78,0,0,1,5.53,1.41l.34,4.95h-1.12c-.48-3.06-2.18-4.81-5.29-4.81-1.94,0-3.78,1.12-3.78,3.21,0,5.68,11.26,3.93,11.26,11.55,0,3.21-2.57,6.61-8.35,6.61a12.76,12.76,0,0,1-5.92-1.65l-.54-5.59Z"/><path class="cls-3" d="M188.4,122.73h-1.21c-.93-5.67-5-8-10.39-8-5.59,0-13.7,3.74-13.7,15.39,0,9.81,7,16.85,14.47,16.85a9.87,9.87,0,0,0,9.76-8.4l1.12.29L187.33,146c-2,1.26-7.52,2.58-10.73,2.58-11.36,0-18.54-7.33-18.54-18.26,0-10,8.88-17.09,18.4-17.09,3.93,0,7.72,1.26,11.45,2.58Z"/><path class="cls-3" d="M190.15,146.58h.92c1.36,0,2.33,0,2.33-1.61v-27c0-3.16-.72-3.25-2.57-3.79v-.77a31.32,31.32,0,0,0,5-2.09,5.29,5.29,0,0,1,1.06-.54c.3,0,.4.3.4.69V145c0,1.61,1.07,1.61,2.43,1.61h.82v1.26c-1.65,0-3.35-.1-5.1-.1s-3.49,0-5.29.1Z"/><path class="cls-3" d="M221.32,145.17c0,.87.53.92,1.36.92.58,0,1.31-.05,1.94-.05v1a50.57,50.57,0,0,0-7,1.51l-.24-.15v-3.93c-2.91,2.38-5.15,4.08-8.6,4.08-2.62,0-5.34-1.7-5.34-5.78V130.36c0-1.27-.19-2.48-2.91-2.72v-.92c1.75,0,5.63-.34,6.26-.34s.54.34.54,1.41v12.52c0,1.46,0,5.63,4.22,5.63,1.65,0,3.84-1.26,5.87-2.95V129.92c0-1-2.33-1.5-4.07-2v-.87c4.37-.3,7.09-.68,7.57-.68s.39.34.39.87Z"/><path class="cls-3" d="M231,142.35a5.23,5.23,0,0,0,5,5c5.2,0,7.38-5.09,7.38-9.42,0-5.24-4-9.61-7.76-9.61-1.8,0-3.31,1.17-4.62,2.29Zm0-13.21c1.94-1.64,4.57-3.49,7.24-3.49,5.63,0,9,4.91,9,10.2,0,6.36-4.66,12.72-11.61,12.72a14.39,14.39,0,0,1-6.75-1.7L227.44,148l-1-.53a56.16,56.16,0,0,0,.68-8.64V117.93c0-3.16-.73-3.25-2.58-3.79v-.77a30.54,30.54,0,0,0,5-2.09,5.23,5.23,0,0,1,1.08-.54c.29,0,.38.3.38.69Z"/><path class="cls-3" d="M21.52,176.07h.37c.95,0,2-.13,2-1.51V160.72c0-1.37-1-1.51-2-1.51h-.37v-.79c1,0,2.62.11,3.92.11s2.9-.11,4.14-.11v.79h-.37c-.95,0-1.95.14-1.95,1.51v13.84c0,1.38,1,1.51,1.95,1.51h.37v.79c-1.27,0-2.85-.1-4.17-.1s-2.86.1-3.89.1Z"/><path class="cls-3" d="M29.47,176.75v-.56h-.26c-.94,0-2.07-.17-2.07-1.63V160.72c0-1.46,1.13-1.62,2.07-1.62h.26v-.56c-1.22,0-2.75.1-4,.1s-2.78-.1-3.8-.1v.56h.25c.94,0,2.07.16,2.07,1.62v13.84c0,1.46-1.13,1.63-2.07,1.63h-.25v.56c1,0,2.51-.11,3.77-.11s2.81.1,4.06.11m.11.22c-1.28,0-2.86-.1-4.17-.1s-2.85.1-3.89.1h-.11v-1h.48c1,0,1.83-.1,1.84-1.39V160.72c0-1.29-.88-1.37-1.84-1.39h-.48v-1h.11c1,0,2.62.1,3.92.1s2.89-.1,4.14-.1h.12v1h-.49c-1,0-1.83.1-1.84,1.39v13.84c0,1.29.88,1.37,1.84,1.39h.49v1Z"/><path class="cls-3" d="M47.73,171.66l.05-.06v-9.9a2.18,2.18,0,0,0-2.3-2.49H44.9v-.79c1.25,0,2.46.11,3.7.11,1.08,0,2.17-.11,3.25-.11v.79h-.39c-1.12,0-2.36.21-2.36,3.36v12a17.58,17.58,0,0,0,.16,2.67h-1l-13.6-15.17V173c0,2.3.45,3.09,2.48,3.09h.45v.79c-1.13,0-2.27-.1-3.4-.1s-2.41.1-3.6.1v-.79H31c1.83,0,2.38-1.24,2.38-3.35V161.59a2.37,2.37,0,0,0-2.4-2.38h-.35v-.79c1,0,2,.11,3,.11.79,0,1.56-.11,2.35-.11Z"/><path class="cls-3" d="M47.67,171.6h0Zm.06.06.08-.08Zm.52,5.48h.88a17.52,17.52,0,0,1-.14-2.55v-12c0-3.17,1.33-3.47,2.47-3.47h.27v-.56c-1,0-2.08.1-3.13.1-1.21,0-2.39-.1-3.58-.1v.56h.46a2.31,2.31,0,0,1,2.42,2.6l0,10,0,.05-.09.08L36,158.54c-.78,0-1.55.1-2.35.1-1,0-2-.1-2.92-.1v.56h.24a2.48,2.48,0,0,1,2.51,2.49v11.13c0,2.11-.59,3.46-2.49,3.47H30.7v.57c1.14,0,2.32-.11,3.47-.11s2.21.1,3.3.11v-.56h-.34c-2.08,0-2.59-.91-2.59-3.21V161.8Zm1,.23-1.09,0L34.76,162.39V173c0,2.3.38,3,2.37,3h.57v1h-.12c-1.14,0-2.28-.1-3.41-.1s-2.39.1-3.59.1h-.12v-1H31c1.75,0,2.25-1.13,2.27-3.23V161.59a2.26,2.26,0,0,0-2.29-2.26h-.47v-1h.12c1,0,2,.1,3,.1.78,0,1.55-.1,2.44-.06l11.61,13.07V161.7c0-2.1-1.42-2.35-2.19-2.37h-.69v-1h.11c1.25,0,2.47.1,3.7.1,1.07,0,2.16-.1,3.25-.1H52v1h-.51c-1.09,0-2.21.12-2.25,3.24v12a17.16,17.16,0,0,0,.16,2.65l0,.13Z"/><path class="cls-3" d="M55.81,159.74c-2,0-2.06.48-2.46,2.41h-.79c.1-.74.23-1.48.32-2.25a16.63,16.63,0,0,0,.15-2.24h.64c.21.79.87.76,1.59.76H68.88c.72,0,1.38,0,1.43-.82l.63.11c-.1.71-.21,1.42-.28,2.14s0,1.42,0,2.14l-.8.29c0-1-.18-2.54-2-2.54H63.52V173.8c0,2,.93,2.27,2.2,2.27h.5v.79c-1,0-2.88-.1-4.31-.1s-3.43.1-4.46.1v-.79H58c1.46,0,2.19-.13,2.19-2.22V159.74Z"/><path class="cls-3" d="M66.22,177c-1,0-2.89-.1-4.31-.1-1.58,0-3.43.1-4.46.1h-.12v-1H58c1.46,0,2,0,2.07-2.1v-14H55.81v-.24h4.44v14.23c0,2.12-.85,2.34-2.3,2.34h-.39v.56c1,0,2.82-.11,4.35-.11s3.14.1,4.19.11v-.56h-.38c-1.28,0-2.31-.32-2.31-2.39V159.62h4.45c1.77,0,2,1.52,2.06,2.5l.57-.21c0-.69,0-1.38.05-2.08s.17-1.35.27-2l-.4-.06c-.12.76-.86.81-1.53.8H55.12c-.62,0-1.3,0-1.54-.77h-.43a16.7,16.7,0,0,1-.16,2.14c-.08.73-.2,1.43-.29,2.13h.56c.35-1.85.57-2.44,2.55-2.42v.24c-2,0-1.92.36-2.35,2.31l0,.09h-1v-.13c.11-.74.24-1.48.32-2.25a14.88,14.88,0,0,0,.16-2.22v-.12h.84l0,.08c.18.67.67.67,1.34.69H68.88c.74,0,1.27,0,1.32-.72v-.12l.12,0,.75.12,0,.12c-.11.71-.21,1.42-.29,2.13s0,1.41,0,2.13v.08l-.08,0-.93.34v-.15c-.07-1-.17-2.43-1.84-2.43H63.64V173.8c0,2,.82,2.13,2.08,2.15h.61v1Z"/><path class="cls-3" d="M71.79,176.07h.37c1,0,2-.13,2-1.51V160.72c0-1.37-1-1.51-2-1.51h-.37v-.79c1.61,0,4.36.11,6.57.11s5-.11,6.77-.11c0,1.14,0,2.88.05,4l-.79.21c-.13-1.71-.45-3.08-3.22-3.08H77.5v6.91h3.14c1.58,0,1.93-.89,2.09-2.32h.79c0,1-.08,2.06-.08,3.09s0,2,.08,3l-.79.16c-.16-1.58-.24-2.61-2.06-2.61H77.5V174c0,1.72,1.53,1.72,3.22,1.72,3.17,0,4.57-.21,5.36-3.22l.74.18c-.34,1.4-.66,2.8-.9,4.2-1.69,0-4.73-.1-7.1-.1s-5.52.1-7,.1Z"/><path class="cls-3" d="M85.82,176.75c.24-1.34.54-2.67.86-4l-.52-.13c-.79,2.95-2.32,3.22-5.44,3.2-1.67,0-3.33,0-3.34-1.84v-6.27h3.28c1.85,0,2,1.1,2.17,2.6l.57-.12c-.05-1-.08-1.95-.08-2.92s0-2,.08-3h-.57c-.15,1.38-.58,2.35-2.19,2.33H77.38v-7.15h3.79c2.75,0,3.2,1.4,3.32,3.06l.57-.15c0-.75-.08-1.71-.08-2.59,0-.45,0-.88,0-1.25-1.79,0-4.47.1-6.65.1s-4.84-.1-6.46-.1v.56h.26c.94,0,2.06.16,2.07,1.62v13.84c0,1.46-1.13,1.62-2.07,1.63H71.9v.56c1.54,0,4.6-.11,6.92-.11s5.3.1,7,.11m.1.22c-1.69,0-4.73-.1-7.1-.1s-5.52.1-7,.1h-.11v-1h.48c1,0,1.83-.1,1.84-1.39V160.72c0-1.29-.88-1.37-1.84-1.39h-.48v-1h.11c1.61,0,4.36.1,6.57.1s5-.1,6.77-.1h.11v.12c0,.39,0,.86,0,1.36,0,.91,0,1.91.08,2.67v.09l-.09,0-.93.24v-.14c-.16-1.71-.39-3-3.11-3H77.61v6.69h3c1.52,0,1.79-.8,2-2.22v-.11h1v.12c0,1-.08,2.06-.08,3.09s0,2,.08,3v.09l-.1,0-.92.18v-.12c-.18-1.62-.19-2.5-2-2.52h-3v6c0,1.61,1.39,1.6,3.11,1.61,3.18,0,4.45-.18,5.25-3.14l0-.11.11,0,.84.22,0,.11c-.34,1.4-.66,2.79-.9,4.19l0,.09Z"/><path class="cls-3" d="M93.77,167.35h1.29c2.64,0,4.07-1,4.07-4.12a3.61,3.61,0,0,0-3.86-3.86,11.91,11.91,0,0,0-1.5.11Zm-3.38-6.13c0-1.93-1.06-2-1.88-2H88v-.79c.85,0,2.49.11,4.1.11s2.85-.11,4.25-.11c3.32,0,6.29.9,6.29,4.65,0,2.38-1.59,3.83-3.67,4.65l4.51,6.76a3,3,0,0,0,2.57,1.59v.79c-.88,0-1.72-.1-2.59-.1s-1.67.1-2.48.1a72.79,72.79,0,0,1-5.5-8.56H93.77V174c0,2,1,2.11,2.16,2.11h.48v.79c-1.51,0-3-.1-4.55-.1-1.26,0-2.51.1-3.83.1v-.79h.48c1,0,1.88-.45,1.88-1.43Z"/><path class="cls-3" d="M95.06,167.24c2.61,0,3.93-.94,4-4a3.51,3.51,0,0,0-3.75-3.75,11,11,0,0,0-1.39.1v7.66Zm-1.29.22h-.12v-8.09h.1a15.11,15.11,0,0,1,1.52-.1,3.73,3.73,0,0,1,4,4c0,3.16-1.52,4.23-4.18,4.23Zm0,.73h1.8l0,.06a83.45,83.45,0,0,0,5.41,8.5c.8,0,1.65-.11,2.47-.11s1.66.1,2.48.11v-.58a3,3,0,0,1-2.54-1.62l-4.6-6.88.13,0c2.07-.82,3.6-2.23,3.6-4.55,0-3.67-2.85-4.52-6.17-4.53-1.39,0-2.66.1-4.25.1s-3.12-.1-4-.1v.56h.37c.82,0,2,.14,2,2.12v13.42c0,1.07-1,1.55-2,1.55h-.37v.56c1.27,0,2.48-.11,3.72-.11,1.48,0,3,.1,4.43.11v-.56h-.36c-1.2,0-2.28-.15-2.28-2.24v-5.76ZM106.08,177c-.89,0-1.73-.1-2.6-.1s-1.65.1-2.57.06a75.88,75.88,0,0,1-5.47-8.51H93.88V174c0,2,.83,2,2.05,2h.59v1H96.4c-1.51,0-3-.1-4.54-.1-1.26,0-2.5.1-3.83.1h-.11v-1h.59c.95,0,1.75-.42,1.76-1.31V161.22c0-1.87-.94-1.86-1.76-1.89h-.59v-1H88c.86,0,2.49.1,4.1.1s2.84-.1,4.25-.1c3.33,0,6.4.92,6.41,4.76,0,2.38-1.58,3.87-3.62,4.7l4.44,6.65a2.83,2.83,0,0,0,2.48,1.53l.1,0v1Z"/><path class="cls-3" d="M124,171.66l0-.06v-9.9a2.18,2.18,0,0,0-2.3-2.49h-.57v-.79c1.24,0,2.45.11,3.69.11s2.16-.11,3.26-.11v.79h-.4c-1.11,0-2.35.21-2.35,3.36v12a17.62,17.62,0,0,0,.15,2.67h-1l-13.6-15.17V173c0,2.3.44,3.09,2.48,3.09h.45v.79c-1.14,0-2.27-.1-3.41-.1s-2.41.1-3.59.1v-.79h.36c1.83,0,2.39-1.24,2.39-3.35V161.59a2.38,2.38,0,0,0-2.41-2.38h-.34v-.79c1,0,2,.11,3,.11.78,0,1.55-.11,2.35-.11Z"/><path class="cls-3" d="M124,171.6h0l0,0Zm.06.06.09-.08Zm.53,5.48h.87a17.44,17.44,0,0,1-.14-2.55v-12c0-3.17,1.34-3.47,2.47-3.47H128v-.56c-1,0-2.09.1-3.14.1-1.21,0-2.39-.1-3.58-.1v.56h.46a2.31,2.31,0,0,1,2.42,2.6l0,10,0,.05-.08.08-11.75-13.28c-.79,0-1.56.1-2.35.1-1,0-2-.1-2.93-.1v.56h.23a2.48,2.48,0,0,1,2.51,2.49v11.12c0,2.12-.59,3.47-2.49,3.48H107v.56c1.14,0,2.32-.11,3.48-.11s2.2.1,3.29.11v-.56h-.33c-2.08,0-2.6-.91-2.6-3.21V161.8Zm1,.23-1.08,0-13.41-14.94V173c0,2.3.38,3,2.37,3H114v1h-.12c-1.14,0-2.27-.1-3.4-.1s-2.4.1-3.59.1h-.12v-1h.48c1.75,0,2.25-1.13,2.27-3.24V161.59a2.26,2.26,0,0,0-2.29-2.26h-.46v-1h.12c1,0,2,.1,3,.1.77,0,1.54-.1,2.42-.07L124,171.42V161.7c0-2.1-1.42-2.36-2.19-2.37h-.69v-1h.11c1.25,0,2.47.1,3.7.1s2.16-.1,3.25-.1h.12v1h-.51c-1.09,0-2.22.12-2.24,3.24v12a16.06,16.06,0,0,0,.16,2.65v.13Z"/><path class="cls-3" d="M136.24,161.38h-.06l-2.45,7.48h4.94Zm-3.86,11.71a10.85,10.85,0,0,0-.58,2c0,.8,1.11.93,2,.93h.29v.79c-1.06-.06-2.13-.1-3.2-.1s-1.89,0-2.85.1v-.79h.16a2.4,2.4,0,0,0,2.3-1.72l4.22-12.12a21.54,21.54,0,0,0,1-3.28,13.54,13.54,0,0,0,2.4-1.14.8.8,0,0,1,.21-.05.19.19,0,0,1,.19.08c.07.21.15.45.23.66l4.87,13.82c.31.92.63,1.9,1,2.69a1.67,1.67,0,0,0,1.75,1.06h.16v.79c-1.2-.06-2.39-.1-3.65-.1s-2.62,0-4,.1v-.79h.29c.61,0,1.65-.11,1.65-.77a8.34,8.34,0,0,0-.54-1.9l-1-3.06h-6Z"/><path class="cls-3" d="M136.12,161.42l.07,0Zm-2.24,7.32h4.63l-2.3-7.08Zm-.31.23,2.53-7.71h.14v.12h0v-.12h.08l2.51,7.71Zm5.4,7.77c1.31-.05,2.59-.1,3.85-.1s2.38.05,3.53.1v-.55h0a1.81,1.81,0,0,1-1.86-1.13c-.34-.8-.66-1.78-1-2.71l-4.87-13.81c-.08-.21-.15-.45-.22-.64,0,0,0,0,0,0h0a.5.5,0,0,0-.16,0,9.33,9.33,0,0,1-2.35,1.05,21.51,21.51,0,0,1-1,3.3l-4.22,12.13a2.54,2.54,0,0,1-2.41,1.8h0v.55c.9-.05,1.82-.1,2.74-.1s2.06.05,3.07.1v-.55h-.17c-.86,0-2.06-.11-2.1-1.05a11.22,11.22,0,0,1,.59-2.09l.11,0-.11,0,.87-2.82h6.16l1.06,3.13a8.34,8.34,0,0,1,.53,1.94c0,.81-1.15.87-1.75.89H139Zm7.49.23c-1.19-.05-2.38-.1-3.64-.1s-2.61,0-4,.1h-.12v-1h.4c.62,0,1.52-.14,1.53-.65a8.42,8.42,0,0,0-.53-1.86l-1-3h-5.83l-.82,2.67a10.21,10.21,0,0,0-.58,2c0,.65,1,.81,1.87.81h.41v1h-.12c-1.06-.05-2.14-.1-3.19-.1s-1.9,0-2.85.1h-.12v-1h.27a2.27,2.27,0,0,0,2.19-1.64l4.23-12.12a32.65,32.65,0,0,0,1.05-3.35,13.9,13.9,0,0,0,2.4-1.13.57.57,0,0,1,.25-.06.3.3,0,0,1,.29.15c.08.21.16.45.24.66l4.86,13.82c.32.93.63,1.9,1,2.68a1.54,1.54,0,0,0,1.64,1h.26v1Z"/><path class="cls-3" d="M147.63,159.74c-2,0-2.07.48-2.46,2.41h-.8c.11-.74.24-1.48.32-2.25a15.15,15.15,0,0,0,.16-2.24h.64c.2.79.87.76,1.58.76H160.7c.71,0,1.37,0,1.43-.82l.63.11c-.1.71-.21,1.42-.29,2.14s-.06,1.42-.06,2.14l-.79.29c0-1-.18-2.54-2-2.54h-4.33V173.8c0,2,.92,2.27,2.19,2.27h.5v.79c-1,0-2.87-.1-4.3-.1-1.59,0-3.44.1-4.47.1v-.79h.5c1.46,0,2.2-.13,2.2-2.22V159.74Z"/><path class="cls-3" d="M158,177c-1,0-2.89-.1-4.3-.1-1.58,0-3.43.1-4.47.1h-.12v-1h.62c1.46,0,2.05,0,2.08-2.1v-14h-4.21v-.24h4.44v14.23c0,2.12-.85,2.33-2.31,2.34h-.39v.56c1,0,2.82-.11,4.36-.11,1.38,0,3.14.1,4.19.11v-.56h-.39c-1.27,0-2.3-.31-2.3-2.39V159.62h4.44c1.77,0,2,1.52,2.06,2.5l.57-.21c0-.69,0-1.38.06-2.07s.17-1.36.27-2l-.4-.07c-.12.76-.87.81-1.53.8H146.93c-.62,0-1.29,0-1.53-.77H145a15.07,15.07,0,0,1-.17,2.14c-.07.73-.2,1.43-.3,2.13h.57c.35-1.85.58-2.45,2.56-2.42v.24c-2,0-1.92.36-2.35,2.31l0,.09h-1l0-.13c.11-.74.24-1.48.31-2.24a15.11,15.11,0,0,0,.16-2.23v-.12h.84l0,.08c.19.67.67.67,1.34.69H160.7c.73,0,1.27,0,1.31-.72v-.12l.12,0,.75.12,0,.12c-.11.71-.21,1.42-.29,2.13s-.05,1.41-.05,2.13v.08l-.08,0-.93.34v-.15c-.07-1-.17-2.43-1.84-2.43h-4.22V173.8c0,2,.82,2.13,2.08,2.15h.61v1Z"/><path class="cls-3" d="M163.73,176.07h.37c1,0,2-.13,2-1.51V160.72c0-1.37-1-1.51-2-1.51h-.37v-.79c1,0,2.62.11,3.91.11s2.91-.11,4.16-.11v.79h-.38c-.95,0-1.95.14-1.95,1.51v13.84c0,1.38,1,1.51,1.95,1.51h.38v.79c-1.27,0-2.86-.1-4.18-.1s-2.85.1-3.89.1Z"/><path class="cls-3" d="M171.68,176.75v-.56h-.25c-1,0-2.07-.17-2.07-1.63V160.72c0-1.46,1.12-1.62,2.07-1.62h.25v-.56c-1.22,0-2.75.1-4,.1s-2.77-.1-3.79-.1v.56h.26c.93,0,2.06.16,2.06,1.62v13.84c0,1.46-1.13,1.63-2.06,1.63h-.26v.56c1,0,2.51-.11,3.77-.11s2.81.1,4.06.11m.12.22c-1.28,0-2.86-.1-4.18-.1s-2.85.1-3.89.1h-.11v-1h.49c.95,0,1.83-.1,1.83-1.39V160.72c0-1.29-.88-1.37-1.83-1.39h-.49v-1h.11c1,0,2.63.1,3.91.1s2.9-.1,4.16-.1h.1v1h-.47c-1,0-1.84.1-1.85,1.39v13.84c0,1.29.88,1.38,1.85,1.39h.47v1Z"/><path class="cls-3" d="M182.73,176.1c5.12,0,6-4.52,6-8.38s-2.08-8.53-6.47-8.53c-4.62,0-6,4.12-6,7.66,0,4.73,2.17,9.25,6.45,9.25m-.4-18.07c5.63,0,10.12,3.49,10.12,9.11a9.69,9.69,0,0,1-10,10.12c-5.61,0-9.89-3.81-9.89-9.49a9.61,9.61,0,0,1,9.75-9.74"/><path class="cls-3" d="M176.17,166.85c0-3.56,1.39-7.78,6.11-7.78,4.48,0,6.58,4.77,6.58,8.65s-.91,8.48-6.13,8.48V176c5,0,5.89-4.4,5.9-8.26s-2.06-8.41-6.35-8.42c-4.53,0-5.87,4-5.89,7.55,0,4.7,2.16,9.12,6.34,9.13v.22c-4.39,0-6.56-4.6-6.56-9.35m-3.7.92a9.74,9.74,0,0,1,9.86-9.86v.23a9.51,9.51,0,0,0-9.64,9.63c0,5.62,4.23,9.37,9.78,9.37a9.58,9.58,0,0,0,9.87-10c0-5.56-4.43-9-10-9v-.23c5.67,0,10.22,3.53,10.23,9.23a9.81,9.81,0,0,1-10.09,10.23c-5.66,0-10-3.85-10-9.6"/><path class="cls-3" d="M210.25,171.66l.06-.06v-9.9a2.19,2.19,0,0,0-2.31-2.49h-.57v-.79c1.24,0,2.46.11,3.69.11s2.17-.11,3.26-.11v.79H214c-1.11,0-2.35.21-2.35,3.36v12a16.38,16.38,0,0,0,.16,2.67h-1l-13.61-15.17V173c0,2.3.45,3.09,2.48,3.09h.46v.79c-1.14,0-2.27-.1-3.41-.1s-2.4.1-3.59.1v-.79h.37c1.82,0,2.37-1.24,2.37-3.35V161.59a2.37,2.37,0,0,0-2.4-2.38h-.34v-.79c1,0,2,.11,3,.11.8,0,1.56-.11,2.35-.11Z"/><path class="cls-3" d="M210.19,171.6h0l0,0Zm.06.06.09-.08Zm.53,5.48h.87a19,19,0,0,1-.14-2.55v-12c0-3.18,1.33-3.47,2.47-3.47h.28v-.56c-1,0-2.08.1-3.14.1s-2.38-.1-3.58-.1v.56H208a2.3,2.3,0,0,1,2.41,2.6l0,10,0,.05-.09.08-11.76-13.28c-.78,0-1.55.1-2.35.1-1,0-2-.1-2.92-.1v.56h.23a2.49,2.49,0,0,1,2.52,2.49v11.13c0,2.11-.59,3.46-2.49,3.47h-.26v.56c1.14,0,2.32-.11,3.48-.11s2.2.1,3.29.11v-.56h-.34c-2.07,0-2.59-.91-2.59-3.21V161.8Zm1,.23-1.1,0-13.4-14.94V173c0,2.3.38,3,2.36,3h.57v1h-.11c-1.14,0-2.28-.1-3.41-.1s-2.4.1-3.6.1H193v-1h.49c1.74,0,2.24-1.13,2.26-3.23V161.59a2.25,2.25,0,0,0-2.29-2.26H193v-1h.11c1,0,2.05.1,3,.1.79,0,1.55-.1,2.44-.06l11.61,13.07V161.7c0-2.1-1.42-2.35-2.19-2.37h-.69v-1h.12c1.24,0,2.46.1,3.69.1,1.08,0,2.16-.1,3.26-.1h.11v1H214c-1.09,0-2.21.13-2.24,3.24v12a17.2,17.2,0,0,0,.15,2.65l0,.13Z"/><path class="cls-3" d="M222.48,161.38h0L220,168.86h4.94Zm-3.86,11.71a10.85,10.85,0,0,0-.58,2c0,.8,1.11.93,2,.93h.3v.79c-1.06-.06-2.15-.1-3.2-.1s-1.9,0-2.85.1v-.79h.15a2.4,2.4,0,0,0,2.3-1.72L221,162.23a21.43,21.43,0,0,0,1-3.28,13.67,13.67,0,0,0,2.41-1.14.8.8,0,0,1,.21-.05c.08,0,.13,0,.18.08s.16.45.24.66l4.86,13.82c.32.92.64,1.9,1,2.69a1.67,1.67,0,0,0,1.75,1.06h.16v.79c-1.19-.06-2.38-.1-3.65-.1s-2.62,0-4,.1v-.79h.3c.6,0,1.64-.11,1.64-.77a8.34,8.34,0,0,0-.54-1.9l-1-3.06h-6Z"/><path class="cls-3" d="M222.37,161.42l.06,0Zm-2.24,7.32h4.62l-2.3-7.07Zm-.32.23,2.54-7.71h.13v.12h0v-.12h.08l2.5,7.71Zm5.4,7.77c1.3-.05,2.59-.1,3.85-.1s2.38.05,3.53.1v-.55h-.05a1.81,1.81,0,0,1-1.85-1.13c-.34-.8-.66-1.78-1-2.7l-4.87-13.82-.22-.63s0,0,0,0h-.05a.44.44,0,0,0-.15,0A10.06,10.06,0,0,1,222,159a24.43,24.43,0,0,1-1,3.3l-4.24,12.13a2.51,2.51,0,0,1-2.4,1.8h0v.55c.91-.05,1.82-.1,2.74-.1s2.06.05,3.08.1v-.55H220c-.86,0-2.06-.11-2.1-1.05a12.06,12.06,0,0,1,.59-2.09l.11,0-.11,0,.87-2.82h6.16l1.06,3.13a8.34,8.34,0,0,1,.53,1.94c0,.81-1.15.87-1.74.89h-.18Zm7.49.23c-1.19,0-2.38-.1-3.64-.1s-2.61.06-4,.1H225v-1h.41c.61,0,1.52-.14,1.52-.65a7.88,7.88,0,0,0-.53-1.86l-1-3h-5.83l-.82,2.67a10.74,10.74,0,0,0-.57,2c0,.65,1,.81,1.86.81h.4v1h-.11c-1.06,0-2.14-.1-3.19-.1s-1.9.06-2.85.1h-.12v-1h.27a2.28,2.28,0,0,0,2.19-1.64l4.23-12.12c.34-1,.81-2.3,1-3.35a14.29,14.29,0,0,0,2.4-1.13.57.57,0,0,1,.25-.06.29.29,0,0,1,.29.15l.24.66,4.86,13.82c.32.93.63,1.9,1,2.69a1.54,1.54,0,0,0,1.63,1h.27v1Z"/><path class="cls-3" d="M239.36,174.27c0,1.06.74,1.38,1.58,1.49a18.68,18.68,0,0,0,3.49-.06,3.76,3.76,0,0,0,2.54-1.43,6,6,0,0,0,.82-1.9h.76c-.29,1.51-.66,3-1,4.49-2.32,0-4.65-.1-7-.1s-4.65.1-7,.1v-.79H234c1,0,2-.13,2-1.77V160.72c0-1.37-1-1.51-2-1.51h-.36v-.79c1.39,0,2.77.11,4.17.11s2.67-.11,4-.11v.79h-.67c-1,0-1.79,0-1.79,1.43Z"/><path class="cls-3" d="M247.48,176.75c.3-1.44.65-2.84.93-4.27h-.54a5.92,5.92,0,0,1-.81,1.86,4,4,0,0,1-2.62,1.48c-.69.06-1.38.1-2,.1s-1,0-1.48-.06c-.86-.09-1.69-.46-1.69-1.59V160.64c0-1.47.93-1.54,1.91-1.54h.55v-.56c-1.3,0-2.59.1-3.9.1s-2.71-.1-4.06-.1v.56H234c.94,0,2.1.16,2.1,1.62V174.3c0,1.71-1.15,1.89-2.1,1.89h-.25v.56c2.28,0,4.57-.11,6.86-.11s4.59.1,6.88.11m.09.22c-2.33,0-4.65-.1-7-.1s-4.65.1-7,.1h-.11v-1H234c1,0,1.86-.09,1.88-1.65V160.72c0-1.29-.92-1.37-1.88-1.39h-.48v-1h.11c1.41,0,2.78.1,4.18.1s2.66-.1,4-.1h.1v1h-.77c-1,0-1.66,0-1.68,1.31v13.63c0,1,.65,1.25,1.48,1.37.46,0,1,.05,1.46.05a19.55,19.55,0,0,0,2-.1,3.68,3.68,0,0,0,2.46-1.38,5.94,5.94,0,0,0,.8-1.87l0-.08h1l0,.14c-.3,1.51-.67,3-1,4.49l0,.08Z"/><path class="cls-3" d="M247.78,160.46h.33c.36,0,.53-.27.53-.71a.52.52,0,0,0-.55-.6h-.31Zm-.93,1.47v-.14c.34,0,.4,0,.4-.25v-2.06c0-.29,0-.39-.39-.37V159h1.42c.49,0,.94.23.94.74a.87.87,0,0,1-.66.84l.46.63a3.12,3.12,0,0,0,.61.66v.09h-.54c-.26,0-.49-.55-1-1.28h-.31v.92c0,.18.07.17.41.22v.14Zm1.38.79a2.27,2.27,0,1,0-2.21-2.26,2.24,2.24,0,0,0,2.21,2.26m0-5.05a2.78,2.78,0,1,1-2.78,2.79,2.74,2.74,0,0,1,2.78-2.79"/><path class="cls-1" d="M83.22,65.15A44.75,44.75,0,1,1,128,109.9,44.74,44.74,0,0,1,83.22,65.15Z"/><path class="cls-2" d="M128,110.7c-25.64.12-46.75-20.66-46.75-45.94C81.28,37.12,102.39,18,128,18h12c25.34,0,48.47,19.1,48.47,46.75,0,25.28-23.13,45.94-48.47,45.94Zm.1-88.86a42.43,42.43,0,1,0,42.43,42.43A42.43,42.43,0,0,0,128.13,21.84ZM118.5,89.36V39.18a26.87,26.87,0,0,0,0,50.18ZM155,64.27a26.91,26.91,0,0,0-17.27-25.1v50.2A26.9,26.9,0,0,0,155,64.27Z"/></svg>