<?xml version="1.0" encoding="UTF-8" standalone="no"?>
<svg
   xmlns:dc="http://purl.org/dc/elements/1.1/"
   xmlns:cc="http://creativecommons.org/ns#"
   xmlns:rdf="http://www.w3.org/1999/02/22-rdf-syntax-ns#"
   xmlns:svg="http://www.w3.org/2000/svg"
   xmlns="http://www.w3.org/2000/svg"
   xmlns:sodipodi="http://sodipodi.sourceforge.net/DTD/sodipodi-0.dtd"
   xmlns:inkscape="http://www.inkscape.org/namespaces/inkscape"
   viewBox="-484.5 279.5 63.200001 71.546066"
   version="1.1"
   id="svg6"
   sodipodi:docname="chesterIcon.svg"
   width="63.200001"
   height="71.546066"
   inkscape:version="0.92.2 (5c3e80d, 2017-08-06)">
  <metadata
     id="metadata12">
    <rdf:RDF>
      <cc:Work
         rdf:about="">
        <dc:format>image/svg+xml</dc:format>
        <dc:type
           rdf:resource="http://purl.org/dc/dcmitype/StillImage" />
        <dc:title></dc:title>
      </cc:Work>
    </rdf:RDF>
  </metadata>
  <defs
     id="defs10" />
  <sodipodi:namedview
     pagecolor="#ffffff"
     bordercolor="#666666"
     borderopacity="1"
     objecttolerance="10"
     gridtolerance="10"
     guidetolerance="10"
     inkscape:pageopacity="0"
     inkscape:pageshadow="2"
     inkscape:window-width="1920"
     inkscape:window-height="1137"
     id="namedview8"
     showgrid="false"
     inkscape:zoom="12.586667"
     inkscape:cx="31.6"
     inkscape:cy="35.8"
     inkscape:window-x="-8"
     inkscape:window-y="-8"
     inkscape:window-maximized="1"
     inkscape:current-layer="svg6" />
  <path
     d="m -442.6,282.04607 c -0.8,-2.2 -3.5,-1.2 -3.5,-1.2 0,0 -3.7,0.5 -4.3,0.8 -0.4,-0.5 -1.2,-1.2 -2.3,-1.7 -2,-0.8 -3.8,-0.3 -4.3,-0.2 -1.7,0.3 -5.8,1.4 -9.5,4.8 -3.6,3.3 -5,7.1 -5.5,8.8 -1.3,0.1 -5,0.4 -8.3,3.2 -2.5,2 -3.7,4.4 -4.2,5.7 0.9,-0.2 3,-0.6 5.5,0.2 2.4,0.7 3.9,2.2 4.5,2.8 0.1,2.9 0.6,8 3.3,13.7 2.6,5.4 6,8.9 8.2,10.8 -0.4,2.5 -0.4,4.6 -0.3,6 0.1,1.9 0.2,3 0.8,4.3 1,2.1 2.9,3.2 3.8,3.7 -0.2,-1.3 -0.3,-3.4 0.3,-5.8 0.5,-2 1.4,-3.5 2,-4.5 0.5,-0.7 1.6,-2 3.3,-3 1.7,-1 3.3,-1.2 4.2,-1.3 -0.5,-0.6 -1.2,-1.2 -2,-1.7 -3.5,-2.1 -7.3,-1.3 -8.5,-1 -1,-2.1 -2.4,-5.7 -2.5,-10.3 -0.2,-7.5 2.9,-12.9 4.3,-15 0.8,0.8 1.6,1.9 2.5,3.2 1,1.6 1.6,3.1 2,4.3 0.6,-1.5 1.4,-4 1.3,-7.2 0,-2.9 -0.8,-5.2 -1.3,-6.7 1.8,-1.4 3.7,-3 5.7,-4.8 1.3,-1.2 2.5,-2.5 3.7,-3.7 0.3,-1.4 1.9,-2.1 1.1,-4.2 z"
     id="path2"
     style="fill:#ffffff;fill-opacity:1"
     inkscape:connector-curvature="0" />
  <path
     d="m -447.9,311.04607 c 0.5,-1.4 2.2,-0.7 2.2,-0.7 0,0 2.3,0.3 2.8,0.5 0.3,-0.3 0.7,-0.8 1.5,-1.1 1.3,-0.5 2.4,-0.2 2.8,-0.1 1.1,0.2 3.7,0.8 6.1,3.1 2.7,2.6 3.4,5.6 3.5,6.6 0.9,0.1 3.2,0.4 5.3,2.3 1.4,1.3 2.1,2.7 2.4,3.5 -0.8,-0.1 -1.9,-0.3 -3.2,-0.1 -1.3,0.2 -2.2,0.6 -2.9,0.9 -0.4,2.2 -1.1,5.2 -2.7,8.5 -1.5,3.2 -3.3,5.6 -4.7,7.3 0.3,1.6 0.3,2.9 0.2,3.8 -0.1,1.2 -0.1,2 -0.5,2.8 -1.2,2.3 -4.5,2.6 -5.2,2.7 0.1,-0.2 1.7,-3.3 0,-6.4 -1.5,-2.7 -4.3,-3.2 -4.7,-3.2 0.5,-0.4 1.2,-0.9 2,-1.2 2.5,-1.1 4.8,-0.8 5.9,-0.5 0.3,-2.4 0.5,-5.4 0.1,-8.9 -0.3,-2.8 -0.8,-5.3 -1.3,-7.4 -0.5,0.2 -1.3,0.7 -2,1.5 -0.9,1.1 -1.2,2.3 -1.3,2.8 -0.2,-0.3 -1.8,-1.9 -1.6,-4.4 0.2,-2.4 1.7,-3.8 2,-4 -1.2,-0.9 -2.4,-1.9 -3.6,-3.1 l -2.4,-2.4 c -0.2,-1 -1.2,-1.5 -0.7,-2.8 z"
     id="path4"
     style="fill:#ffffff;fill-opacity:1"
     inkscape:connector-curvature="0" />
</svg>
