<?xml version="1.0" encoding="UTF-8" standalone="no"?>
<svg
   xmlns:dc="http://purl.org/dc/elements/1.1/"
   xmlns:cc="http://creativecommons.org/ns#"
   xmlns:rdf="http://www.w3.org/1999/02/22-rdf-syntax-ns#"
   xmlns:svg="http://www.w3.org/2000/svg"
   xmlns="http://www.w3.org/2000/svg"
   viewBox="0 0 623.77734 95.279602"
   height="95.279602"
   width="623.77734"
   xml:space="preserve"
   id="svg2"
   version="1.1"><metadata
     id="metadata8"><rdf:RDF><cc:Work
         rdf:about=""><dc:format>image/svg+xml</dc:format><dc:type
           rdf:resource="http://purl.org/dc/dcmitype/StillImage" /><dc:title></dc:title></cc:Work></rdf:RDF></metadata><defs
     id="defs6"><clipPath
       id="clipPath18"
       clipPathUnits="userSpaceOnUse"><path
         id="path16"
         d="M 0,71.46 H 467.833 V 0 H 0 Z" /></clipPath></defs><g
     transform="matrix(1.3333333,0,0,-1.3333333,0,95.2796)"
     id="g10"><g
       id="g14"
       clip-path="url(#clipPath18)"><g
         id="g20"
         transform="translate(42,69)"><path
           d="m 0,0 c -0.833,2.167 -3.5,1.167 -3.5,1.167 0,0 -3.663,-0.497 -4.333,-0.834 -0.405,0.458 -1.165,1.189 -2.334,1.667 -1.974,0.808 -3.762,0.341 -4.333,0.167 -1.727,-0.343 -5.767,-1.387 -9.5,-4.834 -3.62,-3.343 -4.997,-7.142 -5.5,-8.833 -1.303,-0.064 -4.96,-0.416 -8.333,-3.167 -2.495,-2.034 -3.664,-4.425 -4.167,-5.666 0.901,0.22 3.008,0.606 5.5,-0.167 2.386,-0.74 3.869,-2.153 4.5,-2.833 0.095,-2.937 0.638,-8.035 3.333,-13.667 2.578,-5.386 5.999,-8.911 8.167,-10.833 -0.422,-2.496 -0.419,-4.562 -0.333,-6 0.113,-1.896 0.193,-3.04 0.833,-4.334 1.041,-2.103 2.864,-3.188 3.833,-3.666 -0.177,1.277 -0.302,3.375 0.334,5.833 0.517,1.999 1.351,3.515 2,4.5 0.534,0.742 1.589,2.005 3.333,3 1.691,0.965 3.264,1.242 4.167,1.333 -0.517,0.568 -1.173,1.157 -2,1.667 -3.47,2.141 -7.335,1.301 -8.5,1 -1.018,2.12 -2.392,5.718 -2.5,10.333 -0.176,7.502 2.941,12.948 4.333,15 0.766,-0.805 1.635,-1.853 2.458,-3.166 1.009,-1.61 1.64,-3.125 2.042,-4.334 0.586,1.463 1.376,3.974 1.333,7.167 -0.039,2.933 -0.765,5.25 -1.333,6.667 1.818,1.409 3.725,3.013 5.667,4.833 1.324,1.241 2.907,2.876 3.666,3.667 0.938,1.173 2,2.166 1.167,4.333"
           style="fill:#383838;fill-opacity:1;fill-rule:nonzero;stroke:none"
           id="path22" /></g><g
         id="g24"
         transform="translate(36.7227,40.0054)"><path
           d="m 0,0 c 0.535,1.39 2.245,0.748 2.245,0.748 0,0 2.35,-0.318 2.78,-0.534 0.26,0.293 0.747,0.762 1.497,1.069 1.266,0.518 2.414,0.219 2.78,0.107 1.072,-0.199 3.714,-0.837 6.095,-3.101 2.688,-2.556 3.363,-5.59 3.547,-6.628 0.874,-0.088 3.236,-0.446 5.333,-2.333 1.41,-1.269 2.096,-2.685 2.417,-3.5 -0.754,0.145 -1.892,0.273 -3.25,0.083 -1.256,-0.175 -2.249,-0.56 -2.915,-0.88 -0.378,-2.205 -1.12,-5.182 -2.668,-8.453 -1.506,-3.181 -3.277,-5.592 -4.71,-7.264 0.271,-1.601 0.269,-2.926 0.214,-3.849 -0.069,-1.16 -0.142,-2.004 -0.535,-2.78 -1.157,-2.286 -4.527,-2.632 -5.219,-2.69 0.107,0.197 1.739,3.321 0,6.416 -1.496,2.662 -4.294,3.187 -4.667,3.25 0.511,0.424 1.174,0.879 2,1.25 2.469,1.111 4.812,0.767 5.855,0.541 0.294,2.417 0.451,5.434 0.145,8.876 -0.253,2.842 -0.763,5.325 -1.321,7.376 -0.487,-0.231 -1.289,-0.69 -2.012,-1.543 -0.941,-1.109 -1.232,-2.275 -1.334,-2.833 -0.25,0.264 -1.761,1.919 -1.583,4.417 0.17,2.38 1.749,3.773 2.042,4.022 C 5.57,-7.328 4.346,-6.299 3.101,-5.132 2.251,-4.336 1.648,-3.721 0.748,-2.78 -0.151,-1.839 -0.535,-1.39 0,0"
           style="fill:#8f8f8f;fill-opacity:1;fill-rule:nonzero;stroke:none"
           id="path26" /></g></g><path
       d="m 97.793461,50.832998 q -4.942383,0 -7.813477,-3.301757 -2.850586,-3.28125 -2.850586,-9.00293 0,-5.885742 2.748047,-9.105469 2.768555,-3.199219 7.875,-3.199219 3.137695,0 7.157225,1.12793 v -3.055664 q -3.11719,-1.168945 -7.690428,-1.168945 -6.624023,0 -10.233398,4.019531 -3.588867,4.019531 -3.588867,11.422852 0,4.634765 1.722656,8.121093 1.743164,3.486328 5.003906,5.373047 3.28125,1.886719 7.710938,1.886719 4.716793,0 8.244143,-1.722656 l -1.47656,-2.994141 q -3.4043,1.599609 -6.808599,1.599609 z"
       style="font-variant:normal;font-weight:normal;font-stretch:normal;font-size:medium;font-family:'Open Sans';-inkscape-font-specification:OpenSans;writing-mode:lr-tb;fill:#000000;fill-opacity:1;fill-rule:nonzero;stroke:none"
       id="path848" /><path
       d="m 124.98174,23.5371 v 14.540039 q 0,2.748047 -1.25098,4.101563 -1.25098,1.353515 -3.91699,1.353515 -3.54785,0 -5.18848,-1.927734 -1.62012,-1.927735 -1.62012,-6.316406 V 23.5371 h -3.40429 v 31.910156 h 3.40429 v -9.659179 q 0,-1.743165 -0.16406,-2.891602 h 0.20508 q 1.00488,1.620117 2.85058,2.542969 1.86622,0.943359 4.24512,0.943359 4.12207,0 6.17285,-1.96875 2.07129,-1.948242 2.07129,-6.213867 V 23.5371 Z"
       style="font-variant:normal;font-weight:normal;font-stretch:normal;font-size:medium;font-family:'Open Sans';-inkscape-font-specification:OpenSans;writing-mode:lr-tb;fill:#000000;fill-opacity:1;fill-rule:nonzero;stroke:none"
       id="path850" /><path
       d="m 143.53999,23.126944 q -4.98339,0 -7.875,3.035156 -2.87109,3.035156 -2.87109,8.428711 0,5.43457 2.66601,8.633789 2.68653,3.199219 7.19825,3.199219 4.22461,0 6.68554,-2.789063 2.46094,-2.768554 2.46094,-7.321289 v -2.15332 h -15.4834 q 0.10254,-3.958008 1.98926,-6.008789 1.90723,-2.050781 5.35254,-2.050781 3.62988,0 7.17773,1.517578 v -3.035157 q -1.80468,-0.779296 -3.4248,-1.107421 -1.59961,-0.348633 -3.87598,-0.348633 z m -0.92285,20.446289 q -2.70703,0 -4.32715,-1.763672 -1.59961,-1.763672 -1.88672,-4.880859 h 11.75098 q 0,3.219726 -1.43555,4.921875 -1.43554,1.722656 -4.10156,1.722656 z"
       style="font-variant:normal;font-weight:normal;font-stretch:normal;font-size:medium;font-family:'Open Sans';-inkscape-font-specification:OpenSans;writing-mode:lr-tb;fill:#000000;fill-opacity:1;fill-rule:nonzero;stroke:none"
       id="path852" /><path
       d="m 170.7619,29.668936 q 0,-3.137695 -2.33789,-4.839844 -2.33789,-1.702148 -6.5625,-1.702148 -4.47071,0 -6.97266,1.415039 v 3.158203 q 1.62012,-0.820313 3.46582,-1.291992 1.86621,-0.47168 3.58887,-0.47168 2.66601,0 4.10156,0.84082 1.43555,0.861328 1.43555,2.604493 0,1.3125 -1.14844,2.235351 -1.12793,0.943359 -4.42969,2.214844 -3.13769,1.168945 -4.4707,2.030273 -1.3125,0.881836 -1.96875,1.989258 -0.63574,1.107422 -0.63574,2.645508 0,2.748047 2.23535,4.327148 2.23535,1.59961 6.13184,1.59961 3.62988,0 7.0957,-1.476563 l -1.20996,-2.768554 q -3.38379,1.394531 -6.13184,1.394531 -2.41992,0 -3.65039,-0.758789 -1.23047,-0.758789 -1.23047,-2.091797 0,-0.902344 0.45117,-1.538086 0.47168,-0.635742 1.49707,-1.209961 1.0254,-0.574219 3.9375,-1.661133 3.99903,-1.456054 5.39356,-2.932617 1.41504,-1.476563 1.41504,-3.711914 z"
       style="font-variant:normal;font-weight:normal;font-stretch:normal;font-size:medium;font-family:'Open Sans';-inkscape-font-specification:OpenSans;writing-mode:lr-tb;fill:#000000;fill-opacity:1;fill-rule:nonzero;stroke:none"
       id="path854" /><path
       d="m 182.21264,25.936514 q 0.90235,0 1.74317,0.123047 0.84082,0.143555 1.333,0.287109 v -2.604492 q -0.55371,-0.266601 -1.64062,-0.430664 -1.06641,-0.18457 -1.92773,-0.18457 -6.52149,0 -6.52149,6.870117 v 13.371094 h -3.21973 v 1.640625 l 3.21973,1.415039 1.43555,4.798828 h 1.96875 v -5.208985 h 6.52148 v -2.645507 h -6.52148 V 30.140616 q 0,-2.030274 0.96386,-3.117188 0.96387,-1.086914 2.64551,-1.086914 z"
       style="font-variant:normal;font-weight:normal;font-stretch:normal;font-size:medium;font-family:'Open Sans';-inkscape-font-specification:OpenSans;writing-mode:lr-tb;fill:#000000;fill-opacity:1;fill-rule:nonzero;stroke:none"
       id="path856" /><path
       d="m 197.92999,23.126944 q -4.9834,0 -7.875,3.035156 -2.87109,3.035156 -2.87109,8.428711 0,5.43457 2.66601,8.633789 2.68652,3.199219 7.19824,3.199219 4.22461,0 6.68555,-2.789063 2.46094,-2.768554 2.46094,-7.321289 v -2.15332 h -15.4834 q 0.10254,-3.958008 1.98926,-6.008789 1.90722,-2.050781 5.35254,-2.050781 3.62988,0 7.17773,1.517578 v -3.035157 q -1.80469,-0.779296 -3.4248,-1.107421 -1.59961,-0.348633 -3.87598,-0.348633 z m -0.92285,20.446289 q -2.70703,0 -4.32715,-1.763672 -1.59961,-1.763672 -1.88672,-4.880859 h 11.75098 q 0,3.219726 -1.43555,4.921875 -1.43555,1.722656 -4.10156,1.722656 z"
       style="font-variant:normal;font-weight:normal;font-stretch:normal;font-size:medium;font-family:'Open Sans';-inkscape-font-specification:OpenSans;writing-mode:lr-tb;fill:#000000;fill-opacity:1;fill-rule:nonzero;stroke:none"
       id="path858" /><path
       d="m 220.90678,46.423819 q 1.49707,0 2.68652,-0.246094 l -0.47168,-3.158203 q -1.39453,0.307617 -2.46093,0.307617 -2.72754,0 -4.67578,-2.214844 -1.92774,-2.214843 -1.92774,-5.516601 V 23.5371 h -3.4043 v 22.476562 h 2.80957 l 0.38965,-4.163085 h 0.16407 q 1.25097,2.194335 3.01464,3.383789 1.76368,1.189453 3.87598,1.189453 z"
       style="font-variant:normal;font-weight:normal;font-stretch:normal;font-size:medium;font-family:'Open Sans';-inkscape-font-specification:OpenSans;writing-mode:lr-tb;fill:#000000;fill-opacity:1;fill-rule:nonzero;stroke:none"
       id="path860" /><path
       d="m 224.55816,33.237295 v 3.117188 h 10.06933 v -3.117188 z"
       style="font-variant:normal;font-weight:normal;font-stretch:normal;font-size:medium;font-family:'Open Sans';-inkscape-font-specification:OpenSans;writing-mode:lr-tb;fill:#000000;fill-opacity:1;fill-rule:nonzero;stroke:none"
       id="path862" /><path
       d="m 242.02918,23.5371 h -3.4043 v 31.910156 h 3.4043 z"
       style="font-variant:normal;font-weight:normal;font-stretch:normal;font-size:medium;font-family:'Open Sans';-inkscape-font-specification:OpenSans;writing-mode:lr-tb;fill:#000000;fill-opacity:1;fill-rule:nonzero;stroke:none"
       id="path864" /><path
       d="m 257.402,23.126944 q -4.9834,0 -7.875,3.035156 -2.8711,3.035156 -2.8711,8.428711 0,5.43457 2.66602,8.633789 2.68652,3.199219 7.19824,3.199219 4.22461,0 6.68555,-2.789063 2.46094,-2.768554 2.46094,-7.321289 v -2.15332 h -15.4834 q 0.10254,-3.958008 1.98925,-6.008789 1.90723,-2.050781 5.35254,-2.050781 3.62989,0 7.17774,1.517578 v -3.035157 q -1.80469,-0.779296 -3.42481,-1.107421 -1.59961,-0.348633 -3.87597,-0.348633 z m -0.92285,20.446289 q -2.70704,0 -4.32715,-1.763672 -1.59961,-1.763672 -1.88672,-4.880859 h 11.75097 q 0,3.219726 -1.43554,4.921875 -1.43555,1.722656 -4.10156,1.722656 z"
       style="font-variant:normal;font-weight:normal;font-stretch:normal;font-size:medium;font-family:'Open Sans';-inkscape-font-specification:OpenSans;writing-mode:lr-tb;fill:#000000;fill-opacity:1;fill-rule:nonzero;stroke:none"
       id="path866" /><path
       d="m 268.23816,33.237295 v 3.117188 h 10.06934 v -3.117188 z"
       style="font-variant:normal;font-weight:normal;font-stretch:normal;font-size:medium;font-family:'Open Sans';-inkscape-font-specification:OpenSans;writing-mode:lr-tb;fill:#000000;fill-opacity:1;fill-rule:nonzero;stroke:none"
       id="path868" /><path
       d="m 299.73652,31.514639 q 0,-3.958008 -2.8711,-6.172852 -2.87109,-2.214843 -7.79297,-2.214843 -5.33203,0 -8.20312,1.374023 v 3.363281 q 1.8457,-0.779296 4.01953,-1.230468 2.17383,-0.451172 4.30664,-0.451172 3.48633,0 5.25,1.3125 1.76367,1.333008 1.76367,3.691406 0,1.558594 -0.63574,2.542969 -0.61524,1.004883 -2.0918,1.845703 -1.45605,0.84082 -4.45019,1.907227 -4.1836,1.49707 -5.98828,3.547851 -1.78418,2.050781 -1.78418,5.352539 0,3.46582 2.60449,5.516602 2.60449,2.050781 6.89062,2.050781 4.47071,0 8.22364,-1.640625 l -1.08692,-3.035156 q -3.71191,1.558593 -7.21875,1.558593 -2.76855,0 -4.32715,-1.189453 -1.55859,-1.189453 -1.55859,-3.301758 0,-1.558593 0.57422,-2.563476 0.57422,-0.984375 1.92773,-1.825195 1.37403,-0.820313 4.1836,-1.825196 4.71679,-1.68164 6.48047,-3.609375 1.78418,-1.927734 1.78418,-5.003906 z"
       style="font-variant:normal;font-weight:normal;font-stretch:normal;font-size:medium;font-family:'Open Sans';-inkscape-font-specification:OpenSans;writing-mode:lr-tb;fill:#000000;fill-opacity:1;fill-rule:nonzero;stroke:none"
       id="path870" /><path
       d="m 311.27864,25.936514 q 0.90235,0 1.74317,0.123047 0.84082,0.143555 1.33301,0.287109 v -2.604492 q -0.55371,-0.266601 -1.64063,-0.430664 -1.0664,-0.18457 -1.92773,-0.18457 -6.52149,0 -6.52149,6.870117 v 13.371094 h -3.21972 v 1.640625 l 3.21972,1.415039 1.43555,4.798828 h 1.96875 v -5.208985 h 6.52148 v -2.645507 h -6.52148 V 30.140616 q 0,-2.030274 0.96387,-3.117188 0.96386,-1.086914 2.6455,-1.086914 z"
       style="font-variant:normal;font-weight:normal;font-stretch:normal;font-size:medium;font-family:'Open Sans';-inkscape-font-specification:OpenSans;writing-mode:lr-tb;fill:#000000;fill-opacity:1;fill-rule:nonzero;stroke:none"
       id="path872" /><path
       d="m 327.75478,46.423819 q 1.49707,0 2.68652,-0.246094 l -0.47168,-3.158203 q -1.39453,0.307617 -2.46093,0.307617 -2.72754,0 -4.67579,-2.214844 -1.92773,-2.214843 -1.92773,-5.516601 V 23.5371 h -3.4043 v 22.476562 h 2.80957 l 0.38965,-4.163085 h 0.16406 q 1.25098,2.194335 3.01465,3.383789 1.76368,1.189453 3.87598,1.189453 z"
       style="font-variant:normal;font-weight:normal;font-stretch:normal;font-size:medium;font-family:'Open Sans';-inkscape-font-specification:OpenSans;writing-mode:lr-tb;fill:#000000;fill-opacity:1;fill-rule:nonzero;stroke:none"
       id="path874" /><path
       d="m 342.788,23.126944 q -4.9834,0 -7.875,3.035156 -2.8711,3.035156 -2.8711,8.428711 0,5.43457 2.66602,8.633789 2.68652,3.199219 7.19824,3.199219 4.22461,0 6.68555,-2.789063 2.46094,-2.768554 2.46094,-7.321289 v -2.15332 h -15.4834 q 0.10254,-3.958008 1.98926,-6.008789 1.90722,-2.050781 5.35254,-2.050781 3.62988,0 7.17773,1.517578 v -3.035157 q -1.80469,-0.779296 -3.42481,-1.107421 -1.5996,-0.348633 -3.87597,-0.348633 z m -0.92285,20.446289 q -2.70703,0 -4.32715,-1.763672 -1.59961,-1.763672 -1.88672,-4.880859 h 11.75098 q 0,3.219726 -1.43555,4.921875 -1.43555,1.722656 -4.10156,1.722656 z"
       style="font-variant:normal;font-weight:normal;font-stretch:normal;font-size:medium;font-family:'Open Sans';-inkscape-font-specification:OpenSans;writing-mode:lr-tb;fill:#000000;fill-opacity:1;fill-rule:nonzero;stroke:none"
       id="path876" /><path
       d="m 365.00599,23.126944 q -4.9834,0 -7.875,3.035156 -2.8711,3.035156 -2.8711,8.428711 0,5.43457 2.66602,8.633789 2.68652,3.199219 7.19824,3.199219 4.22461,0 6.68555,-2.789063 2.46093,-2.768554 2.46093,-7.321289 v -2.15332 h -15.48339 q 0.10253,-3.958008 1.98925,-6.008789 1.90723,-2.050781 5.35254,-2.050781 3.62989,0 7.17774,1.517578 v -3.035157 q -1.80469,-0.779296 -3.42481,-1.107421 -1.59961,-0.348633 -3.87597,-0.348633 z m -0.92286,20.446289 q -2.70703,0 -4.32714,-1.763672 -1.59961,-1.763672 -1.88672,-4.880859 h 11.75097 q 0,3.219726 -1.43554,4.921875 -1.43555,1.722656 -4.10157,1.722656 z"
       style="font-variant:normal;font-weight:normal;font-stretch:normal;font-size:medium;font-family:'Open Sans';-inkscape-font-specification:OpenSans;writing-mode:lr-tb;fill:#000000;fill-opacity:1;fill-rule:nonzero;stroke:none"
       id="path878" /><path
       d="m 384.98865,25.936514 q 0.90235,0 1.74317,0.123047 0.84082,0.143555 1.333,0.287109 v -2.604492 q -0.55371,-0.266601 -1.64062,-0.430664 -1.06641,-0.18457 -1.92774,-0.18457 -6.52148,0 -6.52148,6.870117 v 13.371094 h -3.21973 v 1.640625 l 3.21973,1.415039 1.43555,4.798828 h 1.96875 v -5.208985 h 6.52148 v -2.645507 h -6.52148 V 30.140616 q 0,-2.030274 0.96386,-3.117188 0.96387,-1.086914 2.64551,-1.086914 z"
       style="font-variant:normal;font-weight:normal;font-stretch:normal;font-size:medium;font-family:'Open Sans';-inkscape-font-specification:OpenSans;writing-mode:lr-tb;fill:#000000;fill-opacity:1;fill-rule:nonzero;stroke:none"
       id="path880" /><path
       d="m 414.09546,31.863272 h -9.94629 L 399.86304,23.5371 h -5.20899 l 16.05762,30.023437 h 5.61914 l 3.4043,-30.023437 h -4.79883 z m -0.32812,4.265625 q -0.82032,8.53125 -0.94336,10.31543 -0.10254,1.804687 -0.10254,2.871093 -1.12793,-2.850586 -2.91211,-6.295898 l -3.52735,-6.890625 z"
       style="font-style:italic;font-variant:normal;font-weight:600;font-stretch:normal;font-size:medium;font-family:'Open Sans Semibold';-inkscape-font-specification:OpenSans-SemiboldItalic;writing-mode:lr-tb;fill:#e20000;fill-opacity:1;fill-rule:nonzero;stroke:none"
       id="path841" /><path
       d="m 439.68577,32.314444 q 0,-4.306641 -2.97364,-6.747071 -2.95312,-2.440429 -8.16211,-2.440429 -4.30664,0 -7.13672,1.538086 v 4.59375 q 3.54786,-1.989258 7.17774,-1.989258 2.80957,0 4.42969,1.189453 1.62011,1.209961 1.62011,3.342773 0,1.415039 -0.84082,2.501954 -0.84082,1.107421 -3.52734,2.80957 -2.15332,1.374023 -3.17871,2.501953 -1.02539,1.12793 -1.5791,2.460937 -0.53321,1.353516 -0.53321,2.973633 0,2.625 1.25098,4.655274 1.27149,2.030273 3.56836,3.137695 2.31738,1.107422 5.20898,1.107422 4.20411,0 7.81348,-1.886719 l -1.76367,-3.916992 q -3.30176,1.599609 -6.04981,1.599609 -2.23535,0 -3.58886,-1.209961 -1.35352,-1.189453 -1.35352,-3.117187 0,-0.963867 0.30762,-1.702149 0.30762,-0.717773 0.94336,-1.353515 0.65625,-0.615235 2.76855,-1.948242 3.17871,-1.989258 4.38867,-3.855469 1.20997,-1.845703 1.20997,-4.245117 z"
       style="font-style:italic;font-variant:normal;font-weight:600;font-stretch:normal;font-size:medium;font-family:'Open Sans Semibold';-inkscape-font-specification:OpenSans-SemiboldItalic;writing-mode:lr-tb;fill:#e20000;fill-opacity:1;fill-rule:nonzero;stroke:none"
       id="path843" /><path
       d="m 459.89072,49.746084 q -3.15821,0 -5.63965,-1.825195 -2.48145,-1.825195 -3.97852,-5.332031 -1.47656,-3.486328 -1.47656,-7.669922 0,-3.691406 1.68164,-5.660156 1.70215,-1.948243 5.00391,-1.948243 2.8916,0 6.74707,1.394532 v -4.204102 q -3.69141,-1.374023 -7.66992,-1.374023 -5.08594,0 -7.97754,3.035156 -2.8711,3.055664 -2.8711,8.551758 0,5.332031 2.15332,9.905273 2.17383,4.573242 5.78321,6.952149 3.60937,2.378906 8.24414,2.378906 4.45019,0 7.97754,-1.886719 l -1.92774,-3.999023 q -1.29199,0.697265 -2.74804,1.189453 -1.45606,0.492187 -3.30176,0.492187 z"
       style="font-style:italic;font-variant:normal;font-weight:600;font-stretch:normal;font-size:medium;font-family:'Open Sans Semibold';-inkscape-font-specification:OpenSans-SemiboldItalic;writing-mode:lr-tb;fill:#e20000;fill-opacity:1;fill-rule:nonzero;stroke:none"
       id="path845" /></g></svg>