<?xml version="1.0" encoding="UTF-8" standalone="no"?>
<!-- Generator: Adobe Illustrator 22.0.0, SVG Export Plug-In . SVG Version: 6.00 Build 0)  -->

<svg
   xmlns:dc="http://purl.org/dc/elements/1.1/"
   xmlns:cc="http://creativecommons.org/ns#"
   xmlns:rdf="http://www.w3.org/1999/02/22-rdf-syntax-ns#"
   xmlns:svg="http://www.w3.org/2000/svg"
   xmlns="http://www.w3.org/2000/svg"
   xmlns:sodipodi="http://sodipodi.sourceforge.net/DTD/sodipodi-0.dtd"
   xmlns:inkscape="http://www.inkscape.org/namespaces/inkscape"
   version="1.1"
   id="Layer_1__x28_1:1_x29_"
   x="0px"
   y="0px"
   viewBox="0 0 42.400002 42.400002"
   xml:space="preserve"
   sodipodi:docname="Amex_logo_color.svg"
   width="42.400002"
   height="42.400002"
   inkscape:version="0.92.4 (5da689c313, 2019-01-14)"><metadata
   id="metadata13"><rdf:RDF><cc:Work
       rdf:about=""><dc:format>image/svg+xml</dc:format><dc:type
         rdf:resource="http://purl.org/dc/dcmitype/StillImage" /></cc:Work></rdf:RDF></metadata><defs
   id="defs11" /><sodipodi:namedview
   pagecolor="#ffffff"
   bordercolor="#666666"
   borderopacity="1"
   objecttolerance="10"
   gridtolerance="10"
   guidetolerance="10"
   inkscape:pageopacity="0"
   inkscape:pageshadow="2"
   inkscape:window-width="1366"
   inkscape:window-height="705"
   id="namedview9"
   showgrid="false"
   inkscape:zoom="3.3714286"
   inkscape:cx="21.2"
   inkscape:cy="21.3"
   inkscape:window-x="-8"
   inkscape:window-y="-8"
   inkscape:window-maximized="1"
   inkscape:current-layer="Layer_1__x28_1:1_x29_" />
<style
   type="text/css"
   id="style2">
	.st0{fill:#006FCF;}
</style>
<title
   id="title4">Amex_logo_color</title>
<path
   class="st0"
   d="m 34.8,10.4 1.4,-3.7 h 6.2 V 0 H 0 v 42.4 h 42.4 v -6.7 h -5.9 l -2.2,-2.5 -2.2,2.5 H 15.5 V 22.3 H 10 L 16.9,6.8 h 6.7 l 1.6,3.5 V 6.8 h 8.3 z m -4.6,2.5 v -1.5 l 0.6,1.5 2.8,7.4 h 2.6 l 2.8,-7.4 0.5,-1.5 v 8.8 h 2.9 V 8.9 H 37.6 L 35.4,14.6 34.8,16.2 34.2,14.6 32,8.9 h -4.8 v 11.3 h 3 z M 24,20.2 h 3.3 l -5,-11.3 h -3.9 l -5,11.3 h 3.3 L 17.6,18 h 5.5 z m -4.2,-7.4 0.6,-1.4 0.6,1.4 1.2,2.9 h -3.5 z m -2,9.5 v 11.3 h 9.4 v -2.4 h -6.6 v -2 H 27 v -2.4 h -6.4 v -2 h 6.6 v -2.4 z m 20,11.2 h 3.7 l -5.3,-5.6 5.3,-5.6 H 37.8 L 34.4,26 31,22.3 h -3.8 l 5.3,5.7 -5.3,5.6 h 3.6 l 3.4,-3.7 z m 1.4,-5.6 3.2,3.3 v -6.5 z"
   id="path6"
   inkscape:connector-curvature="0"
   style="fill:#006fcf" />
</svg>