<svg xmlns="http://www.w3.org/2000/svg" xmlns:xlink="http://www.w3.org/1999/xlink" viewBox="0 0 612 792"><defs><style>.cls-1{fill:none;}.cls-2{isolation:isolate;}.cls-3,.cls-410,.cls-411,.cls-412{fill:#fff;}.cls-4{fill:#ef7d00;}.cls-10,.cls-5{fill:#1d1d1b;}.cls-6{fill:url(#linear-gradient);}.cls-7{opacity:0.65;fill:url(#linear-gradient-2);}.cls-10,.cls-100,.cls-101,.cls-102,.cls-103,.cls-104,.cls-105,.cls-106,.cls-107,.cls-108,.cls-109,.cls-11,.cls-110,.cls-111,.cls-112,.cls-113,.cls-114,.cls-115,.cls-116,.cls-117,.cls-118,.cls-119,.cls-12,.cls-120,.cls-121,.cls-122,.cls-123,.cls-124,.cls-125,.cls-126,.cls-127,.cls-128,.cls-129,.cls-13,.cls-130,.cls-131,.cls-132,.cls-133,.cls-134,.cls-135,.cls-136,.cls-137,.cls-138,.cls-139,.cls-14,.cls-140,.cls-141,.cls-142,.cls-143,.cls-144,.cls-145,.cls-146,.cls-147,.cls-148,.cls-149,.cls-15,.cls-150,.cls-151,.cls-152,.cls-153,.cls-154,.cls-155,.cls-156,.cls-157,.cls-158,.cls-159,.cls-16,.cls-160,.cls-161,.cls-162,.cls-163,.cls-164,.cls-165,.cls-166,.cls-167,.cls-168,.cls-169,.cls-17,.cls-170,.cls-171,.cls-172,.cls-173,.cls-174,.cls-175,.cls-176,.cls-177,.cls-178,.cls-179,.cls-18,.cls-180,.cls-181,.cls-182,.cls-183,.cls-184,.cls-185,.cls-186,.cls-187,.cls-188,.cls-189,.cls-19,.cls-190,.cls-191,.cls-192,.cls-193,.cls-194,.cls-195,.cls-196,.cls-197,.cls-198,.cls-199,.cls-20,.cls-200,.cls-201,.cls-202,.cls-203,.cls-204,.cls-205,.cls-206,.cls-207,.cls-208,.cls-209,.cls-21,.cls-210,.cls-211,.cls-212,.cls-213,.cls-214,.cls-215,.cls-216,.cls-217,.cls-218,.cls-219,.cls-22,.cls-220,.cls-221,.cls-222,.cls-223,.cls-224,.cls-225,.cls-226,.cls-227,.cls-228,.cls-229,.cls-23,.cls-230,.cls-231,.cls-232,.cls-233,.cls-234,.cls-235,.cls-236,.cls-237,.cls-238,.cls-239,.cls-24,.cls-240,.cls-241,.cls-242,.cls-243,.cls-244,.cls-245,.cls-246,.cls-247,.cls-248,.cls-249,.cls-25,.cls-250,.cls-251,.cls-252,.cls-253,.cls-254,.cls-255,.cls-256,.cls-257,.cls-258,.cls-259,.cls-26,.cls-260,.cls-261,.cls-262,.cls-263,.cls-264,.cls-265,.cls-266,.cls-267,.cls-268,.cls-269,.cls-27,.cls-270,.cls-271,.cls-272,.cls-273,.cls-274,.cls-275,.cls-276,.cls-277,.cls-278,.cls-279,.cls-28,.cls-280,.cls-281,.cls-282,.cls-283,.cls-284,.cls-285,.cls-286,.cls-287,.cls-288,.cls-289,.cls-29,.cls-290,.cls-291,.cls-292,.cls-293,.cls-294,.cls-295,.cls-296,.cls-297,.cls-298,.cls-299,.cls-30,.cls-300,.cls-301,.cls-302,.cls-303,.cls-304,.cls-305,.cls-306,.cls-307,.cls-308,.cls-309,.cls-31,.cls-310,.cls-311,.cls-312,.cls-313,.cls-314,.cls-315,.cls-316,.cls-317,.cls-318,.cls-319,.cls-32,.cls-320,.cls-321,.cls-322,.cls-323,.cls-324,.cls-325,.cls-326,.cls-327,.cls-328,.cls-329,.cls-33,.cls-330,.cls-331,.cls-332,.cls-333,.cls-334,.cls-335,.cls-336,.cls-337,.cls-338,.cls-339,.cls-34,.cls-340,.cls-341,.cls-342,.cls-343,.cls-344,.cls-345,.cls-346,.cls-347,.cls-348,.cls-349,.cls-35,.cls-350,.cls-351,.cls-352,.cls-353,.cls-354,.cls-355,.cls-356,.cls-357,.cls-358,.cls-359,.cls-36,.cls-360,.cls-361,.cls-362,.cls-363,.cls-364,.cls-365,.cls-366,.cls-367,.cls-368,.cls-369,.cls-37,.cls-370,.cls-371,.cls-372,.cls-373,.cls-374,.cls-375,.cls-376,.cls-377,.cls-378,.cls-379,.cls-38,.cls-380,.cls-381,.cls-382,.cls-383,.cls-384,.cls-385,.cls-386,.cls-387,.cls-388,.cls-389,.cls-39,.cls-390,.cls-391,.cls-392,.cls-393,.cls-394,.cls-395,.cls-396,.cls-397,.cls-398,.cls-399,.cls-40,.cls-400,.cls-401,.cls-402,.cls-403,.cls-404,.cls-405,.cls-406,.cls-407,.cls-408,.cls-409,.cls-41,.cls-410,.cls-411,.cls-412,.cls-42,.cls-43,.cls-44,.cls-45,.cls-46,.cls-47,.cls-48,.cls-49,.cls-50,.cls-51,.cls-52,.cls-53,.cls-54,.cls-55,.cls-56,.cls-57,.cls-58,.cls-59,.cls-60,.cls-61,.cls-62,.cls-63,.cls-64,.cls-65,.cls-66,.cls-67,.cls-68,.cls-69,.cls-7,.cls-70,.cls-71,.cls-72,.cls-73,.cls-74,.cls-75,.cls-76,.cls-77,.cls-78,.cls-79,.cls-8,.cls-80,.cls-81,.cls-82,.cls-83,.cls-84,.cls-85,.cls-86,.cls-87,.cls-88,.cls-89,.cls-90,.cls-91,.cls-92,.cls-93,.cls-94,.cls-95,.cls-96,.cls-97,.cls-98,.cls-99{mix-blend-mode:multiply;}.cls-8{opacity:0.5;}.cls-9{clip-path:url(#clip-path);}.cls-11{fill:#1e1e1d;}.cls-12{fill:#201f1e;}.cls-13{fill:#21211f;}.cls-14{fill:#222221;}.cls-15{fill:#232322;}.cls-16{fill:#252523;}.cls-17{fill:#262625;}.cls-18{fill:#272726;}.cls-19{fill:#282827;}.cls-20{fill:#2a2928;}.cls-21{fill:#2b2b2a;}.cls-22{fill:#2c2c2b;}.cls-23{fill:#2d2d2c;}.cls-24{fill:#2e2e2d;}.cls-25{fill:#302f2e;}.cls-26{fill:#31302f;}.cls-27{fill:#323231;}.cls-28{fill:#333332;}.cls-29{fill:#343433;}.cls-30{fill:#353534;}.cls-31{fill:#363635;}.cls-32{fill:#373736;}.cls-33{fill:#383837;}.cls-34{fill:#393938;}.cls-35{fill:#3a3a39;}.cls-36{fill:#3c3b3a;}.cls-37{fill:#3d3c3b;}.cls-38{fill:#3e3d3d;}.cls-39{fill:#3f3e3e;}.cls-40{fill:#403f3f;}.cls-41{fill:#414040;}.cls-42{fill:#424141;}.cls-43{fill:#434242;}.cls-44{fill:#444443;}.cls-45{fill:#454544;}.cls-46{fill:#464645;}.cls-47{fill:#474746;}.cls-48{fill:#484847;}.cls-49{fill:#494948;}.cls-50{fill:#4a4a49;}.cls-51{fill:#4b4b4a;}.cls-52{fill:#4c4c4b;}.cls-53{fill:#4d4d4c;}.cls-54{fill:#4e4e4d;}.cls-55{fill:#4f4f4e;}.cls-56{fill:#50504f;}.cls-57{fill:#515150;}.cls-58{fill:#525251;}.cls-59{fill:#535352;}.cls-60{fill:#545453;}.cls-61{fill:#555554;}.cls-62{fill:#565655;}.cls-63{fill:#575756;}.cls-64{fill:#585757;}.cls-65{fill:#595858;}.cls-66{fill:#5a5959;}.cls-67{fill:#5b5a5a;}.cls-68{fill:#5b5b5a;}.cls-69{fill:#5c5c5b;}.cls-70{fill:#5d5d5c;}.cls-71{fill:#5e5e5d;}.cls-72{fill:#5f5f5e;}.cls-73{fill:#60605f;}.cls-74{fill:#616160;}.cls-75{fill:#626161;}.cls-76{fill:#636262;}.cls-77{fill:#646363;}.cls-78{fill:#646464;}.cls-79{fill:#656564;}.cls-80{fill:#666665;}.cls-81{fill:#676766;}.cls-82{fill:#686867;}.cls-83{fill:#696968;}.cls-84{fill:#6a6a69;}.cls-85{fill:#6b6a6a;}.cls-86{fill:#6c6b6b;}.cls-87{fill:#6d6c6c;}.cls-88{fill:#6d6d6d;}.cls-89{fill:#6e6e6d;}.cls-90{fill:#6f6f6e;}.cls-91{fill:#70706f;}.cls-92{fill:#717170;}.cls-93{fill:#727271;}.cls-94{fill:#737372;}.cls-95{fill:#747473;}.cls-96{fill:#757474;}.cls-97{fill:#767575;}.cls-98{fill:#777676;}.cls-99{fill:#777;}.cls-100{fill:#787878;}.cls-101{fill:#797978;}.cls-102{fill:#7a7a79;}.cls-103{fill:#7b7b7a;}.cls-104{fill:#7c7c7b;}.cls-105{fill:#7d7d7c;}.cls-106{fill:#7e7d7d;}.cls-107{fill:#7f7e7e;}.cls-108{fill:#807f7f;}.cls-109{fill:gray;}.cls-110{fill:#818180;}.cls-111{fill:#828281;}.cls-112{fill:#838382;}.cls-113{fill:#848483;}.cls-114{fill:#858484;}.cls-115{fill:#868585;}.cls-116{fill:#868686;}.cls-117{fill:#878787;}.cls-118{fill:#888887;}.cls-119{fill:#898988;}.cls-120{fill:#8a8a89;}.cls-121{fill:#8b8a8a;}.cls-122{fill:#8b8b8b;}.cls-123{fill:#8c8c8c;}.cls-124{fill:#8d8d8c;}.cls-125{fill:#8e8e8d;}.cls-126{fill:#8f8e8e;}.cls-127{fill:#8f8f8f;}.cls-128{fill:#909090;}.cls-129{fill:#919190;}.cls-130{fill:#929291;}.cls-131{fill:#939292;}.cls-132{fill:#939393;}.cls-133{fill:#949494;}.cls-134{fill:#959594;}.cls-135{fill:#969695;}.cls-136{fill:#979696;}.cls-137{fill:#979797;}.cls-138{fill:#989898;}.cls-139{fill:#999998;}.cls-140{fill:#9a9a99;}.cls-141{fill:#9b9a9a;}.cls-142{fill:#9b9b9b;}.cls-143{fill:#9c9c9c;}.cls-144{fill:#9d9d9c;}.cls-145{fill:#9e9e9d;}.cls-146{fill:#9f9e9e;}.cls-147{fill:#9f9f9f;}.cls-148{fill:#a0a0a0;}.cls-149{fill:#a1a1a0;}.cls-150{fill:#a2a2a1;}.cls-151{fill:#a3a2a2;}.cls-152{fill:#a3a3a3;}.cls-153{fill:#a4a4a4;}.cls-154{fill:#a5a5a5;}.cls-155{fill:#a6a6a5;}.cls-156{fill:#a7a7a6;}.cls-157{fill:#a8a7a7;}.cls-158{fill:#a8a8a8;}.cls-159{fill:#a9a9a9;}.cls-160{fill:#aaaaa9;}.cls-161{fill:#ababaa;}.cls-162{fill:#acabab;}.cls-163{fill:#acacac;}.cls-164{fill:#adadad;}.cls-165{fill:#aeaead;}.cls-166{fill:#afafae;}.cls-167{fill:#afafaf;}.cls-168{fill:#b0b0b0;}.cls-169{fill:#b1b1b1;}.cls-170{fill:#b2b2b1;}.cls-171{fill:#b3b2b2;}.cls-172{fill:#b3b3b3;}.cls-173{fill:#b4b4b4;}.cls-174{fill:#b5b5b4;}.cls-175{fill:#b6b5b5;}.cls-176{fill:#b6b6b6;}.cls-177{fill:#b7b7b7;}.cls-178{fill:#b8b8b7;}.cls-179{fill:#b9b8b8;}.cls-180{fill:#b9b9b9;}.cls-181{fill:#bababa;}.cls-182{fill:#bbbbba;}.cls-183{fill:#bcbbbb;}.cls-184{fill:#bcbcbc;}.cls-185{fill:#bdbdbd;}.cls-186{fill:#bebebd;}.cls-187{fill:#bfbebe;}.cls-188{fill:#bfbfbf;}.cls-189{fill:silver;}.cls-190{fill:#c1c1c0;}.cls-191{fill:#c2c1c1;}.cls-192{fill:#c2c2c2;}.cls-193{fill:#c3c3c3;}.cls-194{fill:#c4c4c3;}.cls-195{fill:#c4c4c4;}.cls-196{fill:#c5c5c5;}.cls-197{fill:#c6c6c6;}.cls-198{fill:#c7c7c6;}.cls-199{fill:#c7c7c7;}.cls-200{fill:#c8c8c8;}.cls-201{fill:#c9c9c8;}.cls-202{fill:#cac9c9;}.cls-203{fill:#cacaca;}.cls-204{fill:#cbcbcb;}.cls-205{fill:#cccccb;}.cls-206{fill:#cdcccc;}.cls-207{fill:#cdcdcd;}.cls-208{fill:#cecece;}.cls-209{fill:#cfcfce;}.cls-210{fill:#d0cfcf;}.cls-211,.cls-212{fill:#d0d0d0;}.cls-212{opacity:1;}.cls-213{fill:#d1d1d0;opacity:0.99;}.cls-214,.cls-215,.cls-216{fill:#d1d1d1;}.cls-214{opacity:0.99;}.cls-215{opacity:0.98;}.cls-216{opacity:0.98;}.cls-217{fill:#d2d2d1;opacity:0.97;}.cls-218,.cls-219,.cls-220{fill:#d2d2d2;}.cls-218{opacity:0.97;}.cls-219{opacity:0.96;}.cls-220{opacity:0.96;}.cls-221{fill:#d3d3d2;opacity:0.95;}.cls-222,.cls-223,.cls-224{fill:#d3d3d3;}.cls-222{opacity:0.95;}.cls-223{opacity:0.94;}.cls-224{opacity:0.94;}.cls-225{fill:#d4d4d3;opacity:0.93;}.cls-226,.cls-227,.cls-228{fill:#d4d4d4;}.cls-226{opacity:0.93;}.cls-227{opacity:0.92;}.cls-228{opacity:0.92;}.cls-229{fill:#d5d5d4;opacity:0.91;}.cls-230,.cls-231,.cls-232{fill:#d5d5d5;}.cls-230{opacity:0.91;}.cls-231{opacity:0.9;}.cls-232{opacity:0.9;}.cls-233{fill:#d6d6d5;opacity:0.89;}.cls-234,.cls-235,.cls-236{fill:#d6d6d6;}.cls-234{opacity:0.89;}.cls-235{opacity:0.88;}.cls-236{opacity:0.88;}.cls-237{fill:#d7d7d6;opacity:0.87;}.cls-238,.cls-239,.cls-240{fill:#d7d7d7;}.cls-238{opacity:0.87;}.cls-239{opacity:0.86;}.cls-240{opacity:0.86;}.cls-241{fill:#d8d8d7;opacity:0.85;}.cls-242,.cls-243,.cls-244{fill:#d8d8d8;}.cls-242{opacity:0.85;}.cls-243{opacity:0.84;}.cls-244{opacity:0.84;}.cls-245{fill:#d9d9d8;opacity:0.83;}.cls-246,.cls-247,.cls-248{fill:#d9d9d9;}.cls-246{opacity:0.83;}.cls-247{opacity:0.82;}.cls-248{opacity:0.82;}.cls-249{fill:#dad9d9;opacity:0.81;}.cls-250,.cls-251,.cls-252{fill:#dadada;}.cls-250{opacity:0.81;}.cls-251{opacity:0.8;}.cls-252{opacity:0.8;}.cls-253{fill:#dbdada;opacity:0.79;}.cls-254,.cls-255,.cls-256,.cls-257{fill:#dbdbdb;}.cls-254{opacity:0.79;}.cls-255{opacity:0.78;}.cls-256{opacity:0.78;}.cls-257{opacity:0.77;}.cls-258{fill:#dcdcdb;opacity:0.77;}.cls-259,.cls-260,.cls-261{fill:#dcdcdc;}.cls-259{opacity:0.76;}.cls-260{opacity:0.76;}.cls-261{opacity:0.75;}.cls-262{fill:#dddddc;opacity:0.75;}.cls-263,.cls-264,.cls-265{fill:#ddd;}.cls-263{opacity:0.74;}.cls-264{opacity:0.74;}.cls-265{opacity:0.73;}.cls-266{fill:#dedddd;opacity:0.73;}.cls-267,.cls-268,.cls-269,.cls-270{fill:#dedede;}.cls-267{opacity:0.72;}.cls-268{opacity:0.72;}.cls-269{opacity:0.71;}.cls-270{opacity:0.71;}.cls-271,.cls-272,.cls-273,.cls-274{fill:#dfdfdf;}.cls-271{opacity:0.7;}.cls-272{opacity:0.7;}.cls-273{opacity:0.69;}.cls-274{opacity:0.69;}.cls-275{fill:#e0e0df;opacity:0.68;}.cls-276,.cls-277,.cls-278{fill:#e0e0e0;}.cls-276{opacity:0.68;}.cls-277{opacity:0.67;}.cls-278{opacity:0.67;}.cls-279{fill:#e1e0e0;opacity:0.66;}.cls-280,.cls-281,.cls-282,.cls-283{fill:#e1e1e1;}.cls-280{opacity:0.66;}.cls-281{opacity:0.65;}.cls-282{opacity:0.65;}.cls-283{opacity:0.64;}.cls-284{fill:#e2e2e1;opacity:0.64;}.cls-285,.cls-286,.cls-287{fill:#e2e2e2;}.cls-285{opacity:0.63;}.cls-286{opacity:0.63;}.cls-287{opacity:0.62;}.cls-288{fill:#e3e3e2;opacity:0.62;}.cls-289,.cls-290,.cls-291{fill:#e3e3e3;}.cls-289{opacity:0.61;}.cls-290{opacity:0.61;}.cls-291{opacity:0.6;}.cls-292{fill:#e4e3e3;opacity:0.6;}.cls-293,.cls-294,.cls-295,.cls-296{fill:#e4e4e4;}.cls-293{opacity:0.59;}.cls-294{opacity:0.59;}.cls-295{opacity:0.58;}.cls-296{opacity:0.58;}.cls-297{fill:#e5e5e4;opacity:0.57;}.cls-298,.cls-299,.cls-300{fill:#e5e5e5;}.cls-298{opacity:0.57;}.cls-299{opacity:0.56;}.cls-300{opacity:0.56;}.cls-301{fill:#e6e6e5;opacity:0.55;}.cls-302,.cls-303,.cls-304{fill:#e6e6e6;}.cls-302{opacity:0.55;}.cls-303{opacity:0.54;}.cls-304{opacity:0.54;}.cls-305{fill:#e7e6e6;opacity:0.53;}.cls-306,.cls-307,.cls-308,.cls-309{fill:#e7e7e7;}.cls-306{opacity:0.53;}.cls-307{opacity:0.52;}.cls-308{opacity:0.52;}.cls-309{opacity:0.51;}.cls-310,.cls-311,.cls-312,.cls-313{fill:#e8e8e8;}.cls-310{opacity:0.51;}.cls-311{opacity:0.5;}.cls-312{opacity:0.5;}.cls-313{opacity:0.49;}.cls-314{fill:#e9e9e8;opacity:0.49;}.cls-315,.cls-316,.cls-317{fill:#e9e9e9;}.cls-315{opacity:0.48;}.cls-316{opacity:0.48;}.cls-317{opacity:0.47;}.cls-318{fill:#eae9e9;opacity:0.47;}.cls-319,.cls-320,.cls-321,.cls-322{fill:#eaeaea;}.cls-319{opacity:0.46;}.cls-320{opacity:0.46;}.cls-321{opacity:0.45;}.cls-322{opacity:0.45;}.cls-323,.cls-324,.cls-325,.cls-326{fill:#ebebeb;}.cls-323{opacity:0.44;}.cls-324{opacity:0.44;}.cls-325{opacity:0.43;}.cls-326{opacity:0.43;}.cls-327{fill:#ececeb;opacity:0.42;}.cls-328,.cls-329,.cls-330{fill:#ececec;}.cls-328{opacity:0.42;}.cls-329{opacity:0.41;}.cls-330{opacity:0.41;}.cls-331{fill:#edecec;opacity:0.4;}.cls-332,.cls-333,.cls-334,.cls-335{fill:#ededed;}.cls-332{opacity:0.4;}.cls-333{opacity:0.39;}.cls-334{opacity:0.39;}.cls-335{opacity:0.38;}.cls-336,.cls-337,.cls-338,.cls-339{fill:#eee;}.cls-336{opacity:0.38;}.cls-337{opacity:0.37;}.cls-338{opacity:0.37;}.cls-339{opacity:0.36;}.cls-340{fill:#efefee;opacity:0.36;}.cls-341,.cls-342,.cls-343{fill:#efefef;}.cls-341{opacity:0.35;}.cls-342{opacity:0.35;}.cls-343{opacity:0.34;}.cls-344{fill:#f0efef;opacity:0.34;}.cls-345,.cls-346,.cls-347,.cls-348{fill:#f0f0f0;}.cls-345{opacity:0.33;}.cls-346{opacity:0.33;}.cls-347{opacity:0.32;}.cls-348{opacity:0.32;}.cls-349,.cls-350,.cls-351,.cls-352{fill:#f1f1f1;}.cls-349{opacity:0.31;}.cls-350{opacity:0.31;}.cls-351{opacity:0.3;}.cls-352{opacity:0.3;}.cls-353,.cls-354,.cls-355,.cls-356{fill:#f2f2f2;}.cls-353{opacity:0.29;}.cls-354{opacity:0.29;}.cls-355{opacity:0.28;}.cls-356{opacity:0.28;}.cls-357{fill:#f3f2f2;opacity:0.27;}.cls-358,.cls-359,.cls-360,.cls-361{fill:#f3f3f3;}.cls-358{opacity:0.27;}.cls-359{opacity:0.26;}.cls-360{opacity:0.26;}.cls-361{opacity:0.25;}.cls-362,.cls-363,.cls-364,.cls-365{fill:#f4f4f4;}.cls-362{opacity:0.25;}.cls-363{opacity:0.24;}.cls-364{opacity:0.24;}.cls-365{opacity:0.23;}.cls-366,.cls-367,.cls-368,.cls-369{fill:#f5f5f5;}.cls-366{opacity:0.23;}.cls-367{opacity:0.22;}.cls-368{opacity:0.22;}.cls-369{opacity:0.21;}.cls-370{fill:#f6f5f5;opacity:0.21;}.cls-371,.cls-372,.cls-373,.cls-374{fill:#f6f6f6;}.cls-371{opacity:0.2;}.cls-372{opacity:0.2;}.cls-373{opacity:0.19;}.cls-374{opacity:0.19;}.cls-375,.cls-376,.cls-377,.cls-378{fill:#f7f7f7;}.cls-375{opacity:0.18;}.cls-376{opacity:0.18;}.cls-377{opacity:0.17;}.cls-378{opacity:0.17;}.cls-379,.cls-380,.cls-381,.cls-382,.cls-383{fill:#f8f8f8;}.cls-379{opacity:0.16;}.cls-380{opacity:0.16;}.cls-381{opacity:0.15;}.cls-382{opacity:0.15;}.cls-383{opacity:0.14;}.cls-384,.cls-385,.cls-386,.cls-387{fill:#f9f9f9;}.cls-384{opacity:0.14;}.cls-385{opacity:0.13;}.cls-386{opacity:0.13;}.cls-387{opacity:0.12;}.cls-388,.cls-389,.cls-390,.cls-391{fill:#fafafa;}.cls-388{opacity:0.12;}.cls-389{opacity:0.11;}.cls-390{opacity:0.11;}.cls-391{opacity:0.1;}.cls-392,.cls-393,.cls-394,.cls-395,.cls-396{fill:#fbfbfb;}.cls-392{opacity:0.1;}.cls-393{opacity:0.09;}.cls-394{opacity:0.09;}.cls-395{opacity:0.08;}.cls-396{opacity:0.08;}.cls-397,.cls-398,.cls-399,.cls-400{fill:#fcfcfc;}.cls-397{opacity:0.07;}.cls-398{opacity:0.07;}.cls-399{opacity:0.06;}.cls-400{opacity:0.06;}.cls-401,.cls-402,.cls-403,.cls-404,.cls-405{fill:#fdfdfd;}.cls-401{opacity:0.05;}.cls-402{opacity:0.05;}.cls-403{opacity:0.04;}.cls-404{opacity:0.04;}.cls-405{opacity:0.03;}.cls-406,.cls-407,.cls-408,.cls-409{fill:#fefefe;}.cls-406{opacity:0.03;}.cls-407{opacity:0.02;}.cls-408{opacity:0.02;}.cls-409{opacity:0.01;}.cls-410{opacity:0.01;}.cls-411{opacity:0;}.cls-412{opacity:0;}</style><linearGradient id="linear-gradient" x1="314.89" y1="358.44" x2="305.35" y2="343.52" gradientUnits="userSpaceOnUse"><stop offset="0" stop-color="#f6a000"/><stop offset="0.23" stop-color="#f59b00"/><stop offset="0.49" stop-color="#f38e00"/><stop offset="0.62" stop-color="#f18400"/><stop offset="0.77" stop-color="#ef7902"/><stop offset="1" stop-color="#ed6d05"/></linearGradient><linearGradient id="linear-gradient-2" x1="313.38" y1="358.24" x2="299.45" y2="331.01" gradientUnits="userSpaceOnUse"><stop offset="0" stop-color="#f18400" stop-opacity="0"/><stop offset="0.11" stop-color="#eb7c07" stop-opacity="0.13"/><stop offset="0.31" stop-color="#e16e12" stop-opacity="0.35"/><stop offset="0.5" stop-color="#d9641a" stop-opacity="0.52"/><stop offset="0.68" stop-color="#d45c20" stop-opacity="0.64"/><stop offset="0.85" stop-color="#d05824" stop-opacity="0.71"/><stop offset="0.98" stop-color="#cf5625" stop-opacity="0.74"/></linearGradient><clipPath id="clip-path"><path class="cls-1" d="M321.61,347.41a13.77,13.77,0,1,1-13.77-13.77A13.77,13.77,0,0,1,321.61,347.41Z"/></clipPath></defs><g class="cls-2"><g id="Layer_1" data-name="Layer 1"><polygon class="cls-3" points="214.76 300.03 392.36 300.02 392.36 413.13 214.79 413.13 214.76 300.03"/><path class="cls-4" d="M391.74,362.92s-48.53,34.25-137.41,49.57H391.74Z"/><path class="cls-5" d="M392.36,299.37l-178.22,0V413.78H393V299.37Zm-.64,1.29V412.48H215.43c0-1.27,0-110.54,0-111.81Z"/><path class="cls-5" d="M229.78,334.38h-7.41v25.88h7.37c3.92,0,6.75-.92,9.23-3a13,13,0,0,0,4.7-9.93C243.67,339.7,238,334.38,229.78,334.38Zm5.9,19.44c-1.59,1.43-3.65,2.06-6.91,2.06h-1.36V338.76h1.36c3.26,0,5.24.59,6.91,2.1a8.72,8.72,0,0,1,2.79,6.44A8.9,8.9,0,0,1,235.68,353.82Z"/><rect class="cls-5" x="246" y="334.38" width="5.05" height="25.88"/><path class="cls-5" d="M263.39,344.31c-3-1.12-3.92-1.86-3.92-3.26,0-1.63,1.59-2.87,3.76-2.87a5.2,5.2,0,0,1,4.07,2.1l2.64-3.46a11.3,11.3,0,0,0-7.6-2.87c-4.58,0-8.07,3.18-8.07,7.42,0,3.56,1.62,5.39,6.36,7.09a20,20,0,0,1,3.49,1.48,3.1,3.1,0,0,1,1.52,2.68,3.69,3.69,0,0,1-3.92,3.65,6,6,0,0,1-5.51-3.46L253,356c2.32,3.41,5.12,4.92,9,4.92,5.24,0,8.93-3.48,8.93-8.5C270.84,348.27,269.13,346.41,263.39,344.31Z"/><path class="cls-5" d="M272.43,347.34a13.4,13.4,0,0,0,13.66,13.5,14,14,0,0,0,6.33-1.5v-5.95c-2,2-3.81,2.84-6.1,2.84-5.08,0-8.69-3.69-8.69-8.93a8.6,8.6,0,0,1,8.46-8.89c2.41,0,4.23.86,6.33,2.91v-5.94a13,13,0,0,0-6.21-1.59A13.61,13.61,0,0,0,272.43,347.34Z"/><polygon class="cls-5" points="332.45 351.76 325.55 334.38 320.03 334.38 331.02 360.93 333.73 360.93 344.92 334.38 339.44 334.38 332.45 351.76"/><polygon class="cls-5" points="347.2 360.26 361.52 360.26 361.52 355.88 352.24 355.88 352.24 348.89 361.18 348.89 361.18 344.51 352.24 344.51 352.24 338.76 361.52 338.76 361.52 334.38 347.2 334.38 347.2 360.26"/><path class="cls-5" d="M381.51,342c0-4.85-3.34-7.64-9.16-7.64h-7.49v25.88h5v-10.4h.66l7,10.4h6.21l-8.15-10.9C379.41,348.58,381.51,346,381.51,342Zm-10.13,4.27H369.9v-7.84h1.56c3.14,0,4.85,1.32,4.85,3.84S374.6,346.29,371.38,346.29Z"/><path class="cls-6" d="M321.61,347.41a13.77,13.77,0,1,1-13.77-13.77A13.78,13.78,0,0,1,321.61,347.41Z"/><path class="cls-7" d="M321.61,347.41a13.77,13.77,0,1,1-13.77-13.77A13.78,13.78,0,0,1,321.61,347.41Z"/><g class="cls-8"><g class="cls-9"><path class="cls-10" d="M321.93,347.46a14.05,14.05,0,1,1-14.05-14A14,14,0,0,1,321.93,347.46Z"/><path class="cls-11" d="M307.89,333.42a14,14,0,1,1-14.05,14A14,14,0,0,1,307.89,333.42Z"/><path class="cls-12" d="M307.9,333.43a14,14,0,1,1-14,14A14,14,0,0,1,307.9,333.43Z"/><path class="cls-13" d="M307.9,333.44a14,14,0,1,1-14,14A14,14,0,0,1,307.9,333.44Z"/><path class="cls-14" d="M307.91,333.45a14,14,0,1,1-14,14A14,14,0,0,1,307.91,333.45Z"/><path class="cls-15" d="M307.92,333.46a14,14,0,1,1-14,14A14,14,0,0,1,307.92,333.46Z"/><path class="cls-16" d="M307.93,333.47a14,14,0,1,1-14,14A14,14,0,0,1,307.93,333.47Z"/><path class="cls-17" d="M307.93,333.48a14,14,0,1,1-14,14A14,14,0,0,1,307.93,333.48Z"/><path class="cls-18" d="M307.94,333.49a14,14,0,1,1-14,14A14,14,0,0,1,307.94,333.49Z"/><path class="cls-19" d="M308,333.5a14,14,0,1,1-14,14A14,14,0,0,1,308,333.5Z"/><path class="cls-20" d="M308,333.51a14,14,0,1,1-14,14A14,14,0,0,1,308,333.51Z"/><path class="cls-21" d="M308,333.52a14,14,0,1,1-14,14A14,14,0,0,1,308,333.52Z"/><path class="cls-22" d="M308,333.53a14,14,0,1,1-14,14A14,14,0,0,1,308,333.53Z"/><path class="cls-23" d="M308,333.54a14,14,0,1,1-14,14A14,14,0,0,1,308,333.54Z"/><path class="cls-24" d="M308,333.55a14,14,0,1,1-14,14A14,14,0,0,1,308,333.55Z"/><path class="cls-25" d="M308,333.56a14,14,0,1,1-14,14A14,14,0,0,1,308,333.56Z"/><path class="cls-26" d="M308,333.57a14,14,0,1,1-14,14A14,14,0,0,1,308,333.57Z"/><path class="cls-27" d="M308,333.58a14,14,0,1,1-14,14A14,14,0,0,1,308,333.58Z"/><path class="cls-28" d="M308,333.59a14,14,0,1,1-14,14A14,14,0,0,1,308,333.59Z"/><path class="cls-29" d="M308,333.6a14,14,0,1,1-14,14A14,14,0,0,1,308,333.6Z"/><path class="cls-30" d="M308,333.61a14,14,0,1,1-14,14A14,14,0,0,1,308,333.61Z"/><path class="cls-31" d="M308,333.62a14,14,0,1,1-14,14A14,14,0,0,1,308,333.62Z"/><path class="cls-32" d="M308.05,333.63a14,14,0,1,1-14,14A14,14,0,0,1,308.05,333.63Z"/><path class="cls-33" d="M308.06,333.64a14,14,0,1,1-14,14A14,14,0,0,1,308.06,333.64Z"/><path class="cls-34" d="M308.06,333.65a14,14,0,1,1-14,14A14,14,0,0,1,308.06,333.65Z"/><path class="cls-35" d="M308.07,333.66a14,14,0,1,1-14,14A14,14,0,0,1,308.07,333.66Z"/><path class="cls-36" d="M308.08,333.67a14,14,0,1,1-14,14A14,14,0,0,1,308.08,333.67Z"/><path class="cls-37" d="M308.09,333.68a14,14,0,1,1-14,14A14,14,0,0,1,308.09,333.68Z"/><path class="cls-38" d="M308.09,333.69a14,14,0,1,1-14,14A14,14,0,0,1,308.09,333.69Z"/><path class="cls-39" d="M308.1,333.7a14,14,0,1,1-14,14A14,14,0,0,1,308.1,333.7Z"/><path class="cls-40" d="M308.11,333.71a14,14,0,1,1-14,14A14,14,0,0,1,308.11,333.71Z"/><path class="cls-41" d="M308.12,333.72a14,14,0,1,1-14,14A14,14,0,0,1,308.12,333.72Z"/><path class="cls-42" d="M308.12,333.73a14,14,0,1,1-14,14A14,14,0,0,1,308.12,333.73Z"/><path class="cls-43" d="M308.13,333.74a14,14,0,1,1-14,14A14,14,0,0,1,308.13,333.74Z"/><path class="cls-44" d="M308.14,333.75a14,14,0,1,1-14,14A14,14,0,0,1,308.14,333.75Z"/><path class="cls-45" d="M308.15,333.76a14,14,0,1,1-14,14A14,14,0,0,1,308.15,333.76Z"/><path class="cls-46" d="M308.15,333.77a14,14,0,1,1-14,14A14,14,0,0,1,308.15,333.77Z"/><path class="cls-47" d="M308.16,333.78a14,14,0,1,1-14,14A14,14,0,0,1,308.16,333.78Z"/><path class="cls-48" d="M308.17,333.79a14,14,0,1,1-14,14A14,14,0,0,1,308.17,333.79Z"/><path class="cls-49" d="M308.18,333.8a14,14,0,1,1-14,14A14,14,0,0,1,308.18,333.8Z"/><path class="cls-50" d="M308.19,333.81a14,14,0,1,1-14,14A14,14,0,0,1,308.19,333.81Z"/><path class="cls-51" d="M308.19,333.82a14,14,0,1,1-14,14A14,14,0,0,1,308.19,333.82Z"/><path class="cls-52" d="M308.2,333.83a14,14,0,1,1-14,14A14,14,0,0,1,308.2,333.83Z"/><path class="cls-53" d="M308.21,333.84a14,14,0,1,1-14,14A14,14,0,0,1,308.21,333.84Z"/><path class="cls-54" d="M308.21,333.85a14,14,0,1,1-14,14A14,14,0,0,1,308.21,333.85Z"/><path class="cls-55" d="M308.22,333.87a14,14,0,1,1-14,14A14,14,0,0,1,308.22,333.87Z"/><path class="cls-56" d="M308.23,333.88a14,14,0,1,1-14,14A14,14,0,0,1,308.23,333.88Z"/><path class="cls-57" d="M308.24,333.89a14,14,0,1,1-14,14A14,14,0,0,1,308.24,333.89Z"/><circle class="cls-58" cx="308.25" cy="347.88" r="13.98"/><path class="cls-59" d="M308.25,333.91a14,14,0,1,1-14,14A14,14,0,0,1,308.25,333.91Z"/><path class="cls-60" d="M308.26,333.92a14,14,0,1,1-14,14A14,14,0,0,1,308.26,333.92Z"/><path class="cls-61" d="M308.27,333.93a14,14,0,1,1-14,14A14,14,0,0,1,308.27,333.93Z"/><path class="cls-62" d="M308.28,333.94a14,14,0,1,1-14,14A14,14,0,0,1,308.28,333.94Z"/><path class="cls-63" d="M308.28,334a14,14,0,1,1-14,14A14,14,0,0,1,308.28,334Z"/><path class="cls-64" d="M308.29,334a14,14,0,1,1-14,14A14,14,0,0,1,308.29,334Z"/><path class="cls-65" d="M308.3,334a14,14,0,1,1-14,14A14,14,0,0,1,308.3,334Z"/><path class="cls-66" d="M308.31,334a14,14,0,1,1-14,14A14,14,0,0,1,308.31,334Z"/><path class="cls-67" d="M308.31,334a14,14,0,1,1-14,14A14,14,0,0,1,308.31,334Z"/><path class="cls-68" d="M308.32,334a14,14,0,1,1-14,14A14,14,0,0,1,308.32,334Z"/><path class="cls-69" d="M308.33,334a14,14,0,1,1-14,14A14,14,0,0,1,308.33,334Z"/><path class="cls-70" d="M308.34,334a14,14,0,1,1-14,14A14,14,0,0,1,308.34,334Z"/><path class="cls-71" d="M308.35,334a14,14,0,1,1-14,14A14,14,0,0,1,308.35,334Z"/><path class="cls-72" d="M308.35,334a14,14,0,1,1-14,14A14,14,0,0,1,308.35,334Z"/><path class="cls-73" d="M308.36,334.05a14,14,0,1,1-14,14A14,14,0,0,1,308.36,334.05Z"/><path class="cls-74" d="M308.37,334.06a14,14,0,1,1-14,14A14,14,0,0,1,308.37,334.06Z"/><path class="cls-75" d="M308.38,334.07a14,14,0,1,1-14,14A14,14,0,0,1,308.38,334.07Z"/><path class="cls-76" d="M308.38,334.08A14,14,0,1,1,294.43,348,14,14,0,0,1,308.38,334.08Z"/><path class="cls-77" d="M308.39,334.09a14,14,0,1,1-13.95,14A14,14,0,0,1,308.39,334.09Z"/><path class="cls-78" d="M308.4,334.1a14,14,0,1,1-14,13.95A14,14,0,0,1,308.4,334.1Z"/><path class="cls-79" d="M308.41,334.11a14,14,0,1,1-14,13.95A13.95,13.95,0,0,1,308.41,334.11Z"/><path class="cls-80" d="M308.41,334.12a13.95,13.95,0,1,1-14,13.95A14,14,0,0,1,308.41,334.12Z"/><path class="cls-81" d="M308.42,334.13a13.95,13.95,0,1,1-13.95,13.95A13.95,13.95,0,0,1,308.42,334.13Z"/><path class="cls-82" d="M308.43,334.14a13.95,13.95,0,1,1-13.95,13.95A13.95,13.95,0,0,1,308.43,334.14Z"/><path class="cls-83" d="M308.44,334.15a13.95,13.95,0,1,1-13.95,14A13.94,13.94,0,0,1,308.44,334.15Z"/><path class="cls-84" d="M308.45,334.16A13.95,13.95,0,1,1,294.5,348.1,13.94,13.94,0,0,1,308.45,334.16Z"/><path class="cls-85" d="M308.45,334.17a13.95,13.95,0,1,1-13.94,13.94A13.95,13.95,0,0,1,308.45,334.17Z"/><path class="cls-86" d="M308.46,334.18a13.94,13.94,0,1,1-13.94,13.94A13.94,13.94,0,0,1,308.46,334.18Z"/><path class="cls-87" d="M308.47,334.19a13.94,13.94,0,1,1-13.94,13.94A13.94,13.94,0,0,1,308.47,334.19Z"/><path class="cls-88" d="M308.47,334.2a13.94,13.94,0,1,1-13.93,13.94A13.94,13.94,0,0,1,308.47,334.2Z"/><path class="cls-89" d="M308.48,334.21a13.94,13.94,0,1,1-13.94,13.94A13.94,13.94,0,0,1,308.48,334.21Z"/><path class="cls-90" d="M308.49,334.22a13.94,13.94,0,1,1-13.94,13.94A13.94,13.94,0,0,1,308.49,334.22Z"/><path class="cls-91" d="M308.5,334.23a13.94,13.94,0,1,1-13.94,13.94A13.94,13.94,0,0,1,308.5,334.23Z"/><path class="cls-92" d="M308.51,334.24a13.94,13.94,0,1,1-13.94,13.93A13.93,13.93,0,0,1,308.51,334.24Z"/><circle class="cls-93" cx="308.51" cy="348.18" r="13.93"/><path class="cls-94" d="M308.52,334.26a13.93,13.93,0,1,1-13.93,13.93A13.93,13.93,0,0,1,308.52,334.26Z"/><path class="cls-95" d="M308.53,334.27A13.93,13.93,0,1,1,294.6,348.2,13.93,13.93,0,0,1,308.53,334.27Z"/><path class="cls-96" d="M308.54,334.28a13.93,13.93,0,1,1-13.93,13.93A13.93,13.93,0,0,1,308.54,334.28Z"/><path class="cls-97" d="M308.54,334.29a13.93,13.93,0,1,1-13.92,13.93A13.93,13.93,0,0,1,308.54,334.29Z"/><path class="cls-98" d="M308.55,334.3a13.93,13.93,0,1,1-13.93,13.93A13.93,13.93,0,0,1,308.55,334.3Z"/><path class="cls-99" d="M308.56,334.31a13.93,13.93,0,1,1-13.93,13.93A13.93,13.93,0,0,1,308.56,334.31Z"/><path class="cls-100" d="M308.57,334.32a13.93,13.93,0,1,1-13.93,13.92A13.92,13.92,0,0,1,308.57,334.32Z"/><path class="cls-101" d="M308.57,334.33a13.93,13.93,0,1,1-13.92,13.92A13.93,13.93,0,0,1,308.57,334.33Z"/><path class="cls-102" d="M308.58,334.34a13.92,13.92,0,1,1-13.92,13.92A13.92,13.92,0,0,1,308.58,334.34Z"/><path class="cls-103" d="M308.59,334.35a13.92,13.92,0,1,1-13.92,13.92A13.92,13.92,0,0,1,308.59,334.35Z"/><path class="cls-104" d="M308.6,334.36a13.92,13.92,0,1,1-13.92,13.92A13.92,13.92,0,0,1,308.6,334.36Z"/><path class="cls-105" d="M308.6,334.37a13.92,13.92,0,1,1-13.91,13.92A13.92,13.92,0,0,1,308.6,334.37Z"/><path class="cls-106" d="M308.61,334.38A13.92,13.92,0,1,1,294.7,348.3,13.92,13.92,0,0,1,308.61,334.38Z"/><path class="cls-107" d="M308.62,334.39a13.92,13.92,0,1,1-13.91,13.92A13.92,13.92,0,0,1,308.62,334.39Z"/><circle class="cls-108" cx="308.63" cy="348.31" r="13.91" transform="translate(-104.38 562.79) rotate(-75.9)"/><path class="cls-109" d="M308.63,334.41a13.91,13.91,0,1,1-13.91,13.91A13.91,13.91,0,0,1,308.63,334.41Z"/><path class="cls-110" d="M308.64,334.42a13.91,13.91,0,1,1-13.91,13.91A13.91,13.91,0,0,1,308.64,334.42Z"/><path class="cls-111" d="M308.65,334.43a13.91,13.91,0,1,1-13.91,13.91A13.91,13.91,0,0,1,308.65,334.43Z"/><path class="cls-112" d="M308.66,334.44a13.91,13.91,0,1,1-13.91,13.91A13.9,13.9,0,0,1,308.66,334.44Z"/><path class="cls-113" d="M308.66,334.45a13.91,13.91,0,1,1-13.9,13.91A13.91,13.91,0,0,1,308.66,334.45Z"/><path class="cls-114" d="M308.67,334.46a13.91,13.91,0,1,1-13.9,13.91A13.91,13.91,0,0,1,308.67,334.46Z"/><path class="cls-115" d="M308.68,334.47a13.91,13.91,0,1,1-13.9,13.91A13.9,13.9,0,0,1,308.68,334.47Z"/><path class="cls-116" d="M308.69,334.48a13.91,13.91,0,1,1-13.9,13.9A13.9,13.9,0,0,1,308.69,334.48Z"/><path class="cls-117" d="M308.7,334.49a13.9,13.9,0,1,1-13.9,13.9A13.91,13.91,0,0,1,308.7,334.49Z"/><path class="cls-118" d="M308.7,334.5a13.9,13.9,0,1,1-13.9,13.9A13.9,13.9,0,0,1,308.7,334.5Z"/><path class="cls-119" d="M308.71,334.51a13.9,13.9,0,1,1-13.9,13.9A13.9,13.9,0,0,1,308.71,334.51Z"/><path class="cls-120" d="M308.72,334.52a13.9,13.9,0,1,1-13.9,13.9A13.91,13.91,0,0,1,308.72,334.52Z"/><path class="cls-121" d="M308.73,334.53a13.9,13.9,0,1,1-13.9,13.9A13.9,13.9,0,0,1,308.73,334.53Z"/><path class="cls-122" d="M308.73,334.54a13.9,13.9,0,1,1-13.89,13.9A13.9,13.9,0,0,1,308.73,334.54Z"/><path class="cls-123" d="M308.74,334.55a13.9,13.9,0,1,1-13.89,13.9A13.89,13.89,0,0,1,308.74,334.55Z"/><path class="cls-124" d="M308.75,334.56a13.9,13.9,0,1,1-13.89,13.89A13.89,13.89,0,0,1,308.75,334.56Z"/><path class="cls-125" d="M308.76,334.58a13.89,13.89,0,1,1-13.89,13.88A13.88,13.88,0,0,1,308.76,334.58Z"/><path class="cls-126" d="M308.76,334.59a13.89,13.89,0,1,1-13.88,13.88A13.88,13.88,0,0,1,308.76,334.59Z"/><path class="cls-127" d="M308.77,334.6a13.89,13.89,0,1,1-13.88,13.88A13.88,13.88,0,0,1,308.77,334.6Z"/><path class="cls-128" d="M308.78,334.61a13.89,13.89,0,1,1-13.89,13.88A13.87,13.87,0,0,1,308.78,334.61Z"/><path class="cls-129" d="M308.79,334.62A13.88,13.88,0,1,1,294.9,348.5,13.88,13.88,0,0,1,308.79,334.62Z"/><path class="cls-130" d="M308.79,334.63a13.88,13.88,0,1,1-13.88,13.88A13.88,13.88,0,0,1,308.79,334.63Z"/><path class="cls-131" d="M308.8,334.64a13.88,13.88,0,1,1-13.88,13.88A13.87,13.87,0,0,1,308.8,334.64Z"/><path class="cls-132" d="M308.81,334.65a13.88,13.88,0,1,1-13.88,13.87A13.88,13.88,0,0,1,308.81,334.65Z"/><path class="cls-133" d="M308.82,334.66a13.88,13.88,0,1,1-13.88,13.87A13.88,13.88,0,0,1,308.82,334.66Z"/><path class="cls-134" d="M308.82,334.67A13.88,13.88,0,1,1,295,348.54,13.87,13.87,0,0,1,308.82,334.67Z"/><path class="cls-135" d="M308.83,334.68A13.88,13.88,0,1,1,295,348.55,13.87,13.87,0,0,1,308.83,334.68Z"/><path class="cls-136" d="M308.84,334.69A13.88,13.88,0,1,1,295,348.56,13.87,13.87,0,0,1,308.84,334.69Z"/><path class="cls-137" d="M308.85,334.7A13.87,13.87,0,1,1,295,348.57,13.87,13.87,0,0,1,308.85,334.7Z"/><path class="cls-138" d="M308.86,334.71A13.87,13.87,0,1,1,295,348.58,13.87,13.87,0,0,1,308.86,334.71Z"/><path class="cls-139" d="M308.86,334.72A13.87,13.87,0,1,1,295,348.59,13.87,13.87,0,0,1,308.86,334.72Z"/><path class="cls-140" d="M308.87,334.73A13.87,13.87,0,1,1,295,348.6,13.87,13.87,0,0,1,308.87,334.73Z"/><path class="cls-141" d="M308.88,334.74A13.87,13.87,0,1,1,295,348.6,13.87,13.87,0,0,1,308.88,334.74Z"/><path class="cls-142" d="M308.88,334.75A13.87,13.87,0,1,1,295,348.61,13.87,13.87,0,0,1,308.88,334.75Z"/><path class="cls-143" d="M308.89,334.76A13.87,13.87,0,1,1,295,348.62,13.87,13.87,0,0,1,308.89,334.76Z"/><path class="cls-144" d="M308.9,334.77A13.86,13.86,0,1,1,295,348.63,13.85,13.85,0,0,1,308.9,334.77Z"/><path class="cls-145" d="M308.91,334.78a13.86,13.86,0,1,1-13.86,13.86A13.86,13.86,0,0,1,308.91,334.78Z"/><path class="cls-146" d="M308.92,334.79a13.86,13.86,0,1,1-13.86,13.86A13.86,13.86,0,0,1,308.92,334.79Z"/><path class="cls-147" d="M308.92,334.8a13.86,13.86,0,1,1-13.86,13.86A13.85,13.85,0,0,1,308.92,334.8Z"/><path class="cls-148" d="M308.93,334.81a13.86,13.86,0,1,1-13.86,13.86A13.86,13.86,0,0,1,308.93,334.81Z"/><path class="cls-149" d="M308.94,334.82a13.86,13.86,0,1,1-13.86,13.85A13.85,13.85,0,0,1,308.94,334.82Z"/><path class="cls-150" d="M309,334.83a13.86,13.86,0,1,1-13.86,13.85A13.85,13.85,0,0,1,309,334.83Z"/><path class="cls-151" d="M309,334.84a13.86,13.86,0,1,1-13.85,13.85A13.85,13.85,0,0,1,309,334.84Z"/><path class="cls-152" d="M309,334.85a13.85,13.85,0,1,1-13.85,13.85A13.85,13.85,0,0,1,309,334.85Z"/><path class="cls-153" d="M309,334.86a13.85,13.85,0,1,1-13.85,13.85A13.85,13.85,0,0,1,309,334.86Z"/><path class="cls-154" d="M309,334.87a13.85,13.85,0,1,1-13.85,13.85A13.86,13.86,0,0,1,309,334.87Z"/><path class="cls-155" d="M309,334.88a13.85,13.85,0,1,1-13.84,13.85A13.85,13.85,0,0,1,309,334.88Z"/><path class="cls-156" d="M309,334.89a13.85,13.85,0,1,1-13.84,13.85A13.85,13.85,0,0,1,309,334.89Z"/><path class="cls-157" d="M309,334.9a13.85,13.85,0,1,1-13.85,13.84A13.85,13.85,0,0,1,309,334.9Z"/><path class="cls-158" d="M309,334.91a13.85,13.85,0,1,1-13.85,13.84A13.84,13.84,0,0,1,309,334.91Z"/><path class="cls-159" d="M309,334.92a13.84,13.84,0,1,1-13.84,13.84A13.85,13.85,0,0,1,309,334.92Z"/><path class="cls-160" d="M309,334.93a13.84,13.84,0,1,1-13.84,13.84A13.84,13.84,0,0,1,309,334.93Z"/><path class="cls-161" d="M309,334.94a13.84,13.84,0,1,1-13.84,13.84A13.84,13.84,0,0,1,309,334.94Z"/><path class="cls-162" d="M309,335a13.84,13.84,0,1,1-13.84,13.84A13.84,13.84,0,0,1,309,335Z"/><path class="cls-163" d="M309,335a13.84,13.84,0,1,1-13.83,13.84A13.84,13.84,0,0,1,309,335Z"/><path class="cls-164" d="M309.05,335a13.84,13.84,0,1,1-13.83,13.84A13.84,13.84,0,0,1,309.05,335Z"/><path class="cls-165" d="M309.06,335a13.84,13.84,0,1,1-13.83,13.83A13.83,13.83,0,0,1,309.06,335Z"/><path class="cls-166" d="M309.07,335a13.84,13.84,0,1,1-13.83,13.83A13.83,13.83,0,0,1,309.07,335Z"/><path class="cls-167" d="M309.08,335a13.83,13.83,0,1,1-13.84,13.83A13.83,13.83,0,0,1,309.08,335Z"/><path class="cls-168" d="M309.08,335a13.83,13.83,0,1,1-13.83,13.83A13.83,13.83,0,0,1,309.08,335Z"/><path class="cls-169" d="M309.09,335a13.83,13.83,0,1,1-13.83,13.83A13.83,13.83,0,0,1,309.09,335Z"/><path class="cls-170" d="M309.1,335a13.83,13.83,0,1,1-13.83,13.83A13.83,13.83,0,0,1,309.1,335Z"/><path class="cls-171" d="M309.11,335a13.83,13.83,0,1,1-13.83,13.83A13.83,13.83,0,0,1,309.11,335Z"/><path class="cls-172" d="M309.11,335.05a13.83,13.83,0,1,1-13.82,13.83A13.83,13.83,0,0,1,309.11,335.05Z"/><path class="cls-173" d="M309.12,335.06a13.83,13.83,0,1,1-13.82,13.82A13.83,13.83,0,0,1,309.12,335.06Z"/><path class="cls-174" d="M309.13,335.07a13.83,13.83,0,1,1-13.82,13.82A13.82,13.82,0,0,1,309.13,335.07Z"/><path class="cls-175" d="M309.14,335.08a13.82,13.82,0,1,1-13.82,13.82A13.82,13.82,0,0,1,309.14,335.08Z"/><path class="cls-176" d="M309.14,335.09a13.82,13.82,0,1,1-13.81,13.82A13.82,13.82,0,0,1,309.14,335.09Z"/><path class="cls-177" d="M309.15,335.1a13.82,13.82,0,1,1-13.82,13.82A13.82,13.82,0,0,1,309.15,335.1Z"/><path class="cls-178" d="M309.16,335.11a13.82,13.82,0,1,1-13.82,13.82A13.82,13.82,0,0,1,309.16,335.11Z"/><path class="cls-179" d="M309.17,335.12a13.82,13.82,0,1,1-13.82,13.82A13.81,13.81,0,0,1,309.17,335.12Z"/><path class="cls-180" d="M309.17,335.13A13.82,13.82,0,1,1,295.36,349,13.82,13.82,0,0,1,309.17,335.13Z"/><path class="cls-181" d="M309.18,335.14A13.82,13.82,0,1,1,295.37,349,13.82,13.82,0,0,1,309.18,335.14Z"/><path class="cls-182" d="M309.19,335.15A13.82,13.82,0,1,1,295.38,349,13.81,13.81,0,0,1,309.19,335.15Z"/><path class="cls-183" d="M309.2,335.16A13.81,13.81,0,1,1,295.39,349,13.82,13.82,0,0,1,309.2,335.16Z"/><path class="cls-184" d="M309.21,335.17A13.81,13.81,0,1,1,295.4,349,13.81,13.81,0,0,1,309.21,335.17Z"/><path class="cls-185" d="M309.21,335.18A13.81,13.81,0,1,1,295.41,349,13.81,13.81,0,0,1,309.21,335.18Z"/><path class="cls-186" d="M309.22,335.19A13.81,13.81,0,1,1,295.41,349,13.82,13.82,0,0,1,309.22,335.19Z"/><path class="cls-187" d="M309.23,335.2A13.81,13.81,0,1,1,295.42,349,13.8,13.8,0,0,1,309.23,335.2Z"/><path class="cls-188" d="M309.24,335.21A13.81,13.81,0,1,1,295.43,349,13.8,13.8,0,0,1,309.24,335.21Z"/><path class="cls-189" d="M309.24,335.22a13.81,13.81,0,1,1-13.8,13.8A13.8,13.8,0,0,1,309.24,335.22Z"/><path class="cls-190" d="M309.25,335.23a13.81,13.81,0,1,1-13.8,13.8A13.8,13.8,0,0,1,309.25,335.23Z"/><path class="cls-191" d="M309.26,335.24a13.8,13.8,0,1,1-13.8,13.8A13.8,13.8,0,0,1,309.26,335.24Z"/><path class="cls-192" d="M309.27,335.25a13.8,13.8,0,1,1-13.8,13.8A13.79,13.79,0,0,1,309.27,335.25Z"/><path class="cls-193" d="M309.27,335.27a13.8,13.8,0,1,1-13.79,13.79A13.79,13.79,0,0,1,309.27,335.27Z"/><path class="cls-194" d="M309.28,335.28a13.79,13.79,0,1,1-13.79,13.79A13.79,13.79,0,0,1,309.28,335.28Z"/><path class="cls-195" d="M309.29,335.29a13.79,13.79,0,1,1-13.79,13.79A13.78,13.78,0,0,1,309.29,335.29Z"/><path class="cls-196" d="M309.3,335.3a13.79,13.79,0,1,1-13.8,13.79A13.79,13.79,0,0,1,309.3,335.3Z"/><path class="cls-197" d="M309.3,335.31a13.79,13.79,0,1,1-13.79,13.79A13.78,13.78,0,0,1,309.3,335.31Z"/><path class="cls-198" d="M309.31,335.32a13.79,13.79,0,1,1-13.79,13.78A13.78,13.78,0,0,1,309.31,335.32Z"/><path class="cls-199" d="M309.32,335.33a13.79,13.79,0,1,1-13.79,13.78A13.79,13.79,0,0,1,309.32,335.33Z"/><path class="cls-200" d="M309.33,335.34a13.79,13.79,0,1,1-13.79,13.78A13.78,13.78,0,0,1,309.33,335.34Z"/><path class="cls-201" d="M309.33,335.35a13.79,13.79,0,1,1-13.78,13.78A13.78,13.78,0,0,1,309.33,335.35Z"/><path class="cls-202" d="M309.34,335.36a13.78,13.78,0,1,1-13.78,13.78A13.78,13.78,0,0,1,309.34,335.36Z"/><path class="cls-203" d="M309.35,335.37a13.78,13.78,0,1,1-13.78,13.78A13.78,13.78,0,0,1,309.35,335.37Z"/><path class="cls-204" d="M309.36,335.38a13.78,13.78,0,1,1-13.78,13.78A13.78,13.78,0,0,1,309.36,335.38Z"/><path class="cls-205" d="M309.37,335.39a13.78,13.78,0,1,1-13.78,13.77A13.77,13.77,0,0,1,309.37,335.39Z"/><path class="cls-206" d="M309.37,335.4a13.78,13.78,0,1,1-13.78,13.77A13.78,13.78,0,0,1,309.37,335.4Z"/><path class="cls-207" d="M309.38,335.41a13.78,13.78,0,1,1-13.78,13.77A13.77,13.77,0,0,1,309.38,335.41Z"/><path class="cls-208" d="M309.39,335.42a13.78,13.78,0,1,1-13.78,13.77A13.76,13.76,0,0,1,309.39,335.42Z"/><path class="cls-209" d="M309.39,335.43a13.78,13.78,0,1,1-13.77,13.77A13.77,13.77,0,0,1,309.39,335.43Z"/><path class="cls-210" d="M309.4,335.44a13.77,13.77,0,1,1-13.77,13.77A13.77,13.77,0,0,1,309.4,335.44Z"/><path class="cls-211" d="M323.18,349.22a13.77,13.77,0,1,1-13.77-13.77A13.77,13.77,0,0,1,323.18,349.22Z"/><path class="cls-212" d="M309.42,335.46a13.77,13.77,0,1,1-13.77,13.77A13.77,13.77,0,0,1,309.42,335.46Z"/><path class="cls-213" d="M309.42,335.46a13.78,13.78,0,1,1-13.77,13.77A13.78,13.78,0,0,1,309.42,335.46Z"/><path class="cls-214" d="M309.43,335.47a13.77,13.77,0,1,1-13.77,13.77A13.77,13.77,0,0,1,309.43,335.47Z"/><path class="cls-215" d="M309.44,335.48a13.77,13.77,0,1,1-13.77,13.77A13.77,13.77,0,0,1,309.44,335.48Z"/><path class="cls-216" d="M309.44,335.49a13.77,13.77,0,1,1-13.77,13.77A13.76,13.76,0,0,1,309.44,335.49Z"/><path class="cls-217" d="M309.45,335.5a13.77,13.77,0,1,1-13.77,13.77A13.76,13.76,0,0,1,309.45,335.5Z"/><path class="cls-218" d="M309.46,335.5a13.78,13.78,0,1,1-13.77,13.77A13.78,13.78,0,0,1,309.46,335.5Z"/><path class="cls-219" d="M309.46,335.51a13.77,13.77,0,1,1-13.77,13.77A13.77,13.77,0,0,1,309.46,335.51Z"/><path class="cls-220" d="M309.47,335.52a13.77,13.77,0,1,1-13.77,13.77A13.76,13.76,0,0,1,309.47,335.52Z"/><path class="cls-221" d="M309.48,335.53a13.77,13.77,0,1,1-13.77,13.77A13.77,13.77,0,0,1,309.48,335.53Z"/><path class="cls-222" d="M309.48,335.54a13.77,13.77,0,1,1-13.77,13.76A13.76,13.76,0,0,1,309.48,335.54Z"/><path class="cls-223" d="M309.49,335.54a13.78,13.78,0,1,1-13.77,13.77A13.77,13.77,0,0,1,309.49,335.54Z"/><path class="cls-224" d="M309.5,335.55a13.77,13.77,0,1,1-13.77,13.77A13.78,13.78,0,0,1,309.5,335.55Z"/><path class="cls-225" d="M309.5,335.56a13.77,13.77,0,1,1-13.77,13.77A13.76,13.76,0,0,1,309.5,335.56Z"/><path class="cls-226" d="M309.51,335.57a13.77,13.77,0,1,1-13.77,13.77A13.76,13.76,0,0,1,309.51,335.57Z"/><path class="cls-227" d="M309.52,335.57a13.78,13.78,0,1,1-13.78,13.77A13.78,13.78,0,0,1,309.52,335.57Z"/><path class="cls-228" d="M309.52,335.58a13.77,13.77,0,1,1-13.77,13.77A13.77,13.77,0,0,1,309.52,335.58Z"/><path class="cls-229" d="M309.53,335.59a13.77,13.77,0,1,1-13.77,13.77A13.78,13.78,0,0,1,309.53,335.59Z"/><path class="cls-230" d="M309.54,335.6a13.77,13.77,0,1,1-13.78,13.77A13.77,13.77,0,0,1,309.54,335.6Z"/><path class="cls-231" d="M309.54,335.61a13.77,13.77,0,1,1-13.77,13.77A13.76,13.76,0,0,1,309.54,335.61Z"/><path class="cls-232" d="M309.55,335.61a13.78,13.78,0,1,1-13.77,13.77A13.78,13.78,0,0,1,309.55,335.61Z"/><path class="cls-233" d="M309.55,335.62a13.77,13.77,0,1,1-13.77,13.77A13.78,13.78,0,0,1,309.55,335.62Z"/><path class="cls-234" d="M309.56,335.63a13.77,13.77,0,1,1-13.77,13.77A13.76,13.76,0,0,1,309.56,335.63Z"/><path class="cls-235" d="M309.57,335.64a13.77,13.77,0,1,1-13.77,13.77A13.77,13.77,0,0,1,309.57,335.64Z"/><path class="cls-236" d="M309.57,335.65a13.77,13.77,0,1,1-13.77,13.77A13.77,13.77,0,0,1,309.57,335.65Z"/><path class="cls-237" d="M309.58,335.65a13.78,13.78,0,1,1-13.77,13.77A13.77,13.77,0,0,1,309.58,335.65Z"/><path class="cls-238" d="M309.59,335.66a13.77,13.77,0,1,1-13.77,13.77A13.78,13.78,0,0,1,309.59,335.66Z"/><path class="cls-239" d="M309.59,335.67a13.77,13.77,0,1,1-13.77,13.77A13.77,13.77,0,0,1,309.59,335.67Z"/><path class="cls-240" d="M309.6,335.68a13.77,13.77,0,1,1-13.77,13.77A13.76,13.76,0,0,1,309.6,335.68Z"/><path class="cls-241" d="M309.61,335.69a13.77,13.77,0,1,1-13.77,13.77A13.77,13.77,0,0,1,309.61,335.69Z"/><path class="cls-242" d="M309.61,335.69a13.78,13.78,0,1,1-13.77,13.77A13.78,13.78,0,0,1,309.61,335.69Z"/><path class="cls-243" d="M309.62,335.7a13.77,13.77,0,1,1-13.77,13.77A13.77,13.77,0,0,1,309.62,335.7Z"/><path class="cls-244" d="M309.63,335.71a13.77,13.77,0,1,1-13.77,13.77A13.77,13.77,0,0,1,309.63,335.71Z"/><path class="cls-245" d="M309.63,335.72a13.77,13.77,0,1,1-13.77,13.77A13.77,13.77,0,0,1,309.63,335.72Z"/><path class="cls-246" d="M309.64,335.73a13.77,13.77,0,1,1-13.77,13.77A13.76,13.76,0,0,1,309.64,335.73Z"/><path class="cls-247" d="M309.65,335.73a13.78,13.78,0,1,1-13.77,13.77A13.78,13.78,0,0,1,309.65,335.73Z"/><path class="cls-248" d="M309.65,335.74a13.77,13.77,0,1,1-13.77,13.77A13.78,13.78,0,0,1,309.65,335.74Z"/><path class="cls-249" d="M309.66,335.75a13.77,13.77,0,1,1-13.77,13.77A13.76,13.76,0,0,1,309.66,335.75Z"/><path class="cls-250" d="M309.67,335.76a13.77,13.77,0,1,1-13.77,13.77A13.77,13.77,0,0,1,309.67,335.76Z"/><path class="cls-251" d="M309.67,335.76a13.78,13.78,0,1,1-13.77,13.78A13.78,13.78,0,0,1,309.67,335.76Z"/><path class="cls-252" d="M309.68,335.77a13.77,13.77,0,1,1-13.77,13.77A13.77,13.77,0,0,1,309.68,335.77Z"/><path class="cls-253" d="M309.69,335.78a13.77,13.77,0,1,1-13.77,13.77A13.78,13.78,0,0,1,309.69,335.78Z"/><path class="cls-254" d="M309.69,335.79a13.77,13.77,0,1,1-13.77,13.77A13.76,13.76,0,0,1,309.69,335.79Z"/><path class="cls-255" d="M309.7,335.8a13.77,13.77,0,1,1-13.77,13.77A13.76,13.76,0,0,1,309.7,335.8Z"/><path class="cls-256" d="M309.71,335.8a13.78,13.78,0,1,1-13.77,13.77A13.78,13.78,0,0,1,309.71,335.8Z"/><path class="cls-257" d="M309.71,335.81a13.77,13.77,0,1,1-13.77,13.77A13.77,13.77,0,0,1,309.71,335.81Z"/><path class="cls-258" d="M309.72,335.82A13.77,13.77,0,1,1,296,349.59,13.77,13.77,0,0,1,309.72,335.82Z"/><path class="cls-259" d="M309.73,335.83A13.77,13.77,0,1,1,296,349.6,13.77,13.77,0,0,1,309.73,335.83Z"/><path class="cls-260" d="M309.73,335.84A13.77,13.77,0,1,1,296,349.61,13.76,13.76,0,0,1,309.73,335.84Z"/><path class="cls-261" d="M309.74,335.84A13.78,13.78,0,1,1,296,349.61,13.77,13.77,0,0,1,309.74,335.84Z"/><path class="cls-262" d="M309.75,335.85A13.77,13.77,0,1,1,296,349.62,13.78,13.78,0,0,1,309.75,335.85Z"/><path class="cls-263" d="M309.75,335.86A13.77,13.77,0,1,1,296,349.63,13.76,13.76,0,0,1,309.75,335.86Z"/><path class="cls-264" d="M309.76,335.87A13.77,13.77,0,1,1,296,349.64,13.76,13.76,0,0,1,309.76,335.87Z"/><path class="cls-265" d="M309.77,335.88A13.77,13.77,0,1,1,296,349.65,13.77,13.77,0,0,1,309.77,335.88Z"/><path class="cls-266" d="M309.77,335.88A13.78,13.78,0,1,1,296,349.65,13.77,13.77,0,0,1,309.77,335.88Z"/><path class="cls-267" d="M309.78,335.89A13.77,13.77,0,1,1,296,349.66,13.78,13.78,0,0,1,309.78,335.89Z"/><path class="cls-268" d="M309.79,335.9A13.77,13.77,0,1,1,296,349.67,13.77,13.77,0,0,1,309.79,335.9Z"/><path class="cls-269" d="M309.79,335.91A13.77,13.77,0,1,1,296,349.68,13.76,13.76,0,0,1,309.79,335.91Z"/><path class="cls-270" d="M309.8,335.92A13.77,13.77,0,1,1,296,349.69,13.77,13.77,0,0,1,309.8,335.92Z"/><path class="cls-271" d="M309.8,335.92A13.78,13.78,0,1,1,296,349.69,13.78,13.78,0,0,1,309.8,335.92Z"/><path class="cls-272" d="M309.81,335.93A13.77,13.77,0,1,1,296,349.7,13.77,13.77,0,0,1,309.81,335.93Z"/><path class="cls-273" d="M309.82,335.94a13.77,13.77,0,1,1-13.77,13.77A13.77,13.77,0,0,1,309.82,335.94Z"/><path class="cls-274" d="M309.82,336a13.77,13.77,0,1,1-13.77,13.77A13.77,13.77,0,0,1,309.82,336Z"/><path class="cls-275" d="M309.83,336a13.78,13.78,0,1,1-13.77,13.78A13.77,13.77,0,0,1,309.83,336Z"/><path class="cls-276" d="M309.84,336a13.78,13.78,0,1,1-13.77,13.77A13.78,13.78,0,0,1,309.84,336Z"/><path class="cls-277" d="M309.84,336a13.77,13.77,0,1,1-13.77,13.77A13.78,13.78,0,0,1,309.84,336Z"/><path class="cls-278" d="M309.85,336a13.77,13.77,0,1,1-13.77,13.77A13.76,13.76,0,0,1,309.85,336Z"/><path class="cls-279" d="M309.86,336a13.77,13.77,0,1,1-13.77,13.77A13.77,13.77,0,0,1,309.86,336Z"/><path class="cls-280" d="M309.86,336a13.78,13.78,0,1,1-13.77,13.78A13.77,13.77,0,0,1,309.86,336Z"/><path class="cls-281" d="M309.87,336a13.77,13.77,0,1,1-13.77,13.77A13.77,13.77,0,0,1,309.87,336Z"/><path class="cls-282" d="M309.88,336a13.77,13.77,0,1,1-13.77,13.77A13.78,13.78,0,0,1,309.88,336Z"/><path class="cls-283" d="M309.88,336a13.77,13.77,0,1,1-13.77,13.77A13.76,13.76,0,0,1,309.88,336Z"/><path class="cls-284" d="M309.89,336a13.77,13.77,0,1,1-13.77,13.77A13.76,13.76,0,0,1,309.89,336Z"/><path class="cls-285" d="M309.9,336a13.78,13.78,0,1,1-13.77,13.77A13.78,13.78,0,0,1,309.9,336Z"/><path class="cls-286" d="M309.9,336a13.77,13.77,0,1,1-13.77,13.77A13.78,13.78,0,0,1,309.9,336Z"/><path class="cls-287" d="M309.91,336.05a13.77,13.77,0,1,1-13.77,13.77A13.77,13.77,0,0,1,309.91,336.05Z"/><path class="cls-288" d="M309.92,336.06a13.77,13.77,0,1,1-13.77,13.77A13.77,13.77,0,0,1,309.92,336.06Z"/><path class="cls-289" d="M309.92,336.07a13.77,13.77,0,1,1-13.77,13.77A13.77,13.77,0,0,1,309.92,336.07Z"/><path class="cls-290" d="M309.93,336.07a13.78,13.78,0,1,1-13.77,13.77A13.77,13.77,0,0,1,309.93,336.07Z"/><path class="cls-291" d="M309.94,336.08a13.77,13.77,0,1,1-13.78,13.77A13.78,13.78,0,0,1,309.94,336.08Z"/><path class="cls-292" d="M309.94,336.09a13.77,13.77,0,1,1-13.77,13.77A13.77,13.77,0,0,1,309.94,336.09Z"/><path class="cls-293" d="M310,336.1a13.77,13.77,0,1,1-13.77,13.77A13.76,13.76,0,0,1,310,336.1Z"/><path class="cls-294" d="M310,336.11a13.77,13.77,0,1,1-13.77,13.77A13.77,13.77,0,0,1,310,336.11Z"/><path class="cls-295" d="M310,336.11a13.78,13.78,0,1,1-13.77,13.77A13.77,13.77,0,0,1,310,336.11Z"/><path class="cls-296" d="M310,336.12a13.77,13.77,0,1,1-13.77,13.77A13.77,13.77,0,0,1,310,336.12Z"/><path class="cls-297" d="M310,336.13a13.77,13.77,0,1,1-13.77,13.77A13.77,13.77,0,0,1,310,336.13Z"/><path class="cls-298" d="M310,336.14a13.77,13.77,0,1,1-13.77,13.77A13.76,13.76,0,0,1,310,336.14Z"/><path class="cls-299" d="M310,336.15a13.77,13.77,0,1,1-13.77,13.77A13.76,13.76,0,0,1,310,336.15Z"/><path class="cls-300" d="M310,336.15a13.78,13.78,0,1,1-13.78,13.77A13.78,13.78,0,0,1,310,336.15Z"/><path class="cls-301" d="M310,336.16a13.77,13.77,0,1,1-13.77,13.77A13.77,13.77,0,0,1,310,336.16Z"/><path class="cls-302" d="M310,336.17a13.77,13.77,0,1,1-13.77,13.77A13.76,13.76,0,0,1,310,336.17Z"/><path class="cls-303" d="M310,336.18A13.77,13.77,0,1,1,296.24,350,13.77,13.77,0,0,1,310,336.18Z"/><path class="cls-304" d="M310,336.19A13.77,13.77,0,1,1,296.25,350,13.76,13.76,0,0,1,310,336.19Z"/><path class="cls-305" d="M310,336.19A13.78,13.78,0,1,1,296.26,350,13.78,13.78,0,0,1,310,336.19Z"/><path class="cls-306" d="M310,336.2A13.77,13.77,0,1,1,296.26,350,13.78,13.78,0,0,1,310,336.2Z"/><path class="cls-307" d="M310,336.21A13.77,13.77,0,1,1,296.27,350,13.76,13.76,0,0,1,310,336.21Z"/><path class="cls-308" d="M310.05,336.22A13.77,13.77,0,1,1,296.28,350,13.77,13.77,0,0,1,310.05,336.22Z"/><path class="cls-309" d="M310.05,336.23A13.77,13.77,0,1,1,296.28,350,13.77,13.77,0,0,1,310.05,336.23Z"/><path class="cls-310" d="M310.06,336.23A13.77,13.77,0,1,1,296.29,350,13.77,13.77,0,0,1,310.06,336.23Z"/><path class="cls-311" d="M310.07,336.24A13.77,13.77,0,1,1,296.3,350,13.78,13.78,0,0,1,310.07,336.24Z"/><path class="cls-312" d="M310.07,336.25A13.77,13.77,0,1,1,296.3,350,13.77,13.77,0,0,1,310.07,336.25Z"/><path class="cls-313" d="M310.08,336.26A13.77,13.77,0,1,1,296.31,350,13.76,13.76,0,0,1,310.08,336.26Z"/><path class="cls-314" d="M310.09,336.26A13.78,13.78,0,1,1,296.32,350,13.78,13.78,0,0,1,310.09,336.26Z"/><path class="cls-315" d="M310.09,336.27A13.77,13.77,0,1,1,296.32,350,13.78,13.78,0,0,1,310.09,336.27Z"/><path class="cls-316" d="M310.1,336.28a13.77,13.77,0,1,1-13.77,13.77A13.77,13.77,0,0,1,310.1,336.28Z"/><path class="cls-317" d="M310.11,336.29a13.77,13.77,0,1,1-13.77,13.77A13.77,13.77,0,0,1,310.11,336.29Z"/><path class="cls-318" d="M310.11,336.3a13.77,13.77,0,1,1-13.77,13.77A13.76,13.76,0,0,1,310.11,336.3Z"/><path class="cls-319" d="M310.12,336.3a13.78,13.78,0,1,1-13.77,13.77A13.77,13.77,0,0,1,310.12,336.3Z"/><path class="cls-320" d="M310.13,336.31a13.77,13.77,0,1,1-13.77,13.77A13.78,13.78,0,0,1,310.13,336.31Z"/><path class="cls-321" d="M310.13,336.32a13.77,13.77,0,1,1-13.77,13.77A13.76,13.76,0,0,1,310.13,336.32Z"/><path class="cls-322" d="M310.14,336.33a13.77,13.77,0,1,1-13.77,13.77A13.76,13.76,0,0,1,310.14,336.33Z"/><path class="cls-323" d="M310.15,336.34a13.77,13.77,0,1,1-13.77,13.77A13.77,13.77,0,0,1,310.15,336.34Z"/><path class="cls-324" d="M310.15,336.34a13.78,13.78,0,1,1-13.77,13.77A13.77,13.77,0,0,1,310.15,336.34Z"/><path class="cls-325" d="M310.16,336.35a13.77,13.77,0,1,1-13.77,13.77A13.77,13.77,0,0,1,310.16,336.35Z"/><path class="cls-326" d="M310.17,336.36a13.77,13.77,0,1,1-13.77,13.77A13.77,13.77,0,0,1,310.17,336.36Z"/><path class="cls-327" d="M310.17,336.37a13.77,13.77,0,1,1-13.77,13.77A13.77,13.77,0,0,1,310.17,336.37Z"/><path class="cls-328" d="M310.18,336.38a13.77,13.77,0,1,1-13.77,13.77A13.76,13.76,0,0,1,310.18,336.38Z"/><path class="cls-329" d="M310.19,336.38a13.78,13.78,0,1,1-13.77,13.77A13.78,13.78,0,0,1,310.19,336.38Z"/><path class="cls-330" d="M310.19,336.39a13.77,13.77,0,1,1-13.77,13.77A13.77,13.77,0,0,1,310.19,336.39Z"/><path class="cls-331" d="M310.2,336.4a13.77,13.77,0,1,1-13.77,13.77A13.77,13.77,0,0,1,310.2,336.4Z"/><path class="cls-332" d="M310.21,336.41a13.77,13.77,0,1,1-13.77,13.77A13.77,13.77,0,0,1,310.21,336.41Z"/><path class="cls-333" d="M310.21,336.41a13.78,13.78,0,1,1-13.77,13.78A13.77,13.77,0,0,1,310.21,336.41Z"/><path class="cls-334" d="M310.22,336.42a13.77,13.77,0,1,1-13.77,13.77A13.77,13.77,0,0,1,310.22,336.42Z"/><path class="cls-335" d="M310.23,336.43a13.77,13.77,0,1,1-13.78,13.77A13.78,13.78,0,0,1,310.23,336.43Z"/><path class="cls-336" d="M310.23,336.44a13.77,13.77,0,1,1-13.77,13.77A13.76,13.76,0,0,1,310.23,336.44Z"/><path class="cls-337" d="M310.24,336.45a13.77,13.77,0,1,1-13.77,13.77A13.76,13.76,0,0,1,310.24,336.45Z"/><path class="cls-338" d="M310.25,336.45a13.78,13.78,0,1,1-13.78,13.78A13.78,13.78,0,0,1,310.25,336.45Z"/><path class="cls-339" d="M310.25,336.46a13.77,13.77,0,1,1-13.77,13.77A13.77,13.77,0,0,1,310.25,336.46Z"/><path class="cls-340" d="M310.26,336.47a13.77,13.77,0,1,1-13.77,13.77A13.77,13.77,0,0,1,310.26,336.47Z"/><path class="cls-341" d="M310.27,336.48a13.77,13.77,0,1,1-13.78,13.77A13.77,13.77,0,0,1,310.27,336.48Z"/><path class="cls-342" d="M310.27,336.49a13.77,13.77,0,1,1-13.77,13.77A13.76,13.76,0,0,1,310.27,336.49Z"/><path class="cls-343" d="M310.28,336.49a13.78,13.78,0,1,1-13.77,13.77A13.78,13.78,0,0,1,310.28,336.49Z"/><path class="cls-344" d="M310.29,336.5a13.77,13.77,0,1,1-13.78,13.77A13.78,13.78,0,0,1,310.29,336.5Z"/><path class="cls-345" d="M310.29,336.51a13.77,13.77,0,1,1-13.77,13.77A13.77,13.77,0,0,1,310.29,336.51Z"/><path class="cls-346" d="M310.3,336.52a13.77,13.77,0,1,1-13.77,13.77A13.77,13.77,0,0,1,310.3,336.52Z"/><path class="cls-347" d="M310.3,336.53a13.77,13.77,0,1,1-13.77,13.77A13.77,13.77,0,0,1,310.3,336.53Z"/><path class="cls-348" d="M310.31,336.53a13.78,13.78,0,1,1-13.77,13.77A13.77,13.77,0,0,1,310.31,336.53Z"/><path class="cls-349" d="M310.32,336.54a13.77,13.77,0,1,1-13.77,13.77A13.78,13.78,0,0,1,310.32,336.54Z"/><path class="cls-350" d="M310.32,336.55a13.77,13.77,0,1,1-13.77,13.77A13.77,13.77,0,0,1,310.32,336.55Z"/><path class="cls-351" d="M310.33,336.56a13.77,13.77,0,1,1-13.77,13.77A13.76,13.76,0,0,1,310.33,336.56Z"/><path class="cls-352" d="M310.34,336.56a13.78,13.78,0,1,1-13.77,13.78A13.78,13.78,0,0,1,310.34,336.56Z"/><path class="cls-353" d="M310.34,336.57a13.78,13.78,0,1,1-13.77,13.77A13.78,13.78,0,0,1,310.34,336.57Z"/><path class="cls-354" d="M310.35,336.58a13.77,13.77,0,1,1-13.77,13.77A13.77,13.77,0,0,1,310.35,336.58Z"/><path class="cls-355" d="M310.36,336.59a13.77,13.77,0,1,1-13.77,13.77A13.77,13.77,0,0,1,310.36,336.59Z"/><path class="cls-356" d="M310.36,336.6a13.77,13.77,0,1,1-13.77,13.77A13.76,13.76,0,0,1,310.36,336.6Z"/><path class="cls-357" d="M310.37,336.6a13.78,13.78,0,1,1-13.77,13.78A13.77,13.77,0,0,1,310.37,336.6Z"/><path class="cls-358" d="M310.38,336.61a13.78,13.78,0,1,1-13.77,13.77A13.78,13.78,0,0,1,310.38,336.61Z"/><path class="cls-359" d="M310.38,336.62a13.77,13.77,0,1,1-13.77,13.77A13.77,13.77,0,0,1,310.38,336.62Z"/><path class="cls-360" d="M310.39,336.63a13.77,13.77,0,1,1-13.77,13.77A13.76,13.76,0,0,1,310.39,336.63Z"/><path class="cls-361" d="M310.4,336.64a13.77,13.77,0,1,1-13.77,13.77A13.77,13.77,0,0,1,310.4,336.64Z"/><path class="cls-362" d="M310.4,336.64a13.78,13.78,0,1,1-13.77,13.77A13.77,13.77,0,0,1,310.4,336.64Z"/><path class="cls-363" d="M310.41,336.65a13.77,13.77,0,1,1-13.77,13.77A13.77,13.77,0,0,1,310.41,336.65Z"/><path class="cls-364" d="M310.42,336.66a13.77,13.77,0,1,1-13.77,13.77A13.78,13.78,0,0,1,310.42,336.66Z"/><path class="cls-365" d="M310.42,336.67a13.77,13.77,0,1,1-13.77,13.77A13.76,13.76,0,0,1,310.42,336.67Z"/><path class="cls-366" d="M310.43,336.68a13.77,13.77,0,1,1-13.77,13.77A13.76,13.76,0,0,1,310.43,336.68Z"/><path class="cls-367" d="M310.44,336.68a13.78,13.78,0,1,1-13.77,13.78A13.78,13.78,0,0,1,310.44,336.68Z"/><path class="cls-368" d="M310.44,336.69a13.77,13.77,0,1,1-13.77,13.77A13.77,13.77,0,0,1,310.44,336.69Z"/><path class="cls-369" d="M310.45,336.7a13.77,13.77,0,1,1-13.77,13.77A13.78,13.78,0,0,1,310.45,336.7Z"/><path class="cls-370" d="M310.46,336.71a13.77,13.77,0,1,1-13.78,13.77A13.77,13.77,0,0,1,310.46,336.71Z"/><path class="cls-371" d="M310.46,336.72a13.77,13.77,0,1,1-13.77,13.77A13.76,13.76,0,0,1,310.46,336.72Z"/><path class="cls-372" d="M310.47,336.72a13.78,13.78,0,1,1-13.77,13.77A13.77,13.77,0,0,1,310.47,336.72Z"/><path class="cls-373" d="M310.47,336.73A13.77,13.77,0,1,1,296.7,350.5,13.78,13.78,0,0,1,310.47,336.73Z"/><path class="cls-374" d="M310.48,336.74a13.77,13.77,0,1,1-13.77,13.77A13.76,13.76,0,0,1,310.48,336.74Z"/><path class="cls-375" d="M310.49,336.75a13.77,13.77,0,1,1-13.77,13.77A13.77,13.77,0,0,1,310.49,336.75Z"/><path class="cls-376" d="M310.49,336.76a13.77,13.77,0,1,1-13.77,13.77A13.77,13.77,0,0,1,310.49,336.76Z"/><path class="cls-377" d="M310.5,336.76a13.78,13.78,0,1,1-13.77,13.77A13.77,13.77,0,0,1,310.5,336.76Z"/><path class="cls-378" d="M310.51,336.77a13.77,13.77,0,1,1-13.77,13.77A13.78,13.78,0,0,1,310.51,336.77Z"/><path class="cls-379" d="M310.51,336.78a13.77,13.77,0,1,1-13.77,13.77A13.77,13.77,0,0,1,310.51,336.78Z"/><path class="cls-380" d="M310.52,336.79a13.77,13.77,0,1,1-13.77,13.77A13.76,13.76,0,0,1,310.52,336.79Z"/><path class="cls-381" d="M310.53,336.79a13.78,13.78,0,1,1-13.77,13.78A13.78,13.78,0,0,1,310.53,336.79Z"/><path class="cls-382" d="M310.54,336.8a13.78,13.78,0,1,1-13.78,13.77A13.78,13.78,0,0,1,310.54,336.8Z"/><path class="cls-383" d="M310.54,336.81a13.77,13.77,0,1,1-13.77,13.77A13.77,13.77,0,0,1,310.54,336.81Z"/><path class="cls-384" d="M310.55,336.82a13.77,13.77,0,1,1-13.77,13.77A13.77,13.77,0,0,1,310.55,336.82Z"/><path class="cls-385" d="M310.55,336.83a13.77,13.77,0,1,1-13.77,13.77A13.77,13.77,0,0,1,310.55,336.83Z"/><path class="cls-386" d="M310.56,336.83a13.78,13.78,0,1,1-13.77,13.78A13.77,13.77,0,0,1,310.56,336.83Z"/><path class="cls-387" d="M310.57,336.84a13.77,13.77,0,1,1-13.77,13.77A13.78,13.78,0,0,1,310.57,336.84Z"/><path class="cls-388" d="M310.57,336.85a13.77,13.77,0,1,1-13.77,13.77A13.78,13.78,0,0,1,310.57,336.85Z"/><path class="cls-389" d="M310.58,336.86a13.77,13.77,0,1,1-13.77,13.77A13.76,13.76,0,0,1,310.58,336.86Z"/><path class="cls-390" d="M310.59,336.87a13.77,13.77,0,1,1-13.77,13.77A13.77,13.77,0,0,1,310.59,336.87Z"/><path class="cls-391" d="M310.59,336.87a13.78,13.78,0,1,1-13.77,13.78A13.78,13.78,0,0,1,310.59,336.87Z"/><path class="cls-392" d="M310.6,336.88a13.77,13.77,0,1,1-13.77,13.77A13.77,13.77,0,0,1,310.6,336.88Z"/><path class="cls-393" d="M310.61,336.89a13.77,13.77,0,1,1-13.77,13.77A13.78,13.78,0,0,1,310.61,336.89Z"/><path class="cls-394" d="M310.61,336.9a13.77,13.77,0,1,1-13.77,13.77A13.76,13.76,0,0,1,310.61,336.9Z"/><path class="cls-395" d="M310.62,336.91a13.77,13.77,0,1,1-13.77,13.77A13.76,13.76,0,0,1,310.62,336.91Z"/><path class="cls-396" d="M310.63,336.91a13.78,13.78,0,1,1-13.77,13.77A13.78,13.78,0,0,1,310.63,336.91Z"/><path class="cls-397" d="M310.63,336.92a13.77,13.77,0,1,1-13.77,13.77A13.77,13.77,0,0,1,310.63,336.92Z"/><path class="cls-398" d="M310.64,336.93a13.77,13.77,0,1,1-13.77,13.77A13.77,13.77,0,0,1,310.64,336.93Z"/><path class="cls-399" d="M310.65,336.94a13.77,13.77,0,1,1-13.77,13.77A13.77,13.77,0,0,1,310.65,336.94Z"/><path class="cls-400" d="M310.65,337a13.77,13.77,0,1,1-13.77,13.77A13.76,13.76,0,0,1,310.65,337Z"/><path class="cls-401" d="M310.66,337a13.78,13.78,0,1,1-13.77,13.77A13.77,13.77,0,0,1,310.66,337Z"/><path class="cls-402" d="M310.67,337a13.77,13.77,0,1,1-13.77,13.77A13.78,13.78,0,0,1,310.67,337Z"/><path class="cls-403" d="M310.67,337a13.77,13.77,0,1,1-13.77,13.77A13.77,13.77,0,0,1,310.67,337Z"/><path class="cls-404" d="M310.68,337a13.77,13.77,0,1,1-13.77,13.77A13.76,13.76,0,0,1,310.68,337Z"/><path class="cls-405" d="M310.69,337a13.78,13.78,0,1,1-13.78,13.78A13.78,13.78,0,0,1,310.69,337Z"/><path class="cls-406" d="M310.69,337a13.78,13.78,0,1,1-13.77,13.77A13.77,13.77,0,0,1,310.69,337Z"/><path class="cls-407" d="M310.7,337a13.77,13.77,0,1,1-13.77,13.77A13.78,13.78,0,0,1,310.7,337Z"/><path class="cls-408" d="M310.71,337a13.77,13.77,0,1,1-13.78,13.77A13.77,13.77,0,0,1,310.71,337Z"/><path class="cls-409" d="M310.71,337a13.77,13.77,0,1,1-13.77,13.77A13.76,13.76,0,0,1,310.71,337Z"/><path class="cls-410" d="M310.72,337A13.78,13.78,0,1,1,297,350.8,13.78,13.78,0,0,1,310.72,337Z"/><path class="cls-411" d="M310.72,337A13.78,13.78,0,1,1,297,350.8,13.78,13.78,0,0,1,310.72,337Z"/><path class="cls-412" d="M324.5,350.81A13.77,13.77,0,1,1,310.73,337,13.76,13.76,0,0,1,324.5,350.81Z"/></g></g><path class="cls-5" d="M384.73,335.35c0-.45-.31-.7-.86-.7h-.73v2.27h.54V336l.64.88H385l-.75-.93A.63.63,0,0,0,384.73,335.35Zm-1,.31h-.09v-.59h.1c.27,0,.41.09.41.29S384.05,335.66,383.77,335.66Z"/><path class="cls-5" d="M384,333.8a2,2,0,0,0,0,4,2,2,0,0,0,0-4Zm0,3.61a1.63,1.63,0,1,1,1.57-1.63A1.6,1.6,0,0,1,384,337.41Z"/></g></g></svg>