<svg xmlns="http://www.w3.org/2000/svg" xmlns:xlink="http://www.w3.org/1999/xlink" viewBox="0 0 178.87 114.41"><defs><style>.cls-1{fill:none;}.cls-2{isolation:isolate;}.cls-3,.cls-410,.cls-411,.cls-412{fill:#fff;}.cls-4{fill:#ef7d00;}.cls-10,.cls-5{fill:#1d1d1b;}.cls-6{fill:url(#linear-gradient);}.cls-7{opacity:0.65;fill:url(#linear-gradient-2);}.cls-10,.cls-100,.cls-101,.cls-102,.cls-103,.cls-104,.cls-105,.cls-106,.cls-107,.cls-108,.cls-109,.cls-11,.cls-110,.cls-111,.cls-112,.cls-113,.cls-114,.cls-115,.cls-116,.cls-117,.cls-118,.cls-119,.cls-12,.cls-120,.cls-121,.cls-122,.cls-123,.cls-124,.cls-125,.cls-126,.cls-127,.cls-128,.cls-129,.cls-13,.cls-130,.cls-131,.cls-132,.cls-133,.cls-134,.cls-135,.cls-136,.cls-137,.cls-138,.cls-139,.cls-14,.cls-140,.cls-141,.cls-142,.cls-143,.cls-144,.cls-145,.cls-146,.cls-147,.cls-148,.cls-149,.cls-15,.cls-150,.cls-151,.cls-152,.cls-153,.cls-154,.cls-155,.cls-156,.cls-157,.cls-158,.cls-159,.cls-16,.cls-160,.cls-161,.cls-162,.cls-163,.cls-164,.cls-165,.cls-166,.cls-167,.cls-168,.cls-169,.cls-17,.cls-170,.cls-171,.cls-172,.cls-173,.cls-174,.cls-175,.cls-176,.cls-177,.cls-178,.cls-179,.cls-18,.cls-180,.cls-181,.cls-182,.cls-183,.cls-184,.cls-185,.cls-186,.cls-187,.cls-188,.cls-189,.cls-19,.cls-190,.cls-191,.cls-192,.cls-193,.cls-194,.cls-195,.cls-196,.cls-197,.cls-198,.cls-199,.cls-20,.cls-200,.cls-201,.cls-202,.cls-203,.cls-204,.cls-205,.cls-206,.cls-207,.cls-208,.cls-209,.cls-21,.cls-210,.cls-211,.cls-212,.cls-213,.cls-214,.cls-215,.cls-216,.cls-217,.cls-218,.cls-219,.cls-22,.cls-220,.cls-221,.cls-222,.cls-223,.cls-224,.cls-225,.cls-226,.cls-227,.cls-228,.cls-229,.cls-23,.cls-230,.cls-231,.cls-232,.cls-233,.cls-234,.cls-235,.cls-236,.cls-237,.cls-238,.cls-239,.cls-24,.cls-240,.cls-241,.cls-242,.cls-243,.cls-244,.cls-245,.cls-246,.cls-247,.cls-248,.cls-249,.cls-25,.cls-250,.cls-251,.cls-252,.cls-253,.cls-254,.cls-255,.cls-256,.cls-257,.cls-258,.cls-259,.cls-26,.cls-260,.cls-261,.cls-262,.cls-263,.cls-264,.cls-265,.cls-266,.cls-267,.cls-268,.cls-269,.cls-27,.cls-270,.cls-271,.cls-272,.cls-273,.cls-274,.cls-275,.cls-276,.cls-277,.cls-278,.cls-279,.cls-28,.cls-280,.cls-281,.cls-282,.cls-283,.cls-284,.cls-285,.cls-286,.cls-287,.cls-288,.cls-289,.cls-29,.cls-290,.cls-291,.cls-292,.cls-293,.cls-294,.cls-295,.cls-296,.cls-297,.cls-298,.cls-299,.cls-30,.cls-300,.cls-301,.cls-302,.cls-303,.cls-304,.cls-305,.cls-306,.cls-307,.cls-308,.cls-309,.cls-31,.cls-310,.cls-311,.cls-312,.cls-313,.cls-314,.cls-315,.cls-316,.cls-317,.cls-318,.cls-319,.cls-32,.cls-320,.cls-321,.cls-322,.cls-323,.cls-324,.cls-325,.cls-326,.cls-327,.cls-328,.cls-329,.cls-33,.cls-330,.cls-331,.cls-332,.cls-333,.cls-334,.cls-335,.cls-336,.cls-337,.cls-338,.cls-339,.cls-34,.cls-340,.cls-341,.cls-342,.cls-343,.cls-344,.cls-345,.cls-346,.cls-347,.cls-348,.cls-349,.cls-35,.cls-350,.cls-351,.cls-352,.cls-353,.cls-354,.cls-355,.cls-356,.cls-357,.cls-358,.cls-359,.cls-36,.cls-360,.cls-361,.cls-362,.cls-363,.cls-364,.cls-365,.cls-366,.cls-367,.cls-368,.cls-369,.cls-37,.cls-370,.cls-371,.cls-372,.cls-373,.cls-374,.cls-375,.cls-376,.cls-377,.cls-378,.cls-379,.cls-38,.cls-380,.cls-381,.cls-382,.cls-383,.cls-384,.cls-385,.cls-386,.cls-387,.cls-388,.cls-389,.cls-39,.cls-390,.cls-391,.cls-392,.cls-393,.cls-394,.cls-395,.cls-396,.cls-397,.cls-398,.cls-399,.cls-40,.cls-400,.cls-401,.cls-402,.cls-403,.cls-404,.cls-405,.cls-406,.cls-407,.cls-408,.cls-409,.cls-41,.cls-410,.cls-411,.cls-412,.cls-42,.cls-43,.cls-44,.cls-45,.cls-46,.cls-47,.cls-48,.cls-49,.cls-50,.cls-51,.cls-52,.cls-53,.cls-54,.cls-55,.cls-56,.cls-57,.cls-58,.cls-59,.cls-60,.cls-61,.cls-62,.cls-63,.cls-64,.cls-65,.cls-66,.cls-67,.cls-68,.cls-69,.cls-7,.cls-70,.cls-71,.cls-72,.cls-73,.cls-74,.cls-75,.cls-76,.cls-77,.cls-78,.cls-79,.cls-8,.cls-80,.cls-81,.cls-82,.cls-83,.cls-84,.cls-85,.cls-86,.cls-87,.cls-88,.cls-89,.cls-90,.cls-91,.cls-92,.cls-93,.cls-94,.cls-95,.cls-96,.cls-97,.cls-98,.cls-99{mix-blend-mode:multiply;}.cls-8{opacity:0.5;}.cls-9{clip-path:url(#clip-path);}.cls-11{fill:#1e1e1d;}.cls-12{fill:#201f1e;}.cls-13{fill:#21211f;}.cls-14{fill:#222221;}.cls-15{fill:#232322;}.cls-16{fill:#252523;}.cls-17{fill:#262625;}.cls-18{fill:#272726;}.cls-19{fill:#282827;}.cls-20{fill:#2a2928;}.cls-21{fill:#2b2b2a;}.cls-22{fill:#2c2c2b;}.cls-23{fill:#2d2d2c;}.cls-24{fill:#2e2e2d;}.cls-25{fill:#302f2e;}.cls-26{fill:#31302f;}.cls-27{fill:#323231;}.cls-28{fill:#333332;}.cls-29{fill:#343433;}.cls-30{fill:#353534;}.cls-31{fill:#363635;}.cls-32{fill:#373736;}.cls-33{fill:#383837;}.cls-34{fill:#393938;}.cls-35{fill:#3a3a39;}.cls-36{fill:#3c3b3a;}.cls-37{fill:#3d3c3b;}.cls-38{fill:#3e3d3d;}.cls-39{fill:#3f3e3e;}.cls-40{fill:#403f3f;}.cls-41{fill:#414040;}.cls-42{fill:#424141;}.cls-43{fill:#434242;}.cls-44{fill:#444443;}.cls-45{fill:#454544;}.cls-46{fill:#464645;}.cls-47{fill:#474746;}.cls-48{fill:#484847;}.cls-49{fill:#494948;}.cls-50{fill:#4a4a49;}.cls-51{fill:#4b4b4a;}.cls-52{fill:#4c4c4b;}.cls-53{fill:#4d4d4c;}.cls-54{fill:#4e4e4d;}.cls-55{fill:#4f4f4e;}.cls-56{fill:#50504f;}.cls-57{fill:#515150;}.cls-58{fill:#525251;}.cls-59{fill:#535352;}.cls-60{fill:#545453;}.cls-61{fill:#555554;}.cls-62{fill:#565655;}.cls-63{fill:#575756;}.cls-64{fill:#585757;}.cls-65{fill:#595858;}.cls-66{fill:#5a5959;}.cls-67{fill:#5b5a5a;}.cls-68{fill:#5b5b5a;}.cls-69{fill:#5c5c5b;}.cls-70{fill:#5d5d5c;}.cls-71{fill:#5e5e5d;}.cls-72{fill:#5f5f5e;}.cls-73{fill:#60605f;}.cls-74{fill:#616160;}.cls-75{fill:#626161;}.cls-76{fill:#636262;}.cls-77{fill:#646363;}.cls-78{fill:#646464;}.cls-79{fill:#656564;}.cls-80{fill:#666665;}.cls-81{fill:#676766;}.cls-82{fill:#686867;}.cls-83{fill:#696968;}.cls-84{fill:#6a6a69;}.cls-85{fill:#6b6a6a;}.cls-86{fill:#6c6b6b;}.cls-87{fill:#6d6c6c;}.cls-88{fill:#6d6d6d;}.cls-89{fill:#6e6e6d;}.cls-90{fill:#6f6f6e;}.cls-91{fill:#70706f;}.cls-92{fill:#717170;}.cls-93{fill:#727271;}.cls-94{fill:#737372;}.cls-95{fill:#747473;}.cls-96{fill:#757474;}.cls-97{fill:#767575;}.cls-98{fill:#777676;}.cls-99{fill:#777;}.cls-100{fill:#787878;}.cls-101{fill:#797978;}.cls-102{fill:#7a7a79;}.cls-103{fill:#7b7b7a;}.cls-104{fill:#7c7c7b;}.cls-105{fill:#7d7d7c;}.cls-106{fill:#7e7d7d;}.cls-107{fill:#7f7e7e;}.cls-108{fill:#807f7f;}.cls-109{fill:gray;}.cls-110{fill:#818180;}.cls-111{fill:#828281;}.cls-112{fill:#838382;}.cls-113{fill:#848483;}.cls-114{fill:#858484;}.cls-115{fill:#868585;}.cls-116{fill:#868686;}.cls-117{fill:#878787;}.cls-118{fill:#888887;}.cls-119{fill:#898988;}.cls-120{fill:#8a8a89;}.cls-121{fill:#8b8a8a;}.cls-122{fill:#8b8b8b;}.cls-123{fill:#8c8c8c;}.cls-124{fill:#8d8d8c;}.cls-125{fill:#8e8e8d;}.cls-126{fill:#8f8e8e;}.cls-127{fill:#8f8f8f;}.cls-128{fill:#909090;}.cls-129{fill:#919190;}.cls-130{fill:#929291;}.cls-131{fill:#939292;}.cls-132{fill:#939393;}.cls-133{fill:#949494;}.cls-134{fill:#959594;}.cls-135{fill:#969695;}.cls-136{fill:#979696;}.cls-137{fill:#979797;}.cls-138{fill:#989898;}.cls-139{fill:#999998;}.cls-140{fill:#9a9a99;}.cls-141{fill:#9b9a9a;}.cls-142{fill:#9b9b9b;}.cls-143{fill:#9c9c9c;}.cls-144{fill:#9d9d9c;}.cls-145{fill:#9e9e9d;}.cls-146{fill:#9f9e9e;}.cls-147{fill:#9f9f9f;}.cls-148{fill:#a0a0a0;}.cls-149{fill:#a1a1a0;}.cls-150{fill:#a2a2a1;}.cls-151{fill:#a3a2a2;}.cls-152{fill:#a3a3a3;}.cls-153{fill:#a4a4a4;}.cls-154{fill:#a5a5a5;}.cls-155{fill:#a6a6a5;}.cls-156{fill:#a7a7a6;}.cls-157{fill:#a8a7a7;}.cls-158{fill:#a8a8a8;}.cls-159{fill:#a9a9a9;}.cls-160{fill:#aaaaa9;}.cls-161{fill:#ababaa;}.cls-162{fill:#acabab;}.cls-163{fill:#acacac;}.cls-164{fill:#adadad;}.cls-165{fill:#aeaead;}.cls-166{fill:#afafae;}.cls-167{fill:#afafaf;}.cls-168{fill:#b0b0b0;}.cls-169{fill:#b1b1b1;}.cls-170{fill:#b2b2b1;}.cls-171{fill:#b3b2b2;}.cls-172{fill:#b3b3b3;}.cls-173{fill:#b4b4b4;}.cls-174{fill:#b5b5b4;}.cls-175{fill:#b6b5b5;}.cls-176{fill:#b6b6b6;}.cls-177{fill:#b7b7b7;}.cls-178{fill:#b8b8b7;}.cls-179{fill:#b9b8b8;}.cls-180{fill:#b9b9b9;}.cls-181{fill:#bababa;}.cls-182{fill:#bbbbba;}.cls-183{fill:#bcbbbb;}.cls-184{fill:#bcbcbc;}.cls-185{fill:#bdbdbd;}.cls-186{fill:#bebebd;}.cls-187{fill:#bfbebe;}.cls-188{fill:#bfbfbf;}.cls-189{fill:silver;}.cls-190{fill:#c1c1c0;}.cls-191{fill:#c2c1c1;}.cls-192{fill:#c2c2c2;}.cls-193{fill:#c3c3c3;}.cls-194{fill:#c4c4c3;}.cls-195{fill:#c4c4c4;}.cls-196{fill:#c5c5c5;}.cls-197{fill:#c6c6c6;}.cls-198{fill:#c7c7c6;}.cls-199{fill:#c7c7c7;}.cls-200{fill:#c8c8c8;}.cls-201{fill:#c9c9c8;}.cls-202{fill:#cac9c9;}.cls-203{fill:#cacaca;}.cls-204{fill:#cbcbcb;}.cls-205{fill:#cccccb;}.cls-206{fill:#cdcccc;}.cls-207{fill:#cdcdcd;}.cls-208{fill:#cecece;}.cls-209{fill:#cfcfce;}.cls-210{fill:#d0cfcf;}.cls-211,.cls-212{fill:#d0d0d0;}.cls-212{opacity:1;}.cls-213{fill:#d1d1d0;opacity:0.99;}.cls-214,.cls-215,.cls-216{fill:#d1d1d1;}.cls-214{opacity:0.99;}.cls-215{opacity:0.98;}.cls-216{opacity:0.98;}.cls-217{fill:#d2d2d1;opacity:0.97;}.cls-218,.cls-219,.cls-220{fill:#d2d2d2;}.cls-218{opacity:0.97;}.cls-219{opacity:0.96;}.cls-220{opacity:0.96;}.cls-221{fill:#d3d3d2;opacity:0.95;}.cls-222,.cls-223,.cls-224{fill:#d3d3d3;}.cls-222{opacity:0.95;}.cls-223{opacity:0.94;}.cls-224{opacity:0.94;}.cls-225{fill:#d4d4d3;opacity:0.93;}.cls-226,.cls-227,.cls-228{fill:#d4d4d4;}.cls-226{opacity:0.93;}.cls-227{opacity:0.92;}.cls-228{opacity:0.92;}.cls-229{fill:#d5d5d4;opacity:0.91;}.cls-230,.cls-231,.cls-232{fill:#d5d5d5;}.cls-230{opacity:0.91;}.cls-231{opacity:0.9;}.cls-232{opacity:0.9;}.cls-233{fill:#d6d6d5;opacity:0.89;}.cls-234,.cls-235,.cls-236{fill:#d6d6d6;}.cls-234{opacity:0.89;}.cls-235{opacity:0.88;}.cls-236{opacity:0.88;}.cls-237{fill:#d7d7d6;opacity:0.87;}.cls-238,.cls-239,.cls-240{fill:#d7d7d7;}.cls-238{opacity:0.87;}.cls-239{opacity:0.86;}.cls-240{opacity:0.86;}.cls-241{fill:#d8d8d7;opacity:0.85;}.cls-242,.cls-243,.cls-244{fill:#d8d8d8;}.cls-242{opacity:0.85;}.cls-243{opacity:0.84;}.cls-244{opacity:0.84;}.cls-245{fill:#d9d9d8;opacity:0.83;}.cls-246,.cls-247,.cls-248{fill:#d9d9d9;}.cls-246{opacity:0.83;}.cls-247{opacity:0.82;}.cls-248{opacity:0.82;}.cls-249{fill:#dad9d9;opacity:0.81;}.cls-250,.cls-251,.cls-252{fill:#dadada;}.cls-250{opacity:0.81;}.cls-251{opacity:0.8;}.cls-252{opacity:0.8;}.cls-253{fill:#dbdada;opacity:0.79;}.cls-254,.cls-255,.cls-256,.cls-257{fill:#dbdbdb;}.cls-254{opacity:0.79;}.cls-255{opacity:0.78;}.cls-256{opacity:0.78;}.cls-257{opacity:0.77;}.cls-258{fill:#dcdcdb;opacity:0.77;}.cls-259,.cls-260,.cls-261{fill:#dcdcdc;}.cls-259{opacity:0.76;}.cls-260{opacity:0.76;}.cls-261{opacity:0.75;}.cls-262{fill:#dddddc;opacity:0.75;}.cls-263,.cls-264,.cls-265{fill:#ddd;}.cls-263{opacity:0.74;}.cls-264{opacity:0.74;}.cls-265{opacity:0.73;}.cls-266{fill:#dedddd;opacity:0.73;}.cls-267,.cls-268,.cls-269,.cls-270{fill:#dedede;}.cls-267{opacity:0.72;}.cls-268{opacity:0.72;}.cls-269{opacity:0.71;}.cls-270{opacity:0.71;}.cls-271,.cls-272,.cls-273,.cls-274{fill:#dfdfdf;}.cls-271{opacity:0.7;}.cls-272{opacity:0.7;}.cls-273{opacity:0.69;}.cls-274{opacity:0.69;}.cls-275{fill:#e0e0df;opacity:0.68;}.cls-276,.cls-277,.cls-278{fill:#e0e0e0;}.cls-276{opacity:0.68;}.cls-277{opacity:0.67;}.cls-278{opacity:0.67;}.cls-279{fill:#e1e0e0;opacity:0.66;}.cls-280,.cls-281,.cls-282,.cls-283{fill:#e1e1e1;}.cls-280{opacity:0.66;}.cls-281{opacity:0.65;}.cls-282{opacity:0.65;}.cls-283{opacity:0.64;}.cls-284{fill:#e2e2e1;opacity:0.64;}.cls-285,.cls-286,.cls-287{fill:#e2e2e2;}.cls-285{opacity:0.63;}.cls-286{opacity:0.63;}.cls-287{opacity:0.62;}.cls-288{fill:#e3e3e2;opacity:0.62;}.cls-289,.cls-290,.cls-291{fill:#e3e3e3;}.cls-289{opacity:0.61;}.cls-290{opacity:0.61;}.cls-291{opacity:0.6;}.cls-292{fill:#e4e3e3;opacity:0.6;}.cls-293,.cls-294,.cls-295,.cls-296{fill:#e4e4e4;}.cls-293{opacity:0.59;}.cls-294{opacity:0.59;}.cls-295{opacity:0.58;}.cls-296{opacity:0.58;}.cls-297{fill:#e5e5e4;opacity:0.57;}.cls-298,.cls-299,.cls-300{fill:#e5e5e5;}.cls-298{opacity:0.57;}.cls-299{opacity:0.56;}.cls-300{opacity:0.56;}.cls-301{fill:#e6e6e5;opacity:0.55;}.cls-302,.cls-303,.cls-304{fill:#e6e6e6;}.cls-302{opacity:0.55;}.cls-303{opacity:0.54;}.cls-304{opacity:0.54;}.cls-305{fill:#e7e6e6;opacity:0.53;}.cls-306,.cls-307,.cls-308,.cls-309{fill:#e7e7e7;}.cls-306{opacity:0.53;}.cls-307{opacity:0.52;}.cls-308{opacity:0.52;}.cls-309{opacity:0.51;}.cls-310,.cls-311,.cls-312,.cls-313{fill:#e8e8e8;}.cls-310{opacity:0.51;}.cls-311{opacity:0.5;}.cls-312{opacity:0.5;}.cls-313{opacity:0.49;}.cls-314{fill:#e9e9e8;opacity:0.49;}.cls-315,.cls-316,.cls-317{fill:#e9e9e9;}.cls-315{opacity:0.48;}.cls-316{opacity:0.48;}.cls-317{opacity:0.47;}.cls-318{fill:#eae9e9;opacity:0.47;}.cls-319,.cls-320,.cls-321,.cls-322{fill:#eaeaea;}.cls-319{opacity:0.46;}.cls-320{opacity:0.46;}.cls-321{opacity:0.45;}.cls-322{opacity:0.45;}.cls-323,.cls-324,.cls-325,.cls-326{fill:#ebebeb;}.cls-323{opacity:0.44;}.cls-324{opacity:0.44;}.cls-325{opacity:0.43;}.cls-326{opacity:0.43;}.cls-327{fill:#ececeb;opacity:0.42;}.cls-328,.cls-329,.cls-330{fill:#ececec;}.cls-328{opacity:0.42;}.cls-329{opacity:0.41;}.cls-330{opacity:0.41;}.cls-331{fill:#edecec;opacity:0.4;}.cls-332,.cls-333,.cls-334,.cls-335{fill:#ededed;}.cls-332{opacity:0.4;}.cls-333{opacity:0.39;}.cls-334{opacity:0.39;}.cls-335{opacity:0.38;}.cls-336,.cls-337,.cls-338,.cls-339{fill:#eee;}.cls-336{opacity:0.38;}.cls-337{opacity:0.37;}.cls-338{opacity:0.37;}.cls-339{opacity:0.36;}.cls-340{fill:#efefee;opacity:0.36;}.cls-341,.cls-342,.cls-343{fill:#efefef;}.cls-341{opacity:0.35;}.cls-342{opacity:0.35;}.cls-343{opacity:0.34;}.cls-344{fill:#f0efef;opacity:0.34;}.cls-345,.cls-346,.cls-347,.cls-348{fill:#f0f0f0;}.cls-345{opacity:0.33;}.cls-346{opacity:0.33;}.cls-347{opacity:0.32;}.cls-348{opacity:0.32;}.cls-349,.cls-350,.cls-351,.cls-352{fill:#f1f1f1;}.cls-349{opacity:0.31;}.cls-350{opacity:0.31;}.cls-351{opacity:0.3;}.cls-352{opacity:0.3;}.cls-353,.cls-354,.cls-355,.cls-356{fill:#f2f2f2;}.cls-353{opacity:0.29;}.cls-354{opacity:0.29;}.cls-355{opacity:0.28;}.cls-356{opacity:0.28;}.cls-357{fill:#f3f2f2;opacity:0.27;}.cls-358,.cls-359,.cls-360,.cls-361{fill:#f3f3f3;}.cls-358{opacity:0.27;}.cls-359{opacity:0.26;}.cls-360{opacity:0.26;}.cls-361{opacity:0.25;}.cls-362,.cls-363,.cls-364,.cls-365{fill:#f4f4f4;}.cls-362{opacity:0.25;}.cls-363{opacity:0.24;}.cls-364{opacity:0.24;}.cls-365{opacity:0.23;}.cls-366,.cls-367,.cls-368,.cls-369{fill:#f5f5f5;}.cls-366{opacity:0.23;}.cls-367{opacity:0.22;}.cls-368{opacity:0.22;}.cls-369{opacity:0.21;}.cls-370{fill:#f6f5f5;opacity:0.21;}.cls-371,.cls-372,.cls-373,.cls-374{fill:#f6f6f6;}.cls-371{opacity:0.2;}.cls-372{opacity:0.2;}.cls-373{opacity:0.19;}.cls-374{opacity:0.19;}.cls-375,.cls-376,.cls-377,.cls-378{fill:#f7f7f7;}.cls-375{opacity:0.18;}.cls-376{opacity:0.18;}.cls-377{opacity:0.17;}.cls-378{opacity:0.17;}.cls-379,.cls-380,.cls-381,.cls-382,.cls-383{fill:#f8f8f8;}.cls-379{opacity:0.16;}.cls-380{opacity:0.16;}.cls-381{opacity:0.15;}.cls-382{opacity:0.15;}.cls-383{opacity:0.14;}.cls-384,.cls-385,.cls-386,.cls-387{fill:#f9f9f9;}.cls-384{opacity:0.14;}.cls-385{opacity:0.13;}.cls-386{opacity:0.13;}.cls-387{opacity:0.12;}.cls-388,.cls-389,.cls-390,.cls-391{fill:#fafafa;}.cls-388{opacity:0.12;}.cls-389{opacity:0.11;}.cls-390{opacity:0.11;}.cls-391{opacity:0.1;}.cls-392,.cls-393,.cls-394,.cls-395,.cls-396{fill:#fbfbfb;}.cls-392{opacity:0.1;}.cls-393{opacity:0.09;}.cls-394{opacity:0.09;}.cls-395{opacity:0.08;}.cls-396{opacity:0.08;}.cls-397,.cls-398,.cls-399,.cls-400{fill:#fcfcfc;}.cls-397{opacity:0.07;}.cls-398{opacity:0.07;}.cls-399{opacity:0.06;}.cls-400{opacity:0.06;}.cls-401,.cls-402,.cls-403,.cls-404,.cls-405{fill:#fdfdfd;}.cls-401{opacity:0.05;}.cls-402{opacity:0.05;}.cls-403{opacity:0.04;}.cls-404{opacity:0.04;}.cls-405{opacity:0.03;}.cls-406,.cls-407,.cls-408,.cls-409{fill:#fefefe;}.cls-406{opacity:0.03;}.cls-407{opacity:0.02;}.cls-408{opacity:0.02;}.cls-409{opacity:0.01;}.cls-410{opacity:0.01;}.cls-411{opacity:0;}.cls-412{opacity:0;}</style><linearGradient id="linear-gradient" x1="100.75" y1="59.08" x2="91.22" y2="44.15" gradientUnits="userSpaceOnUse"><stop offset="0" stop-color="#f6a000"/><stop offset="0.23" stop-color="#f59b00"/><stop offset="0.49" stop-color="#f38e00"/><stop offset="0.62" stop-color="#f18400"/><stop offset="0.77" stop-color="#ef7902"/><stop offset="1" stop-color="#ed6d05"/></linearGradient><linearGradient id="linear-gradient-2" x1="99.24" y1="58.87" x2="85.31" y2="31.64" gradientUnits="userSpaceOnUse"><stop offset="0" stop-color="#f18400" stop-opacity="0"/><stop offset="0.11" stop-color="#eb7c07" stop-opacity="0.13"/><stop offset="0.31" stop-color="#e16e12" stop-opacity="0.35"/><stop offset="0.5" stop-color="#d9641a" stop-opacity="0.52"/><stop offset="0.68" stop-color="#d45c20" stop-opacity="0.64"/><stop offset="0.85" stop-color="#d05824" stop-opacity="0.71"/><stop offset="0.98" stop-color="#cf5625" stop-opacity="0.74"/></linearGradient><clipPath id="clip-path"><path class="cls-1" d="M107.47,48A13.77,13.77,0,1,1,93.7,34.28,13.77,13.77,0,0,1,107.47,48Z"/></clipPath></defs><g class="cls-2"><g id="Layer_1" data-name="Layer 1"><polygon class="cls-3" points="0.63 0.66 178.23 0.65 178.23 113.76 0.65 113.76 0.63 0.66"/><path class="cls-4" d="M177.6,63.55S129.07,97.8,40.19,113.12H177.6Z"/><path class="cls-5" d="M178.23,0,0,0V114.41H178.87V0Zm-.65,1.3V113.11H1.29V1.3Z"/><path class="cls-5" d="M15.64,35H8.23V60.89H15.6c3.92,0,6.75-.92,9.24-3A13,13,0,0,0,29.54,48C29.54,40.33,23.83,35,15.64,35Zm5.9,19.44c-1.59,1.44-3.65,2.06-6.91,2.06H13.27V39.39h1.36c3.26,0,5.24.59,6.91,2.1a8.69,8.69,0,0,1,2.8,6.44A8.85,8.85,0,0,1,21.54,54.45Z"/><rect class="cls-5" x="31.86" y="35.01" width="5.05" height="25.88"/><path class="cls-5" d="M49.25,44.94c-3-1.12-3.92-1.86-3.92-3.26,0-1.63,1.59-2.87,3.77-2.87a5.22,5.22,0,0,1,4.07,2.1l2.64-3.46a11.32,11.32,0,0,0-7.61-2.87c-4.58,0-8.07,3.18-8.07,7.42,0,3.56,1.63,5.39,6.37,7.1A20.19,20.19,0,0,1,50,50.57a3.09,3.09,0,0,1,1.51,2.68,3.69,3.69,0,0,1-3.92,3.65,6,6,0,0,1-5.51-3.45l-3.26,3.14c2.33,3.41,5.12,4.93,9,4.93C53,61.52,56.7,58,56.7,53,56.7,48.9,55,47,49.25,44.94Z"/><path class="cls-5" d="M58.29,48A13.41,13.41,0,0,0,72,61.48,13.94,13.94,0,0,0,78.28,60V54c-2,2-3.8,2.84-6.09,2.84-5.09,0-8.7-3.69-8.7-8.93A8.61,8.61,0,0,1,72,39c2.41,0,4.23.86,6.33,2.91V36a12.93,12.93,0,0,0-6.21-1.59A13.61,13.61,0,0,0,58.29,48Z"/><polygon class="cls-5" points="118.31 52.4 111.41 35.01 105.9 35.01 116.88 61.56 119.6 61.56 130.78 35.01 125.31 35.01 118.31 52.4"/><polygon class="cls-5" points="133.06 60.89 147.38 60.89 147.38 56.51 138.11 56.51 138.11 49.52 147.04 49.52 147.04 45.14 138.11 45.14 138.11 39.39 147.38 39.39 147.38 35.01 133.06 35.01 133.06 60.89"/><path class="cls-5" d="M167.37,42.65c0-4.85-3.34-7.64-9.16-7.64h-7.49V60.89h5.05V50.49h.66l7,10.4h6.21L161.47,50C165.28,49.21,167.37,46.61,167.37,42.65Zm-10.13,4.28h-1.47V39.09h1.55c3.15,0,4.86,1.31,4.86,3.83S160.47,46.93,157.24,46.93Z"/><path class="cls-6" d="M107.47,48A13.77,13.77,0,1,1,93.7,34.27,13.77,13.77,0,0,1,107.47,48Z"/><path class="cls-7" d="M107.47,48A13.77,13.77,0,1,1,93.7,34.27,13.77,13.77,0,0,1,107.47,48Z"/><g class="cls-8"><g class="cls-9"><path class="cls-10" d="M107.79,48.09A14,14,0,1,1,93.74,34,14,14,0,0,1,107.79,48.09Z"/><path class="cls-11" d="M93.75,34.05a14,14,0,1,1-14,14.05A14,14,0,0,1,93.75,34.05Z"/><path class="cls-12" d="M93.76,34.06a14,14,0,1,1-14,14A14,14,0,0,1,93.76,34.06Z"/><path class="cls-13" d="M93.77,34.07a14,14,0,1,1-14,14A14,14,0,0,1,93.77,34.07Z"/><path class="cls-14" d="M93.77,34.08a14,14,0,1,1-14,14A14,14,0,0,1,93.77,34.08Z"/><path class="cls-15" d="M93.78,34.09a14,14,0,1,1-14,14A14,14,0,0,1,93.78,34.09Z"/><path class="cls-16" d="M93.79,34.1a14,14,0,1,1-14,14A14,14,0,0,1,93.79,34.1Z"/><path class="cls-17" d="M93.8,34.11a14,14,0,1,1-14,14A14,14,0,0,1,93.8,34.11Z"/><path class="cls-18" d="M93.8,34.12a14,14,0,1,1-14,14A14,14,0,0,1,93.8,34.12Z"/><path class="cls-19" d="M93.81,34.13a14,14,0,1,1-14,14A14,14,0,0,1,93.81,34.13Z"/><path class="cls-20" d="M93.82,34.14a14,14,0,1,1-14,14A14,14,0,0,1,93.82,34.14Z"/><path class="cls-21" d="M93.83,34.15a14,14,0,1,1-14,14A14,14,0,0,1,93.83,34.15Z"/><path class="cls-22" d="M93.84,34.16a14,14,0,1,1-14,14A14,14,0,0,1,93.84,34.16Z"/><path class="cls-23" d="M93.84,34.17a14,14,0,1,1-14,14A14,14,0,0,1,93.84,34.17Z"/><path class="cls-24" d="M93.85,34.18a14,14,0,1,1-14,14A14,14,0,0,1,93.85,34.18Z"/><path class="cls-25" d="M93.86,34.19a14,14,0,1,1-14,14A14,14,0,0,1,93.86,34.19Z"/><path class="cls-26" d="M93.87,34.2a14,14,0,1,1-14,14A14,14,0,0,1,93.87,34.2Z"/><path class="cls-27" d="M93.87,34.21a14,14,0,1,1-14,14A14,14,0,0,1,93.87,34.21Z"/><path class="cls-28" d="M93.88,34.22a14,14,0,1,1-14,14A14,14,0,0,1,93.88,34.22Z"/><path class="cls-29" d="M93.89,34.23a14,14,0,1,1-14,14A14,14,0,0,1,93.89,34.23Z"/><path class="cls-30" d="M93.9,34.24a14,14,0,1,1-14,14A14,14,0,0,1,93.9,34.24Z"/><path class="cls-31" d="M93.9,34.25a14,14,0,1,1-14,14A14,14,0,0,1,93.9,34.25Z"/><path class="cls-32" d="M93.91,34.26a14,14,0,1,1-14,14A14,14,0,0,1,93.91,34.26Z"/><path class="cls-33" d="M93.92,34.27a14,14,0,1,1-14,14A14,14,0,0,1,93.92,34.27Z"/><path class="cls-34" d="M93.93,34.28a14,14,0,1,1-14,14A14,14,0,0,1,93.93,34.28Z"/><path class="cls-35" d="M93.93,34.29a14,14,0,1,1-14,14A14,14,0,0,1,93.93,34.29Z"/><path class="cls-36" d="M93.94,34.3a14,14,0,1,1-14,14A14,14,0,0,1,93.94,34.3Z"/><path class="cls-37" d="M94,34.31a14,14,0,1,1-14,14A14,14,0,0,1,94,34.31Z"/><path class="cls-38" d="M94,34.32a14,14,0,1,1-14,14A14,14,0,0,1,94,34.32Z"/><path class="cls-39" d="M94,34.33a14,14,0,1,1-14,14A14,14,0,0,1,94,34.33Z"/><path class="cls-40" d="M94,34.34a14,14,0,1,1-14,14A14,14,0,0,1,94,34.34Z"/><path class="cls-41" d="M94,34.35a14,14,0,1,1-14,14A14,14,0,0,1,94,34.35Z"/><path class="cls-42" d="M94,34.36a14,14,0,1,1-14,14A14,14,0,0,1,94,34.36Z"/><path class="cls-43" d="M94,34.37a14,14,0,1,1-14,14A14,14,0,0,1,94,34.37Z"/><path class="cls-44" d="M94,34.39a14,14,0,1,1-14,14A14,14,0,0,1,94,34.39Z"/><path class="cls-45" d="M94,34.39a14,14,0,1,1-14,14A14,14,0,0,1,94,34.39Z"/><path class="cls-46" d="M94,34.41a14,14,0,1,1-14,14A14,14,0,0,1,94,34.41Z"/><path class="cls-47" d="M94,34.42a14,14,0,1,1-14,14A14,14,0,0,1,94,34.42Z"/><path class="cls-48" d="M94,34.43a14,14,0,1,1-14,14A14,14,0,0,1,94,34.43Z"/><path class="cls-49" d="M94,34.44a14,14,0,1,1-14,14A14,14,0,0,1,94,34.44Z"/><path class="cls-50" d="M94.05,34.45a14,14,0,1,1-14,14A14,14,0,0,1,94.05,34.45Z"/><path class="cls-51" d="M94.06,34.46a14,14,0,1,1-14,14A14,14,0,0,1,94.06,34.46Z"/><path class="cls-52" d="M94.06,34.47a14,14,0,1,1-14,14A14,14,0,0,1,94.06,34.47Z"/><path class="cls-53" d="M94.07,34.48a14,14,0,1,1-14,14A14,14,0,0,1,94.07,34.48Z"/><path class="cls-54" d="M94.08,34.49a14,14,0,1,1-14,14A14,14,0,0,1,94.08,34.49Z"/><path class="cls-55" d="M94.09,34.5a14,14,0,1,1-14,14A14,14,0,0,1,94.09,34.5Z"/><path class="cls-56" d="M94.09,34.51a14,14,0,1,1-14,14A14,14,0,0,1,94.09,34.51Z"/><path class="cls-57" d="M94.1,34.52a14,14,0,1,1-14,14A14,14,0,0,1,94.1,34.52Z"/><circle class="cls-58" cx="94.11" cy="48.51" r="13.98"/><path class="cls-59" d="M94.12,34.54a14,14,0,1,1-14,14A14,14,0,0,1,94.12,34.54Z"/><path class="cls-60" d="M94.12,34.55a14,14,0,1,1-14,14A14,14,0,0,1,94.12,34.55Z"/><path class="cls-61" d="M94.13,34.56a14,14,0,1,1-14,14A14,14,0,0,1,94.13,34.56Z"/><path class="cls-62" d="M94.14,34.57a14,14,0,1,1-14,14A14,14,0,0,1,94.14,34.57Z"/><path class="cls-63" d="M94.15,34.58a14,14,0,1,1-14,14A14,14,0,0,1,94.15,34.58Z"/><path class="cls-64" d="M94.16,34.59a14,14,0,1,1-14,14A14,14,0,0,1,94.16,34.59Z"/><path class="cls-65" d="M94.16,34.6a14,14,0,1,1-14,14A14,14,0,0,1,94.16,34.6Z"/><path class="cls-66" d="M94.17,34.61a14,14,0,1,1-14,14A14,14,0,0,1,94.17,34.61Z"/><path class="cls-67" d="M94.18,34.62a14,14,0,1,1-14,14A14,14,0,0,1,94.18,34.62Z"/><path class="cls-68" d="M94.19,34.63a14,14,0,1,1-14,14A14,14,0,0,1,94.19,34.63Z"/><path class="cls-69" d="M94.19,34.64a14,14,0,1,1-14,14A14,14,0,0,1,94.19,34.64Z"/><path class="cls-70" d="M94.2,34.65a14,14,0,1,1-14,14A14,14,0,0,1,94.2,34.65Z"/><path class="cls-71" d="M94.21,34.66a14,14,0,1,1-14,14A14,14,0,0,1,94.21,34.66Z"/><path class="cls-72" d="M94.22,34.67a14,14,0,1,1-14,14A14,14,0,0,1,94.22,34.67Z"/><path class="cls-73" d="M94.22,34.68a14,14,0,1,1-14,14A14,14,0,0,1,94.22,34.68Z"/><path class="cls-74" d="M94.23,34.69a14,14,0,1,1-14,14A14,14,0,0,1,94.23,34.69Z"/><path class="cls-75" d="M94.24,34.7a14,14,0,1,1-14,14A14,14,0,0,1,94.24,34.7Z"/><path class="cls-76" d="M94.25,34.71a14,14,0,1,1-14,14A14,14,0,0,1,94.25,34.71Z"/><path class="cls-77" d="M94.25,34.72a14,14,0,1,1-14,14A14,14,0,0,1,94.25,34.72Z"/><path class="cls-78" d="M94.26,34.73a14,14,0,1,1-14,14A13.95,13.95,0,0,1,94.26,34.73Z"/><path class="cls-79" d="M94.27,34.74a13.95,13.95,0,1,1-14,13.95A14,14,0,0,1,94.27,34.74Z"/><path class="cls-80" d="M94.28,34.75a14,14,0,1,1-14,14A14,14,0,0,1,94.28,34.75Z"/><path class="cls-81" d="M94.29,34.76a13.95,13.95,0,1,1-14,14A13.95,13.95,0,0,1,94.29,34.76Z"/><path class="cls-82" d="M94.29,34.77a13.95,13.95,0,1,1-14,13.95A14,14,0,0,1,94.29,34.77Z"/><path class="cls-83" d="M94.3,34.78a13.95,13.95,0,1,1-14,13.95A13.95,13.95,0,0,1,94.3,34.78Z"/><path class="cls-84" d="M94.31,34.79a13.95,13.95,0,1,1-14,14A13.94,13.94,0,0,1,94.31,34.79Z"/><path class="cls-85" d="M94.31,34.8A13.95,13.95,0,1,1,80.37,48.74,13.94,13.94,0,0,1,94.31,34.8Z"/><path class="cls-86" d="M94.32,34.81A13.95,13.95,0,1,1,80.38,48.75,13.95,13.95,0,0,1,94.32,34.81Z"/><path class="cls-87" d="M94.33,34.82A13.94,13.94,0,1,1,80.39,48.76,13.94,13.94,0,0,1,94.33,34.82Z"/><path class="cls-88" d="M94.34,34.83A13.94,13.94,0,1,1,80.4,48.77,13.94,13.94,0,0,1,94.34,34.83Z"/><path class="cls-89" d="M94.35,34.84A13.94,13.94,0,1,1,80.41,48.78,13.94,13.94,0,0,1,94.35,34.84Z"/><path class="cls-90" d="M94.35,34.85A13.94,13.94,0,1,1,80.42,48.79,13.94,13.94,0,0,1,94.35,34.85Z"/><path class="cls-91" d="M94.36,34.86A13.94,13.94,0,1,1,80.43,48.8,13.94,13.94,0,0,1,94.36,34.86Z"/><path class="cls-92" d="M94.37,34.87A13.94,13.94,0,1,1,80.43,48.81,13.94,13.94,0,0,1,94.37,34.87Z"/><circle class="cls-93" cx="94.38" cy="48.81" r="13.93"/><path class="cls-94" d="M94.38,34.89A13.94,13.94,0,1,1,80.45,48.82,13.93,13.93,0,0,1,94.38,34.89Z"/><path class="cls-95" d="M94.39,34.9A13.93,13.93,0,1,1,80.46,48.83,13.93,13.93,0,0,1,94.39,34.9Z"/><path class="cls-96" d="M94.4,34.91A13.93,13.93,0,1,1,80.47,48.84,13.93,13.93,0,0,1,94.4,34.91Z"/><path class="cls-97" d="M94.41,34.92A13.93,13.93,0,1,1,80.48,48.85,13.93,13.93,0,0,1,94.41,34.92Z"/><path class="cls-98" d="M94.41,34.93A13.93,13.93,0,1,1,80.49,48.86,13.93,13.93,0,0,1,94.41,34.93Z"/><path class="cls-99" d="M94.42,34.94A13.93,13.93,0,1,1,80.5,48.87,13.93,13.93,0,0,1,94.42,34.94Z"/><path class="cls-100" d="M94.43,35A13.93,13.93,0,1,1,80.51,48.88,13.93,13.93,0,0,1,94.43,35Z"/><path class="cls-101" d="M94.44,35A13.93,13.93,0,1,1,80.52,48.89,13.93,13.93,0,0,1,94.44,35Z"/><path class="cls-102" d="M94.44,35A13.92,13.92,0,1,1,80.52,48.89,13.93,13.93,0,0,1,94.44,35Z"/><path class="cls-103" d="M94.45,35A13.92,13.92,0,1,1,80.53,48.9,13.92,13.92,0,0,1,94.45,35Z"/><path class="cls-104" d="M94.46,35A13.92,13.92,0,1,1,80.54,48.91,13.92,13.92,0,0,1,94.46,35Z"/><path class="cls-105" d="M94.47,35A13.92,13.92,0,1,1,80.55,48.92,13.92,13.92,0,0,1,94.47,35Z"/><path class="cls-106" d="M94.47,35A13.92,13.92,0,1,1,80.56,48.93,13.92,13.92,0,0,1,94.47,35Z"/><path class="cls-107" d="M94.48,35A13.92,13.92,0,1,1,80.57,48.94,13.92,13.92,0,0,1,94.48,35Z"/><circle class="cls-108" cx="94.49" cy="48.95" r="13.91" transform="translate(24 128.67) rotate(-75.9)"/><path class="cls-109" d="M94.5,35A13.92,13.92,0,1,1,80.59,49,13.92,13.92,0,0,1,94.5,35Z"/><path class="cls-110" d="M94.51,35.05A13.91,13.91,0,1,1,80.6,49,13.9,13.9,0,0,1,94.51,35.05Z"/><path class="cls-111" d="M94.51,35.06A13.91,13.91,0,1,1,80.6,49,13.91,13.91,0,0,1,94.51,35.06Z"/><path class="cls-112" d="M94.52,35.07A13.91,13.91,0,1,1,80.61,49,13.91,13.91,0,0,1,94.52,35.07Z"/><path class="cls-113" d="M94.53,35.08A13.91,13.91,0,1,1,80.62,49,13.9,13.9,0,0,1,94.53,35.08Z"/><path class="cls-114" d="M94.54,35.1A13.9,13.9,0,1,1,80.63,49,13.9,13.9,0,0,1,94.54,35.1Z"/><path class="cls-115" d="M94.54,35.11A13.9,13.9,0,1,1,80.64,49,13.9,13.9,0,0,1,94.54,35.11Z"/><path class="cls-116" d="M94.55,35.12A13.9,13.9,0,1,1,80.65,49,13.9,13.9,0,0,1,94.55,35.12Z"/><path class="cls-117" d="M94.56,35.13A13.9,13.9,0,1,1,80.66,49,13.9,13.9,0,0,1,94.56,35.13Z"/><path class="cls-118" d="M94.57,35.14A13.9,13.9,0,1,1,80.67,49,13.89,13.89,0,0,1,94.57,35.14Z"/><path class="cls-119" d="M94.57,35.15A13.9,13.9,0,1,1,80.68,49,13.89,13.89,0,0,1,94.57,35.15Z"/><path class="cls-120" d="M94.58,35.16A13.9,13.9,0,1,1,80.69,49.05,13.89,13.89,0,0,1,94.58,35.16Z"/><path class="cls-121" d="M94.59,35.17a13.9,13.9,0,1,1-13.9,13.89A13.89,13.89,0,0,1,94.59,35.17Z"/><path class="cls-122" d="M94.6,35.18A13.89,13.89,0,1,1,80.7,49.07,13.89,13.89,0,0,1,94.6,35.18Z"/><path class="cls-123" d="M94.6,35.19A13.89,13.89,0,1,1,80.71,49.08,13.89,13.89,0,0,1,94.6,35.19Z"/><path class="cls-124" d="M94.61,35.2A13.89,13.89,0,1,1,80.72,49.09,13.89,13.89,0,0,1,94.61,35.2Z"/><path class="cls-125" d="M94.62,35.21A13.89,13.89,0,1,1,80.73,49.1,13.89,13.89,0,0,1,94.62,35.21Z"/><path class="cls-126" d="M94.63,35.22A13.89,13.89,0,1,1,80.74,49.1,13.88,13.88,0,0,1,94.63,35.22Z"/><path class="cls-127" d="M94.63,35.23A13.89,13.89,0,1,1,80.75,49.11,13.88,13.88,0,0,1,94.63,35.23Z"/><path class="cls-128" d="M94.64,35.24A13.89,13.89,0,1,1,80.76,49.12,13.88,13.88,0,0,1,94.64,35.24Z"/><path class="cls-129" d="M94.65,35.25A13.89,13.89,0,1,1,80.77,49.13,13.87,13.87,0,0,1,94.65,35.25Z"/><path class="cls-130" d="M94.66,35.26A13.88,13.88,0,1,1,80.78,49.14,13.88,13.88,0,0,1,94.66,35.26Z"/><path class="cls-131" d="M94.67,35.27A13.88,13.88,0,1,1,80.78,49.15,13.88,13.88,0,0,1,94.67,35.27Z"/><path class="cls-132" d="M94.67,35.28A13.88,13.88,0,1,1,80.79,49.16,13.87,13.87,0,0,1,94.67,35.28Z"/><path class="cls-133" d="M94.68,35.29A13.88,13.88,0,1,1,80.8,49.17,13.88,13.88,0,0,1,94.68,35.29Z"/><path class="cls-134" d="M94.69,35.3A13.88,13.88,0,1,1,80.81,49.17,13.87,13.87,0,0,1,94.69,35.3Z"/><path class="cls-135" d="M94.7,35.31A13.88,13.88,0,1,1,80.82,49.18,13.87,13.87,0,0,1,94.7,35.31Z"/><path class="cls-136" d="M94.7,35.32A13.88,13.88,0,1,1,80.83,49.19,13.87,13.87,0,0,1,94.7,35.32Z"/><path class="cls-137" d="M94.71,35.33A13.87,13.87,0,1,1,80.84,49.2,13.87,13.87,0,0,1,94.71,35.33Z"/><path class="cls-138" d="M94.72,35.34A13.87,13.87,0,1,1,80.85,49.21,13.87,13.87,0,0,1,94.72,35.34Z"/><path class="cls-139" d="M94.73,35.35A13.87,13.87,0,1,1,80.86,49.22,13.87,13.87,0,0,1,94.73,35.35Z"/><path class="cls-140" d="M94.73,35.36A13.87,13.87,0,1,1,80.86,49.23,13.87,13.87,0,0,1,94.73,35.36Z"/><path class="cls-141" d="M94.74,35.37A13.87,13.87,0,1,1,80.87,49.24,13.87,13.87,0,0,1,94.74,35.37Z"/><path class="cls-142" d="M94.75,35.38A13.87,13.87,0,1,1,80.88,49.24,13.87,13.87,0,0,1,94.75,35.38Z"/><path class="cls-143" d="M94.76,35.39A13.87,13.87,0,1,1,80.89,49.25,13.87,13.87,0,0,1,94.76,35.39Z"/><path class="cls-144" d="M94.76,35.4A13.87,13.87,0,1,1,80.9,49.26,13.87,13.87,0,0,1,94.76,35.4Z"/><path class="cls-145" d="M94.77,35.41A13.86,13.86,0,1,1,80.91,49.27,13.86,13.86,0,0,1,94.77,35.41Z"/><path class="cls-146" d="M94.78,35.42A13.86,13.86,0,1,1,80.92,49.28,13.87,13.87,0,0,1,94.78,35.42Z"/><path class="cls-147" d="M94.79,35.43A13.86,13.86,0,1,1,80.93,49.29,13.86,13.86,0,0,1,94.79,35.43Z"/><path class="cls-148" d="M94.79,35.44A13.86,13.86,0,1,1,80.94,49.3,13.85,13.85,0,0,1,94.79,35.44Z"/><path class="cls-149" d="M94.8,35.45A13.86,13.86,0,1,1,81,49.31,13.85,13.85,0,0,1,94.8,35.45Z"/><path class="cls-150" d="M94.81,35.46A13.86,13.86,0,1,1,81,49.31,13.85,13.85,0,0,1,94.81,35.46Z"/><path class="cls-151" d="M94.82,35.47A13.86,13.86,0,1,1,81,49.32,13.85,13.85,0,0,1,94.82,35.47Z"/><path class="cls-152" d="M94.82,35.48A13.85,13.85,0,1,1,81,49.33,13.86,13.86,0,0,1,94.82,35.48Z"/><path class="cls-153" d="M94.83,35.49A13.85,13.85,0,1,1,81,49.34,13.85,13.85,0,0,1,94.83,35.49Z"/><path class="cls-154" d="M94.84,35.5A13.85,13.85,0,1,1,81,49.35,13.85,13.85,0,0,1,94.84,35.5Z"/><path class="cls-155" d="M94.85,35.51A13.85,13.85,0,1,1,81,49.36,13.85,13.85,0,0,1,94.85,35.51Z"/><path class="cls-156" d="M94.86,35.52A13.85,13.85,0,1,1,81,49.37,13.85,13.85,0,0,1,94.86,35.52Z"/><path class="cls-157" d="M94.86,35.53A13.85,13.85,0,1,1,81,49.38,13.85,13.85,0,0,1,94.86,35.53Z"/><path class="cls-158" d="M94.87,35.54A13.85,13.85,0,1,1,81,49.38,13.84,13.84,0,0,1,94.87,35.54Z"/><path class="cls-159" d="M94.88,35.55A13.85,13.85,0,1,1,81,49.39,13.84,13.84,0,0,1,94.88,35.55Z"/><path class="cls-160" d="M94.89,35.56A13.84,13.84,0,1,1,81.05,49.4,13.84,13.84,0,0,1,94.89,35.56Z"/><path class="cls-161" d="M94.89,35.57A13.84,13.84,0,1,1,81.05,49.41,13.84,13.84,0,0,1,94.89,35.57Z"/><path class="cls-162" d="M94.9,35.58A13.84,13.84,0,1,1,81.06,49.42,13.84,13.84,0,0,1,94.9,35.58Z"/><path class="cls-163" d="M94.91,35.59A13.84,13.84,0,1,1,81.07,49.43,13.84,13.84,0,0,1,94.91,35.59Z"/><path class="cls-164" d="M94.92,35.6A13.84,13.84,0,1,1,81.08,49.44,13.84,13.84,0,0,1,94.92,35.6Z"/><path class="cls-165" d="M94.92,35.61A13.84,13.84,0,1,1,81.09,49.45,13.84,13.84,0,0,1,94.92,35.61Z"/><path class="cls-166" d="M94.93,35.62A13.84,13.84,0,1,1,81.1,49.45,13.83,13.83,0,0,1,94.93,35.62Z"/><path class="cls-167" d="M94.94,35.63A13.84,13.84,0,1,1,81.11,49.46,13.83,13.83,0,0,1,94.94,35.63Z"/><path class="cls-168" d="M95,35.64A13.83,13.83,0,1,1,81.12,49.47,13.83,13.83,0,0,1,95,35.64Z"/><path class="cls-169" d="M95,35.65A13.83,13.83,0,1,1,81.13,49.48,13.83,13.83,0,0,1,95,35.65Z"/><path class="cls-170" d="M95,35.66A13.83,13.83,0,1,1,81.13,49.49,13.83,13.83,0,0,1,95,35.66Z"/><path class="cls-171" d="M95,35.67A13.83,13.83,0,1,1,81.14,49.5,13.82,13.82,0,0,1,95,35.67Z"/><path class="cls-172" d="M95,35.68A13.83,13.83,0,1,1,81.15,49.51,13.83,13.83,0,0,1,95,35.68Z"/><path class="cls-173" d="M95,35.69A13.83,13.83,0,1,1,81.16,49.52,13.83,13.83,0,0,1,95,35.69Z"/><path class="cls-174" d="M95,35.7A13.83,13.83,0,1,1,81.17,49.52,13.82,13.82,0,0,1,95,35.7Z"/><path class="cls-175" d="M95,35.71A13.83,13.83,0,1,1,81.18,49.53,13.82,13.82,0,0,1,95,35.71Z"/><path class="cls-176" d="M95,35.72A13.82,13.82,0,1,1,81.19,49.54,13.82,13.82,0,0,1,95,35.72Z"/><path class="cls-177" d="M95,35.73A13.82,13.82,0,1,1,81.2,49.55,13.81,13.81,0,0,1,95,35.73Z"/><path class="cls-178" d="M95,35.74A13.82,13.82,0,1,1,81.21,49.56,13.82,13.82,0,0,1,95,35.74Z"/><path class="cls-179" d="M95,35.76A13.81,13.81,0,1,1,81.22,49.57,13.81,13.81,0,0,1,95,35.76Z"/><path class="cls-180" d="M95,35.77A13.81,13.81,0,1,1,81.22,49.58,13.81,13.81,0,0,1,95,35.77Z"/><path class="cls-181" d="M95,35.77A13.82,13.82,0,1,1,81.23,49.59,13.82,13.82,0,0,1,95,35.77Z"/><path class="cls-182" d="M95.05,35.79A13.81,13.81,0,1,1,81.24,49.6,13.81,13.81,0,0,1,95.05,35.79Z"/><path class="cls-183" d="M95.06,35.8A13.81,13.81,0,1,1,81.25,49.6,13.8,13.8,0,0,1,95.06,35.8Z"/><path class="cls-184" d="M95.07,35.81a13.81,13.81,0,1,1-13.81,13.8A13.8,13.8,0,0,1,95.07,35.81Z"/><path class="cls-185" d="M95.08,35.82a13.81,13.81,0,1,1-13.81,13.8A13.8,13.8,0,0,1,95.08,35.82Z"/><path class="cls-186" d="M95.08,35.83a13.81,13.81,0,1,1-13.8,13.8A13.8,13.8,0,0,1,95.08,35.83Z"/><path class="cls-187" d="M95.09,35.84a13.8,13.8,0,1,1-13.8,13.8A13.81,13.81,0,0,1,95.09,35.84Z"/><path class="cls-188" d="M95.1,35.85a13.8,13.8,0,1,1-13.8,13.8A13.8,13.8,0,0,1,95.1,35.85Z"/><path class="cls-189" d="M95.11,35.86a13.8,13.8,0,1,1-13.8,13.8A13.8,13.8,0,0,1,95.11,35.86Z"/><path class="cls-190" d="M95.11,35.87a13.8,13.8,0,1,1-13.8,13.8A13.79,13.79,0,0,1,95.11,35.87Z"/><path class="cls-191" d="M95.12,35.88a13.8,13.8,0,1,1-13.8,13.79A13.79,13.79,0,0,1,95.12,35.88Z"/><path class="cls-192" d="M95.13,35.89a13.8,13.8,0,1,1-13.8,13.79A13.79,13.79,0,0,1,95.13,35.89Z"/><path class="cls-193" d="M95.14,35.9a13.8,13.8,0,1,1-13.8,13.79A13.78,13.78,0,0,1,95.14,35.9Z"/><path class="cls-194" d="M95.14,35.91A13.8,13.8,0,1,1,81.35,49.7,13.79,13.79,0,0,1,95.14,35.91Z"/><path class="cls-195" d="M95.15,35.92A13.79,13.79,0,1,1,81.36,49.71,13.79,13.79,0,0,1,95.15,35.92Z"/><path class="cls-196" d="M95.16,35.93A13.79,13.79,0,1,1,81.37,49.72,13.78,13.78,0,0,1,95.16,35.93Z"/><path class="cls-197" d="M95.17,35.94A13.79,13.79,0,1,1,81.38,49.73,13.79,13.79,0,0,1,95.17,35.94Z"/><path class="cls-198" d="M95.18,36A13.79,13.79,0,1,1,81.39,49.74,13.78,13.78,0,0,1,95.18,36Z"/><path class="cls-199" d="M95.18,36A13.79,13.79,0,1,1,81.39,49.74,13.78,13.78,0,0,1,95.18,36Z"/><path class="cls-200" d="M95.19,36A13.79,13.79,0,1,1,81.4,49.75,13.79,13.79,0,0,1,95.19,36Z"/><path class="cls-201" d="M95.2,36A13.79,13.79,0,1,1,81.41,49.76,13.78,13.78,0,0,1,95.2,36Z"/><path class="cls-202" d="M95.21,36A13.79,13.79,0,1,1,81.42,49.77,13.78,13.78,0,0,1,95.21,36Z"/><path class="cls-203" d="M95.21,36A13.78,13.78,0,1,1,81.43,49.78,13.79,13.79,0,0,1,95.21,36Z"/><path class="cls-204" d="M95.22,36A13.78,13.78,0,1,1,81.44,49.79,13.78,13.78,0,0,1,95.22,36Z"/><path class="cls-205" d="M95.23,36A13.78,13.78,0,1,1,81.45,49.8,13.78,13.78,0,0,1,95.23,36Z"/><path class="cls-206" d="M95.24,36A13.78,13.78,0,1,1,81.46,49.81,13.77,13.77,0,0,1,95.24,36Z"/><path class="cls-207" d="M95.24,36A13.78,13.78,0,1,1,81.47,49.81,13.78,13.78,0,0,1,95.24,36Z"/><path class="cls-208" d="M95.25,36.05A13.78,13.78,0,1,1,81.48,49.82,13.78,13.78,0,0,1,95.25,36.05Z"/><path class="cls-209" d="M95.26,36.06A13.78,13.78,0,1,1,81.48,49.83,13.77,13.77,0,0,1,95.26,36.06Z"/><path class="cls-210" d="M95.27,36.07A13.77,13.77,0,1,1,81.49,49.84,13.77,13.77,0,0,1,95.27,36.07Z"/><path class="cls-211" d="M109,49.85A13.77,13.77,0,1,1,95.27,36.08,13.76,13.76,0,0,1,109,49.85Z"/><path class="cls-212" d="M95.28,36.09A13.77,13.77,0,1,1,81.51,49.86,13.76,13.76,0,0,1,95.28,36.09Z"/><path class="cls-213" d="M95.29,36.1A13.77,13.77,0,1,1,81.52,49.87,13.77,13.77,0,0,1,95.29,36.1Z"/><path class="cls-214" d="M95.29,36.1A13.78,13.78,0,1,1,81.52,49.87,13.78,13.78,0,0,1,95.29,36.1Z"/><path class="cls-215" d="M95.3,36.11A13.77,13.77,0,1,1,81.53,49.88,13.77,13.77,0,0,1,95.3,36.11Z"/><path class="cls-216" d="M95.31,36.12A13.77,13.77,0,1,1,81.54,49.89,13.77,13.77,0,0,1,95.31,36.12Z"/><path class="cls-217" d="M95.31,36.13A13.77,13.77,0,1,1,81.54,49.9,13.76,13.76,0,0,1,95.31,36.13Z"/><path class="cls-218" d="M95.32,36.13A13.78,13.78,0,1,1,81.55,49.9,13.77,13.77,0,0,1,95.32,36.13Z"/><path class="cls-219" d="M95.33,36.14A13.77,13.77,0,1,1,81.56,49.91,13.78,13.78,0,0,1,95.33,36.14Z"/><path class="cls-220" d="M95.33,36.15A13.77,13.77,0,1,1,81.56,49.92,13.77,13.77,0,0,1,95.33,36.15Z"/><path class="cls-221" d="M95.34,36.16A13.77,13.77,0,1,1,81.57,49.93,13.76,13.76,0,0,1,95.34,36.16Z"/><path class="cls-222" d="M95.35,36.17A13.77,13.77,0,1,1,81.58,49.94,13.77,13.77,0,0,1,95.35,36.17Z"/><path class="cls-223" d="M95.35,36.17A13.78,13.78,0,1,1,81.58,49.94,13.77,13.77,0,0,1,95.35,36.17Z"/><path class="cls-224" d="M95.36,36.18A13.78,13.78,0,1,1,81.59,50,13.77,13.77,0,0,1,95.36,36.18Z"/><path class="cls-225" d="M95.37,36.19A13.77,13.77,0,1,1,81.59,50,13.78,13.78,0,0,1,95.37,36.19Z"/><path class="cls-226" d="M95.37,36.2A13.77,13.77,0,1,1,81.6,50,13.76,13.76,0,0,1,95.37,36.2Z"/><path class="cls-227" d="M95.38,36.21A13.77,13.77,0,1,1,81.61,50,13.77,13.77,0,0,1,95.38,36.21Z"/><path class="cls-228" d="M95.38,36.21A13.78,13.78,0,1,1,81.61,50,13.78,13.78,0,0,1,95.38,36.21Z"/><path class="cls-229" d="M95.39,36.22A13.78,13.78,0,1,1,81.62,50,13.77,13.77,0,0,1,95.39,36.22Z"/><path class="cls-230" d="M95.4,36.23A13.77,13.77,0,1,1,81.63,50,13.77,13.77,0,0,1,95.4,36.23Z"/><path class="cls-231" d="M95.41,36.24A13.77,13.77,0,1,1,81.63,50,13.77,13.77,0,0,1,95.41,36.24Z"/><path class="cls-232" d="M95.41,36.25A13.77,13.77,0,1,1,81.64,50,13.76,13.76,0,0,1,95.41,36.25Z"/><path class="cls-233" d="M95.42,36.25A13.78,13.78,0,1,1,81.65,50,13.78,13.78,0,0,1,95.42,36.25Z"/><path class="cls-234" d="M95.42,36.26A13.77,13.77,0,1,1,81.65,50,13.78,13.78,0,0,1,95.42,36.26Z"/><path class="cls-235" d="M95.43,36.27A13.77,13.77,0,1,1,81.66,50,13.76,13.76,0,0,1,95.43,36.27Z"/><path class="cls-236" d="M95.44,36.28A13.77,13.77,0,1,1,81.67,50.05,13.77,13.77,0,0,1,95.44,36.28Z"/><path class="cls-237" d="M95.45,36.29A13.77,13.77,0,1,1,81.67,50.06,13.77,13.77,0,0,1,95.45,36.29Z"/><path class="cls-238" d="M95.45,36.29A13.78,13.78,0,1,1,81.68,50.06,13.77,13.77,0,0,1,95.45,36.29Z"/><path class="cls-239" d="M95.46,36.3A13.77,13.77,0,1,1,81.69,50.07,13.78,13.78,0,0,1,95.46,36.3Z"/><path class="cls-240" d="M95.46,36.31A13.77,13.77,0,1,1,81.69,50.08,13.77,13.77,0,0,1,95.46,36.31Z"/><path class="cls-241" d="M95.47,36.32A13.77,13.77,0,1,1,81.7,50.09,13.76,13.76,0,0,1,95.47,36.32Z"/><path class="cls-242" d="M95.48,36.33A13.77,13.77,0,1,1,81.71,50.1,13.77,13.77,0,0,1,95.48,36.33Z"/><path class="cls-243" d="M95.48,36.33A13.78,13.78,0,1,1,81.71,50.1,13.78,13.78,0,0,1,95.48,36.33Z"/><path class="cls-244" d="M95.49,36.34A13.77,13.77,0,1,1,81.72,50.11,13.77,13.77,0,0,1,95.49,36.34Z"/><path class="cls-245" d="M95.5,36.35A13.77,13.77,0,1,1,81.73,50.12,13.77,13.77,0,0,1,95.5,36.35Z"/><path class="cls-246" d="M95.5,36.36A13.77,13.77,0,1,1,81.73,50.13,13.77,13.77,0,0,1,95.5,36.36Z"/><path class="cls-247" d="M95.51,36.36A13.78,13.78,0,1,1,81.74,50.14,13.77,13.77,0,0,1,95.51,36.36Z"/><path class="cls-248" d="M95.52,36.37A13.78,13.78,0,1,1,81.75,50.14,13.78,13.78,0,0,1,95.52,36.37Z"/><path class="cls-249" d="M95.52,36.38A13.77,13.77,0,1,1,81.75,50.15,13.77,13.77,0,0,1,95.52,36.38Z"/><path class="cls-250" d="M95.53,36.39A13.77,13.77,0,1,1,81.76,50.16,13.76,13.76,0,0,1,95.53,36.39Z"/><path class="cls-251" d="M95.54,36.4A13.77,13.77,0,1,1,81.77,50.17,13.77,13.77,0,0,1,95.54,36.4Z"/><path class="cls-252" d="M95.54,36.4A13.78,13.78,0,1,1,81.77,50.17,13.77,13.77,0,0,1,95.54,36.4Z"/><path class="cls-253" d="M95.55,36.41A13.77,13.77,0,1,1,81.78,50.18,13.77,13.77,0,0,1,95.55,36.41Z"/><path class="cls-254" d="M95.56,36.42A13.77,13.77,0,1,1,81.79,50.19,13.78,13.78,0,0,1,95.56,36.42Z"/><path class="cls-255" d="M95.56,36.43A13.77,13.77,0,1,1,81.79,50.2,13.76,13.76,0,0,1,95.56,36.43Z"/><path class="cls-256" d="M95.57,36.44A13.77,13.77,0,1,1,81.8,50.21,13.76,13.76,0,0,1,95.57,36.44Z"/><path class="cls-257" d="M95.58,36.44A13.78,13.78,0,1,1,81.81,50.21,13.78,13.78,0,0,1,95.58,36.44Z"/><path class="cls-258" d="M95.58,36.45A13.77,13.77,0,1,1,81.81,50.22,13.77,13.77,0,0,1,95.58,36.45Z"/><path class="cls-259" d="M95.59,36.46A13.77,13.77,0,1,1,81.82,50.23,13.76,13.76,0,0,1,95.59,36.46Z"/><path class="cls-260" d="M95.6,36.47A13.77,13.77,0,1,1,81.82,50.24,13.77,13.77,0,0,1,95.6,36.47Z"/><path class="cls-261" d="M95.6,36.48A13.77,13.77,0,1,1,81.83,50.25,13.76,13.76,0,0,1,95.6,36.48Z"/><path class="cls-262" d="M95.61,36.48A13.78,13.78,0,1,1,81.84,50.25,13.78,13.78,0,0,1,95.61,36.48Z"/><path class="cls-263" d="M95.62,36.49A13.77,13.77,0,1,1,81.84,50.26,13.78,13.78,0,0,1,95.62,36.49Z"/><path class="cls-264" d="M95.62,36.5A13.77,13.77,0,1,1,81.85,50.27,13.76,13.76,0,0,1,95.62,36.5Z"/><path class="cls-265" d="M95.63,36.51A13.77,13.77,0,1,1,81.86,50.28,13.77,13.77,0,0,1,95.63,36.51Z"/><path class="cls-266" d="M95.63,36.52A13.77,13.77,0,1,1,81.86,50.29,13.77,13.77,0,0,1,95.63,36.52Z"/><path class="cls-267" d="M95.64,36.52A13.78,13.78,0,1,1,81.87,50.29,13.77,13.77,0,0,1,95.64,36.52Z"/><path class="cls-268" d="M95.65,36.53A13.77,13.77,0,1,1,81.88,50.3,13.78,13.78,0,0,1,95.65,36.53Z"/><path class="cls-269" d="M95.66,36.54A13.77,13.77,0,1,1,81.88,50.31,13.77,13.77,0,0,1,95.66,36.54Z"/><path class="cls-270" d="M95.66,36.55A13.77,13.77,0,1,1,81.89,50.32,13.76,13.76,0,0,1,95.66,36.55Z"/><path class="cls-271" d="M95.67,36.56A13.77,13.77,0,1,1,81.9,50.32,13.77,13.77,0,0,1,95.67,36.56Z"/><path class="cls-272" d="M95.68,36.56A13.78,13.78,0,1,1,81.9,50.33,13.78,13.78,0,0,1,95.68,36.56Z"/><path class="cls-273" d="M95.68,36.57A13.77,13.77,0,1,1,81.91,50.34,13.77,13.77,0,0,1,95.68,36.57Z"/><path class="cls-274" d="M95.69,36.58A13.77,13.77,0,1,1,81.92,50.35,13.77,13.77,0,0,1,95.69,36.58Z"/><path class="cls-275" d="M95.69,36.59A13.77,13.77,0,1,1,81.92,50.36,13.76,13.76,0,0,1,95.69,36.59Z"/><path class="cls-276" d="M95.7,36.59A13.78,13.78,0,1,1,81.93,50.36,13.77,13.77,0,0,1,95.7,36.59Z"/><path class="cls-277" d="M95.71,36.6A13.78,13.78,0,1,1,81.94,50.37,13.78,13.78,0,0,1,95.71,36.6Z"/><path class="cls-278" d="M95.71,36.61A13.77,13.77,0,1,1,81.94,50.38,13.78,13.78,0,0,1,95.71,36.61Z"/><path class="cls-279" d="M95.72,36.62A13.77,13.77,0,1,1,82,50.39,13.76,13.76,0,0,1,95.72,36.62Z"/><path class="cls-280" d="M95.73,36.63A13.77,13.77,0,1,1,82,50.4,13.77,13.77,0,0,1,95.73,36.63Z"/><path class="cls-281" d="M95.73,36.63A13.78,13.78,0,1,1,82,50.4,13.78,13.78,0,0,1,95.73,36.63Z"/><path class="cls-282" d="M95.74,36.64A13.77,13.77,0,1,1,82,50.41,13.77,13.77,0,0,1,95.74,36.64Z"/><path class="cls-283" d="M95.75,36.65A13.77,13.77,0,1,1,82,50.42,13.77,13.77,0,0,1,95.75,36.65Z"/><path class="cls-284" d="M95.75,36.66A13.77,13.77,0,1,1,82,50.43,13.77,13.77,0,0,1,95.75,36.66Z"/><path class="cls-285" d="M95.76,36.67A13.77,13.77,0,1,1,82,50.44,13.76,13.76,0,0,1,95.76,36.67Z"/><path class="cls-286" d="M95.77,36.67A13.78,13.78,0,1,1,82,50.44,13.78,13.78,0,0,1,95.77,36.67Z"/><path class="cls-287" d="M95.77,36.68A13.77,13.77,0,1,1,82,50.45,13.77,13.77,0,0,1,95.77,36.68Z"/><path class="cls-288" d="M95.78,36.69A13.77,13.77,0,1,1,82,50.46,13.76,13.76,0,0,1,95.78,36.69Z"/><path class="cls-289" d="M95.79,36.7A13.77,13.77,0,1,1,82,50.47,13.77,13.77,0,0,1,95.79,36.7Z"/><path class="cls-290" d="M95.79,36.71A13.77,13.77,0,1,1,82,50.48,13.76,13.76,0,0,1,95.79,36.71Z"/><path class="cls-291" d="M95.8,36.71A13.78,13.78,0,1,1,82,50.48,13.77,13.77,0,0,1,95.8,36.71Z"/><path class="cls-292" d="M95.81,36.72A13.77,13.77,0,1,1,82,50.49,13.78,13.78,0,0,1,95.81,36.72Z"/><path class="cls-293" d="M95.81,36.73A13.77,13.77,0,1,1,82,50.5,13.76,13.76,0,0,1,95.81,36.73Z"/><path class="cls-294" d="M95.82,36.74A13.77,13.77,0,1,1,82.05,50.51,13.76,13.76,0,0,1,95.82,36.74Z"/><path class="cls-295" d="M95.83,36.75A13.77,13.77,0,1,1,82.05,50.52,13.77,13.77,0,0,1,95.83,36.75Z"/><path class="cls-296" d="M95.83,36.75A13.78,13.78,0,1,1,82.06,50.52,13.77,13.77,0,0,1,95.83,36.75Z"/><path class="cls-297" d="M95.84,36.76A13.77,13.77,0,1,1,82.07,50.53,13.77,13.77,0,0,1,95.84,36.76Z"/><path class="cls-298" d="M95.85,36.77A13.77,13.77,0,1,1,82.07,50.54,13.77,13.77,0,0,1,95.85,36.77Z"/><path class="cls-299" d="M95.85,36.78A13.77,13.77,0,1,1,82.08,50.55,13.76,13.76,0,0,1,95.85,36.78Z"/><path class="cls-300" d="M95.86,36.79A13.77,13.77,0,1,1,82.09,50.56,13.77,13.77,0,0,1,95.86,36.79Z"/><path class="cls-301" d="M95.87,36.79A13.78,13.78,0,1,1,82.09,50.56,13.78,13.78,0,0,1,95.87,36.79Z"/><path class="cls-302" d="M95.87,36.8A13.77,13.77,0,1,1,82.1,50.57,13.77,13.77,0,0,1,95.87,36.8Z"/><path class="cls-303" d="M95.88,36.81A13.77,13.77,0,1,1,82.11,50.58,13.77,13.77,0,0,1,95.88,36.81Z"/><path class="cls-304" d="M95.88,36.82A13.77,13.77,0,1,1,82.11,50.59,13.77,13.77,0,0,1,95.88,36.82Z"/><path class="cls-305" d="M95.89,36.82A13.78,13.78,0,1,1,82.12,50.6,13.77,13.77,0,0,1,95.89,36.82Z"/><path class="cls-306" d="M95.9,36.83A13.77,13.77,0,1,1,82.13,50.6,13.78,13.78,0,0,1,95.9,36.83Z"/><path class="cls-307" d="M95.9,36.84A13.77,13.77,0,1,1,82.13,50.61,13.78,13.78,0,0,1,95.9,36.84Z"/><path class="cls-308" d="M95.91,36.85A13.77,13.77,0,1,1,82.14,50.62,13.76,13.76,0,0,1,95.91,36.85Z"/><path class="cls-309" d="M95.92,36.86A13.77,13.77,0,1,1,82.15,50.63,13.77,13.77,0,0,1,95.92,36.86Z"/><path class="cls-310" d="M95.92,36.86A13.78,13.78,0,1,1,82.15,50.63,13.78,13.78,0,0,1,95.92,36.86Z"/><path class="cls-311" d="M95.93,36.87A13.77,13.77,0,1,1,82.16,50.64,13.77,13.77,0,0,1,95.93,36.87Z"/><path class="cls-312" d="M95.94,36.88A13.77,13.77,0,1,1,82.17,50.65,13.78,13.78,0,0,1,95.94,36.88Z"/><path class="cls-313" d="M95.94,36.89A13.77,13.77,0,1,1,82.17,50.66,13.76,13.76,0,0,1,95.94,36.89Z"/><path class="cls-314" d="M96,36.9A13.77,13.77,0,1,1,82.18,50.67,13.76,13.76,0,0,1,96,36.9Z"/><path class="cls-315" d="M96,36.9A13.78,13.78,0,1,1,82.19,50.67,13.78,13.78,0,0,1,96,36.9Z"/><path class="cls-316" d="M96,36.91A13.77,13.77,0,1,1,82.19,50.68,13.78,13.78,0,0,1,96,36.91Z"/><path class="cls-317" d="M96,36.92A13.77,13.77,0,1,1,82.2,50.69,13.77,13.77,0,0,1,96,36.92Z"/><path class="cls-318" d="M96,36.93A13.77,13.77,0,1,1,82.21,50.7,13.77,13.77,0,0,1,96,36.93Z"/><path class="cls-319" d="M96,36.93A13.78,13.78,0,1,1,82.21,50.71,13.78,13.78,0,0,1,96,36.93Z"/><path class="cls-320" d="M96,36.94A13.78,13.78,0,1,1,82.22,50.71,13.77,13.77,0,0,1,96,36.94Z"/><path class="cls-321" d="M96,37A13.77,13.77,0,1,1,82.23,50.72,13.78,13.78,0,0,1,96,37Z"/><path class="cls-322" d="M96,37A13.77,13.77,0,1,1,82.23,50.73,13.77,13.77,0,0,1,96,37Z"/><path class="cls-323" d="M96,37A13.77,13.77,0,1,1,82.24,50.74,13.76,13.76,0,0,1,96,37Z"/><path class="cls-324" d="M96,37A13.77,13.77,0,1,1,82.25,50.75,13.77,13.77,0,0,1,96,37Z"/><path class="cls-325" d="M96,37A13.78,13.78,0,1,1,82.25,50.75,13.77,13.77,0,0,1,96,37Z"/><path class="cls-326" d="M96,37A13.77,13.77,0,1,1,82.26,50.76,13.77,13.77,0,0,1,96,37Z"/><path class="cls-327" d="M96,37A13.77,13.77,0,1,1,82.27,50.77,13.77,13.77,0,0,1,96,37Z"/><path class="cls-328" d="M96,37A13.77,13.77,0,1,1,82.27,50.78,13.76,13.76,0,0,1,96,37Z"/><path class="cls-329" d="M96.05,37A13.78,13.78,0,1,1,82.28,50.79,13.77,13.77,0,0,1,96.05,37Z"/><path class="cls-330" d="M96.06,37A13.77,13.77,0,1,1,82.28,50.79,13.78,13.78,0,0,1,96.06,37Z"/><path class="cls-331" d="M96.06,37A13.77,13.77,0,1,1,82.29,50.8,13.77,13.77,0,0,1,96.06,37Z"/><path class="cls-332" d="M96.07,37A13.77,13.77,0,1,1,82.3,50.81,13.76,13.76,0,0,1,96.07,37Z"/><path class="cls-333" d="M96.08,37.05A13.77,13.77,0,1,1,82.31,50.82,13.77,13.77,0,0,1,96.08,37.05Z"/><path class="cls-334" d="M96.08,37.05A13.78,13.78,0,1,1,82.31,50.82,13.77,13.77,0,0,1,96.08,37.05Z"/><path class="cls-335" d="M96.09,37.06A13.77,13.77,0,1,1,82.32,50.83,13.77,13.77,0,0,1,96.09,37.06Z"/><path class="cls-336" d="M96.1,37.07A13.77,13.77,0,1,1,82.32,50.84,13.78,13.78,0,0,1,96.1,37.07Z"/><path class="cls-337" d="M96.1,37.08A13.77,13.77,0,1,1,82.33,50.85,13.76,13.76,0,0,1,96.1,37.08Z"/><path class="cls-338" d="M96.11,37.09A13.77,13.77,0,1,1,82.34,50.86,13.77,13.77,0,0,1,96.11,37.09Z"/><path class="cls-339" d="M96.12,37.09A13.78,13.78,0,1,1,82.34,50.86,13.78,13.78,0,0,1,96.12,37.09Z"/><path class="cls-340" d="M96.12,37.1A13.77,13.77,0,1,1,82.35,50.87,13.77,13.77,0,0,1,96.12,37.1Z"/><path class="cls-341" d="M96.13,37.11A13.77,13.77,0,1,1,82.36,50.88,13.78,13.78,0,0,1,96.13,37.11Z"/><path class="cls-342" d="M96.13,37.12A13.77,13.77,0,1,1,82.36,50.89,13.77,13.77,0,0,1,96.13,37.12Z"/><path class="cls-343" d="M96.14,37.13A13.77,13.77,0,1,1,82.37,50.9,13.76,13.76,0,0,1,96.14,37.13Z"/><path class="cls-344" d="M96.15,37.13A13.78,13.78,0,1,1,82.38,50.9,13.78,13.78,0,0,1,96.15,37.13Z"/><path class="cls-345" d="M96.15,37.14A13.77,13.77,0,1,1,82.38,50.91,13.78,13.78,0,0,1,96.15,37.14Z"/><path class="cls-346" d="M96.16,37.15A13.77,13.77,0,1,1,82.39,50.92,13.76,13.76,0,0,1,96.16,37.15Z"/><path class="cls-347" d="M96.17,37.16A13.77,13.77,0,1,1,82.4,50.93,13.77,13.77,0,0,1,96.17,37.16Z"/><path class="cls-348" d="M96.17,37.17A13.77,13.77,0,1,1,82.4,50.94,13.77,13.77,0,0,1,96.17,37.17Z"/><path class="cls-349" d="M96.18,37.17A13.78,13.78,0,1,1,82.41,50.94,13.77,13.77,0,0,1,96.18,37.17Z"/><path class="cls-350" d="M96.19,37.18A13.77,13.77,0,1,1,82.42,51,13.78,13.78,0,0,1,96.19,37.18Z"/><path class="cls-351" d="M96.19,37.19A13.77,13.77,0,1,1,82.42,51,13.76,13.76,0,0,1,96.19,37.19Z"/><path class="cls-352" d="M96.2,37.2A13.77,13.77,0,1,1,82.43,51,13.76,13.76,0,0,1,96.2,37.2Z"/><path class="cls-353" d="M96.21,37.2A13.78,13.78,0,1,1,82.44,51,13.78,13.78,0,0,1,96.21,37.2Z"/><path class="cls-354" d="M96.21,37.21A13.78,13.78,0,1,1,82.44,51,13.77,13.77,0,0,1,96.21,37.21Z"/><path class="cls-355" d="M96.22,37.22A13.77,13.77,0,1,1,82.45,51,13.77,13.77,0,0,1,96.22,37.22Z"/><path class="cls-356" d="M96.23,37.23A13.77,13.77,0,1,1,82.46,51,13.77,13.77,0,0,1,96.23,37.23Z"/><path class="cls-357" d="M96.23,37.24A13.77,13.77,0,1,1,82.46,51,13.77,13.77,0,0,1,96.23,37.24Z"/><path class="cls-358" d="M96.24,37.24A13.78,13.78,0,1,1,82.47,51,13.77,13.77,0,0,1,96.24,37.24Z"/><path class="cls-359" d="M96.25,37.25A13.77,13.77,0,1,1,82.48,51,13.78,13.78,0,0,1,96.25,37.25Z"/><path class="cls-360" d="M96.25,37.26A13.77,13.77,0,1,1,82.48,51,13.78,13.78,0,0,1,96.25,37.26Z"/><path class="cls-361" d="M96.26,37.27A13.77,13.77,0,1,1,82.49,51,13.76,13.76,0,0,1,96.26,37.27Z"/><path class="cls-362" d="M96.27,37.28A13.77,13.77,0,1,1,82.5,51.05,13.77,13.77,0,0,1,96.27,37.28Z"/><path class="cls-363" d="M96.27,37.28A13.78,13.78,0,1,1,82.5,51.06,13.77,13.77,0,0,1,96.27,37.28Z"/><path class="cls-364" d="M96.28,37.29A13.77,13.77,0,1,1,82.51,51.06,13.78,13.78,0,0,1,96.28,37.29Z"/><path class="cls-365" d="M96.29,37.3A13.77,13.77,0,1,1,82.52,51.07,13.78,13.78,0,0,1,96.29,37.3Z"/><path class="cls-366" d="M96.29,37.31A13.77,13.77,0,1,1,82.52,51.08,13.76,13.76,0,0,1,96.29,37.31Z"/><path class="cls-367" d="M96.3,37.32A13.77,13.77,0,1,1,82.53,51.09,13.76,13.76,0,0,1,96.3,37.32Z"/><path class="cls-368" d="M96.31,37.32A13.78,13.78,0,1,1,82.53,51.09,13.78,13.78,0,0,1,96.31,37.32Z"/><path class="cls-369" d="M96.31,37.33A13.77,13.77,0,1,1,82.54,51.1,13.77,13.77,0,0,1,96.31,37.33Z"/><path class="cls-370" d="M96.32,37.34A13.77,13.77,0,1,1,82.55,51.11,13.77,13.77,0,0,1,96.32,37.34Z"/><path class="cls-371" d="M96.33,37.35A13.77,13.77,0,1,1,82.55,51.12,13.77,13.77,0,0,1,96.33,37.35Z"/><path class="cls-372" d="M96.33,37.36A13.77,13.77,0,1,1,82.56,51.13,13.76,13.76,0,0,1,96.33,37.36Z"/><path class="cls-373" d="M96.34,37.36A13.78,13.78,0,1,1,82.57,51.13,13.77,13.77,0,0,1,96.34,37.36Z"/><path class="cls-374" d="M96.34,37.37A13.77,13.77,0,1,1,82.57,51.14,13.78,13.78,0,0,1,96.34,37.37Z"/><path class="cls-375" d="M96.35,37.38A13.77,13.77,0,1,1,82.58,51.15,13.77,13.77,0,0,1,96.35,37.38Z"/><path class="cls-376" d="M96.36,37.39A13.77,13.77,0,1,1,82.59,51.16,13.77,13.77,0,0,1,96.36,37.39Z"/><path class="cls-377" d="M96.37,37.39A13.78,13.78,0,1,1,82.59,51.17,13.78,13.78,0,0,1,96.37,37.39Z"/><path class="cls-378" d="M96.37,37.4A13.78,13.78,0,1,1,82.6,51.17,13.77,13.77,0,0,1,96.37,37.4Z"/><path class="cls-379" d="M96.38,37.41A13.77,13.77,0,1,1,82.61,51.18,13.78,13.78,0,0,1,96.38,37.41Z"/><path class="cls-380" d="M96.38,37.42A13.77,13.77,0,1,1,82.61,51.19,13.77,13.77,0,0,1,96.38,37.42Z"/><path class="cls-381" d="M96.39,37.43A13.77,13.77,0,1,1,82.62,51.2,13.76,13.76,0,0,1,96.39,37.43Z"/><path class="cls-382" d="M96.4,37.43A13.78,13.78,0,1,1,82.63,51.21,13.78,13.78,0,0,1,96.4,37.43Z"/><path class="cls-383" d="M96.4,37.44A13.77,13.77,0,1,1,82.63,51.21,13.78,13.78,0,0,1,96.4,37.44Z"/><path class="cls-384" d="M96.41,37.45A13.77,13.77,0,1,1,82.64,51.22,13.77,13.77,0,0,1,96.41,37.45Z"/><path class="cls-385" d="M96.42,37.46A13.77,13.77,0,1,1,82.65,51.23,13.77,13.77,0,0,1,96.42,37.46Z"/><path class="cls-386" d="M96.42,37.47A13.77,13.77,0,1,1,82.65,51.24,13.77,13.77,0,0,1,96.42,37.47Z"/><path class="cls-387" d="M96.43,37.47A13.78,13.78,0,1,1,82.66,51.25,13.77,13.77,0,0,1,96.43,37.47Z"/><path class="cls-388" d="M96.44,37.48A13.77,13.77,0,1,1,82.67,51.25,13.78,13.78,0,0,1,96.44,37.48Z"/><path class="cls-389" d="M96.44,37.49A13.77,13.77,0,1,1,82.67,51.26,13.77,13.77,0,0,1,96.44,37.49Z"/><path class="cls-390" d="M96.45,37.5A13.77,13.77,0,1,1,82.68,51.27,13.76,13.76,0,0,1,96.45,37.5Z"/><path class="cls-391" d="M96.46,37.51A13.77,13.77,0,1,1,82.69,51.28,13.77,13.77,0,0,1,96.46,37.51Z"/><path class="cls-392" d="M96.46,37.51A13.78,13.78,0,1,1,82.69,51.28,13.77,13.77,0,0,1,96.46,37.51Z"/><path class="cls-393" d="M96.47,37.52A13.77,13.77,0,1,1,82.7,51.29,13.77,13.77,0,0,1,96.47,37.52Z"/><path class="cls-394" d="M96.48,37.53A13.77,13.77,0,1,1,82.71,51.3,13.78,13.78,0,0,1,96.48,37.53Z"/><path class="cls-395" d="M96.48,37.54A13.77,13.77,0,1,1,82.71,51.31,13.76,13.76,0,0,1,96.48,37.54Z"/><path class="cls-396" d="M96.49,37.55A13.77,13.77,0,1,1,82.72,51.32,13.76,13.76,0,0,1,96.49,37.55Z"/><path class="cls-397" d="M96.5,37.55A13.78,13.78,0,1,1,82.73,51.32,13.78,13.78,0,0,1,96.5,37.55Z"/><path class="cls-398" d="M96.5,37.56A13.77,13.77,0,1,1,82.73,51.33,13.77,13.77,0,0,1,96.5,37.56Z"/><path class="cls-399" d="M96.51,37.57A13.77,13.77,0,1,1,82.74,51.34,13.77,13.77,0,0,1,96.51,37.57Z"/><path class="cls-400" d="M96.52,37.58A13.77,13.77,0,1,1,82.75,51.35,13.77,13.77,0,0,1,96.52,37.58Z"/><path class="cls-401" d="M96.52,37.58A13.78,13.78,0,1,1,82.75,51.36,13.77,13.77,0,0,1,96.52,37.58Z"/><path class="cls-402" d="M96.53,37.59A13.78,13.78,0,1,1,82.76,51.36,13.78,13.78,0,0,1,96.53,37.59Z"/><path class="cls-403" d="M96.54,37.6A13.77,13.77,0,1,1,82.77,51.37,13.78,13.78,0,0,1,96.54,37.6Z"/><path class="cls-404" d="M96.54,37.61A13.77,13.77,0,1,1,82.77,51.38,13.76,13.76,0,0,1,96.54,37.61Z"/><path class="cls-405" d="M96.55,37.62A13.77,13.77,0,1,1,82.78,51.39,13.76,13.76,0,0,1,96.55,37.62Z"/><path class="cls-406" d="M96.55,37.62A13.78,13.78,0,1,1,82.78,51.4,13.78,13.78,0,0,1,96.55,37.62Z"/><path class="cls-407" d="M96.56,37.63A13.78,13.78,0,1,1,82.79,51.4,13.77,13.77,0,0,1,96.56,37.63Z"/><path class="cls-408" d="M96.57,37.64A13.77,13.77,0,1,1,82.8,51.41,13.78,13.78,0,0,1,96.57,37.64Z"/><path class="cls-409" d="M96.58,37.65A13.77,13.77,0,1,1,82.8,51.42,13.77,13.77,0,0,1,96.58,37.65Z"/><path class="cls-410" d="M96.58,37.66A13.77,13.77,0,1,1,82.81,51.43,13.76,13.76,0,0,1,96.58,37.66Z"/><path class="cls-411" d="M96.59,37.66A13.78,13.78,0,1,1,82.82,51.44,13.77,13.77,0,0,1,96.59,37.66Z"/><path class="cls-412" d="M110.37,51.44A13.78,13.78,0,1,1,96.59,37.67,13.77,13.77,0,0,1,110.37,51.44Z"/></g></g><path class="cls-5" d="M170.59,36c0-.45-.31-.7-.86-.7H169v2.28h.54v-.89l.64.89h.66l-.74-.94A.62.62,0,0,0,170.59,36Zm-1,.31h-.1V35.7h.1c.27,0,.41.09.41.29S169.91,36.29,169.64,36.29Z"/><path class="cls-5" d="M169.84,34.43a2,2,0,1,0,2,2A2,2,0,0,0,169.84,34.43Zm0,3.61a1.63,1.63,0,1,1,1.57-1.62A1.6,1.6,0,0,1,169.83,38Z"/></g></g></svg>